<svg width="1315" height="1522" viewBox="0 0 1315 1522" fill="none" xmlns="http://www.w3.org/2000/svg">
<path d="M630 394.108C585.048 397.363 553.784 401.413 517.709 408.657C401.268 432.037 313.815 478.548 226.872 563.333C214.088 575.8 197.073 593.5 189.061 602.667C168.367 626.344 157.324 634.268 138.053 639.271C127.708 641.956 109.164 641.924 99.9093 639.207C82.316 634.039 65.908 620.735 59.284 606.267C48.752 583.263 57.5813 564.848 86.0733 550.393C93.7267 546.511 99.9907 542.953 99.9933 542.488C99.9973 542.024 96.2133 541.403 91.5853 541.108C85.7893 540.739 80.8347 539.391 75.6707 536.779C68.3173 533.057 67.968 533.013 57.752 534.497C31.6733 538.287 12.4787 555.659 3.37467 583.716C0.181337 593.555 1.036 613.845 5.072 624C14.0987 646.715 46.4053 672.943 74.0733 680.019C91.588 684.499 118.752 683.232 161.196 675.957L184.392 671.983L188.529 675.149C190.805 676.892 204.667 688.372 219.333 700.661C268.835 742.14 296.036 760.908 334.212 779.921C392.744 809.075 451.937 827.239 560.2 849.267C585.609 854.436 606.76 858.667 607.2 858.667C607.64 858.667 607.988 877.717 607.973 901C607.883 1048.25 596.345 1136.59 563.96 1238C551.021 1278.52 543.077 1316.46 539.316 1355.73C536.851 1381.47 536.84 1390.62 539.26 1406.67C547.677 1462.52 584.065 1505.77 632.365 1517.35C646.081 1520.64 669.165 1520.88 683.641 1517.89C738.413 1506.58 768.011 1470.49 776.667 1404.45C780.016 1378.91 779.097 1353.99 773.825 1327.33C772.665 1321.47 767.017 1301.07 761.275 1282C726.572 1166.79 710.987 1097.43 703.307 1024C699.264 985.335 698.481 885.225 702.073 866.079C702.901 861.664 703.099 861.545 711.127 860.648C728.32 858.724 775.079 850.379 800.921 844.623C894.744 823.721 973.923 791.667 1041.88 747.073C1070.87 728.045 1090.96 712.167 1119.5 685.721L1134.34 671.973L1161.98 678.011C1215.14 689.624 1240.16 692.459 1257.33 688.811C1291.44 681.567 1311.13 656.008 1312.93 616.667C1315.3 564.552 1281.59 529.435 1235.46 535.981C1225.26 537.429 1219.88 539.115 1221.37 540.392C1221.72 540.687 1226.5 543.188 1232 545.949C1258.1 559.055 1269.95 574.109 1269.83 594C1269.73 610.228 1262.56 624.727 1249.82 634.513C1223.98 654.344 1169.22 647.881 1132 620.608C1127.23 617.116 1108.33 598.979 1090 580.304C1040.97 530.36 1014.19 507.377 974 480.753C949.376 464.441 937.252 457.304 916.567 446.94C862.184 419.695 797.033 401.308 736 395.98C719.461 394.536 642.787 393.183 630 394.108ZM690.451 460.548C751.156 473.768 799.125 518.136 818.513 578.997C824.169 596.748 826.655 613.467 826.661 633.791C826.685 712.272 771.419 777.428 690 794.901C674.913 798.139 641.583 799.563 628.564 797.524C594.501 792.192 561.743 775.16 535.959 749.375C511.459 724.876 495.664 695.98 488.561 662.667C485.037 646.136 485.308 615.851 489.14 597.749C505.295 521.46 560.708 468.773 635.333 458.749C648.328 457.004 678.729 457.996 690.451 460.548ZM857.333 493.009C939.181 525.876 1010.5 570.557 1071.33 627.089L1080.67 635.763L1074 642.675C1057.45 659.831 1013.53 691.225 976.167 712.611C925.989 741.329 865.037 767.445 830.373 775.079L821.413 777.051L824.539 772.859C830.701 764.596 844.588 740.419 850.865 727.024C868.325 689.768 875.743 654.904 874.204 617.333C872.881 585.083 865.608 557.609 850.023 526C845.321 516.467 837.301 502.272 832.2 494.457L822.925 480.247L831.796 483.281C836.675 484.951 848.167 489.328 857.333 493.009ZM479.861 495C462.475 521.668 446.192 559.409 440.816 585.507C428.889 643.401 440.849 700.283 476.52 755.313C481.267 762.636 484.924 768.853 484.648 769.129C483.447 770.332 464.673 766.049 449.333 761.075C393.727 743.041 303.933 694.579 250.352 653.68C242.896 647.989 236.231 642.944 235.539 642.469C231.987 640.027 252.92 618.032 276.847 599.067C321.028 564.043 392.833 520.744 443.333 498.676C457.253 492.592 483.492 482.855 486.284 482.736C487.175 482.697 484.284 488.217 479.861 495Z" fill="#E0CEA0" stroke="#E0CEA0" stroke-width="1.33333"/>
<path d="M1126.67 206.773C1048.57 248 918.052 317.447 909.008 322.587C906.996 323.731 905.347 325.092 905.341 325.611C905.329 327.004 1155.27 505.333 1157.23 505.333C1157.75 505.333 1159.45 498.284 1160.99 489.667C1175.48 408.939 1206.96 235.611 1212.64 205.333L1219.76 167.333L1216.61 164.333C1214.87 162.684 1213.27 161.343 1213.06 161.355C1212.84 161.367 1173.97 181.804 1126.67 206.773ZM1157.99 268.739C1153.27 290.699 1143.88 336.567 1137.13 370.667C1130.39 404.767 1124.75 432.84 1124.6 433.051C1124.46 433.263 1093.09 411.063 1054.89 383.717C1001.22 345.296 985.805 333.644 987.052 332.436C989.963 329.615 1030.55 305.537 1072.67 281.644C1095.4 268.748 1125.7 251.504 1140 243.325C1154.3 235.148 1166.13 228.536 1166.29 228.633C1166.46 228.731 1162.72 246.777 1157.99 268.739Z" fill="#E0CEA0" stroke="#E0CEA0" stroke-width="1.33333"/>
<path d="M98.6667 159.52C98.6667 162.841 162.505 504.283 163.269 505.047C164.017 505.795 163.263 506.312 206.715 475.251C254.836 440.851 311.559 401.015 370.667 360.107C395.233 343.104 415.468 328.775 415.633 328.264C415.799 327.752 398.999 318.377 378.3 307.432C357.601 296.487 305.867 268.816 263.333 245.94C170.675 196.107 100.335 158.667 99.3694 158.667C98.9827 158.667 98.6667 159.051 98.6667 159.52ZM187.447 252.467C229.812 273.432 284.431 304.135 317.667 325.669C325.551 330.777 332 335.429 332 336.007C332 336.584 310.851 352.064 285 370.407C259.151 388.749 228.729 410.392 217.4 418.5C206.069 426.609 196.583 433.027 196.317 432.761C194.297 430.741 173.804 335.131 164.612 284.84C157.225 244.424 156.456 238.667 158.447 238.667C159.059 238.667 172.108 244.877 187.447 252.467Z" fill="#E0CEA0" stroke="#E0CEA0" stroke-width="1.33333"/>
<path d="M637.061 34.3333C628.481 52.4826 609.679 92.2333 595.28 122.667C564.201 188.353 505.333 314.472 505.333 315.369C505.333 315.716 574.333 316 658.667 316C762.289 316 812 315.557 812 314.636C812 312.505 768.619 223.783 729.871 146.667C690.769 68.8493 655.987 2.43993 653.976 1.76926C653.255 1.52926 645.643 16.1826 637.061 34.3333ZM699.763 175.333C724.772 227.868 745.743 274.701 744.717 275.727C743.633 276.812 576.839 277.94 574.079 276.881C572.712 276.357 576.568 266.587 589.255 238.423C598.609 217.657 617.589 174.904 631.433 143.416L656.603 86.1666L670.249 114.083C677.755 129.437 691.036 157 699.763 175.333Z" fill="#E0CEA0" stroke="#E0CEA0" stroke-width="1.33333"/>
</svg>
