<svg width="138" height="139" viewBox="0 0 138 139" fill="none" xmlns="http://www.w3.org/2000/svg">
<path fill-rule="evenodd" clip-rule="evenodd" d="M109.194 30.7933C110.214 31.0483 111.291 31.293 111.849 31.9491C112.461 32.6664 112.743 33.812 112.559 34.8284C112.332 36.0896 111.624 36.9769 110.734 37.5276C109.996 37.9865 108.986 38.1293 107.566 37.9763C106.603 37.8743 105.716 37.5106 105.149 36.8477C104.503 36.0896 104.316 35.0596 104.312 34.3083C104.309 33.3225 104.945 32.2347 105.975 31.48C106.855 30.8375 107.943 30.4806 109.194 30.7933ZM110.951 23.7735C109.891 23.5083 108.936 23.301 107.967 23.2534C106.882 23.199 105.866 23.0222 104.911 23.2364C103.881 23.4641 102.902 23.8211 102.035 24.3514C101.175 24.8783 100.529 25.6874 99.8488 26.4998C99.2199 27.2477 98.5061 28.0024 98.0437 28.9882C97.629 29.8619 97.2619 30.8375 96.9865 31.8947C96.786 32.663 96.7112 33.4891 96.7112 34.3083C96.7112 35.3621 96.803 36.4975 97.1497 37.5684C97.476 38.5848 98.0573 39.5604 98.6692 40.4851C99.2607 41.3825 100.073 42.1304 100.909 42.8477C101.722 43.5479 102.524 44.3604 103.547 44.8057C104.509 45.2273 105.641 45.2987 106.773 45.421C107.82 45.5298 108.823 45.7236 109.758 45.6216C110.795 45.506 111.774 45.2069 112.665 44.8703C113.627 44.51 114.351 43.7893 115.133 43.2182C115.952 42.6233 116.965 42.2358 117.577 41.4709C118.202 40.6856 118.569 39.6964 118.964 38.7956C119.368 37.8777 119.341 36.8579 119.491 35.8856C119.582 35.3043 119.858 34.7536 119.858 34.1655C119.858 33.1287 119.769 32.1293 119.511 31.1944C119.239 30.212 118.712 29.3655 118.182 28.5259C117.652 27.6862 116.948 27.0335 116.18 26.3605C115.449 25.718 114.647 25.225 113.718 24.7627C112.858 24.3344 111.964 24.0285 110.951 23.7735ZM122.288 30.8137C122.52 31.8165 122.662 32.85 122.662 33.9446C122.662 34.8624 122.608 35.7769 122.435 36.6947C122.268 37.5922 121.819 38.4012 121.49 39.2851C121.126 40.2709 120.65 41.1378 120.069 42.008C119.484 42.8783 119.066 43.8675 118.304 44.5916C117.55 45.3123 116.533 45.6828 115.639 46.2301C114.745 46.774 113.892 47.3179 112.899 47.6579C111.91 47.9978 110.917 48.2188 109.874 48.3241C108.84 48.4295 107.814 48.5077 106.777 48.3615C105.747 48.2154 104.696 48.076 103.717 47.7156C102.738 47.3519 101.916 46.6686 101.035 46.1179C100.145 45.5604 99.186 45.0981 98.4517 44.374C97.7004 43.6329 97.2041 42.7049 96.6772 41.8176C96.1809 40.9848 95.7253 40.2165 95.3956 39.4108C95.0387 38.5406 94.5015 37.7451 94.3316 36.8613C94.1616 35.9774 94.5049 35.0358 94.5049 34.0941C94.5049 33.3667 94.3622 32.6154 94.4676 31.8131C94.5593 31.0993 94.3894 30.2834 94.5661 29.4913C94.7905 28.4851 95.3548 27.5944 95.7865 26.7344C96.2421 25.8335 96.8471 25.0415 97.5032 24.314C98.1661 23.5797 98.8494 22.8251 99.6891 22.2845C100.508 21.7576 101.396 21.2103 102.354 20.8806C103.265 20.5678 104.275 20.2993 105.291 20.1735C106.243 20.0545 107.283 19.9967 108.31 20.0545C109.265 20.1089 110.282 20.3027 111.285 20.5168C112.362 20.7446 113.317 21.3055 114.262 21.6897C115.275 22.101 116.186 22.6279 117.036 23.2058C117.934 23.8109 118.865 24.3684 119.562 25.1367C120.279 25.9253 120.728 26.9146 121.214 27.8562C121.697 28.7808 122.044 29.7633 122.288 30.8137ZM127 22.8693C126.477 22.05 126.045 21.1457 125.402 20.4081C124.767 19.6772 124.019 19.0211 123.274 18.382C122.543 17.7531 121.595 17.403 120.766 16.8693C119.956 16.3492 119.314 15.4959 118.416 15.0744C117.55 14.663 116.557 14.4727 115.615 14.1599C114.708 13.8574 113.698 13.9084 112.722 13.7044C111.74 13.4936 110.819 13.1163 109.86 13.0211C108.861 12.9191 107.882 12.8307 106.916 12.8443C105.913 12.8613 104.951 13.0755 103.993 13.2115C103.004 13.3509 102.086 13.6534 101.154 13.9186C100.192 14.1871 99.3117 14.5441 98.4245 14.9384C97.5168 15.3429 96.6976 15.8086 95.8749 16.3356C95.0421 16.8659 94.2534 17.386 93.5191 18.0421C92.7848 18.6948 91.9282 19.2149 91.3061 19.9831C90.6908 20.7378 90.0993 21.5367 89.603 22.4001C89.1203 23.2398 88.8687 24.2086 88.5118 25.1401C88.165 26.0409 87.6925 26.9248 87.4715 27.9038C87.2336 28.9712 87.0398 29.9944 86.9174 30.9769C86.7849 32.0477 86.7475 33.0879 86.7475 34.0941C86.7475 35.1344 86.8698 36.1508 87.0058 37.1468C87.1486 38.1599 87.4036 39.1423 87.6925 40.1247C87.9747 41.0868 88.2092 42.0896 88.6375 43.0414C89.0421 43.9423 89.8239 44.6732 90.3644 45.5808C90.8812 46.4409 91.2007 47.4267 91.8432 48.2018C92.4857 48.97 93.1078 49.7893 93.8591 50.4624C94.6035 51.1321 95.6641 51.3938 96.5004 51.9581C97.3333 52.519 98.1661 53.0187 99.067 53.4641C99.9678 53.9094 100.838 54.3683 101.79 54.6913C102.742 55.0142 103.7 55.2284 104.683 55.4187C105.672 55.6091 106.62 56.1564 107.623 56.2074C108.626 56.2584 109.619 55.7723 110.618 55.6703C111.618 55.5683 112.705 55.9355 113.674 55.6907C114.643 55.4459 115.456 54.6675 116.38 54.2901C117.305 53.9128 118.141 53.4029 119.008 52.9032C119.875 52.4034 120.711 51.9071 121.503 51.2986C122.299 50.6867 123.199 50.2142 123.903 49.5037C124.61 48.7933 125.443 48.161 126.045 47.3621C126.647 46.5632 127.231 45.7032 127.714 44.8261C128.197 43.9525 128.329 42.8919 128.679 41.9536C128.999 41.0902 129.584 40.3015 129.801 39.4244C130.019 38.5338 130.066 37.5888 130.179 36.6913C130.291 35.7837 130.348 34.8556 130.348 33.9446C130.348 32.9519 130.179 31.9695 130.053 31.0211C129.924 30.042 129.604 29.1106 129.346 28.1859C129.08 27.2375 128.985 26.2279 128.591 25.344C128.193 24.45 127.524 23.6885 127 22.8693ZM110.414 138.375C111.366 138.171 112.372 138.11 113.181 137.637C113.994 137.168 114.823 136.577 115.473 135.849C116.091 135.152 116.472 134.245 116.88 133.425C117.291 132.596 117.451 131.668 117.686 130.787C117.93 129.876 118.128 128.979 118.23 128.092C118.338 127.119 118.569 126.188 118.569 125.345C118.569 124.566 118.406 123.768 118.342 122.965C118.274 122.173 117.964 121.412 117.835 120.64C117.709 119.899 117.57 118.682 117.509 117.315C117.465 116.272 117.403 115.119 117.38 113.998C117.356 112.818 117.842 111.652 117.822 110.676C117.798 109.361 117.101 108.739 116.683 108.212C116.112 107.495 115.428 107.393 114.375 107.24C113.355 107.093 112.304 106.978 111.539 107.549C110.775 108.123 110.448 109.147 110.302 110.163C110.19 110.942 109.891 111.958 109.891 113.216C109.891 114.113 110.207 115.089 110.261 116.088C110.312 117.054 110.04 118.06 110.129 118.991C110.231 120.038 110.312 121.041 110.452 121.867C110.642 123.016 110.795 124.196 110.795 125.352C110.795 126.348 110.696 127.106 110.547 127.769C110.326 128.761 109.945 129.336 109.52 129.893C108.942 130.658 107.032 131.046 106.08 129.795C105.696 129.288 105.522 128.098 105.41 126.824C105.325 125.855 105.434 124.784 105.427 123.822C105.42 122.387 105.098 121.191 105.084 120.837C105.047 119.964 105.383 118.934 105.359 117.87C105.339 116.901 105.312 115.895 105.302 114.912C105.291 113.868 105.414 112.855 105.414 111.958C105.41 110.615 105.268 109.538 105.288 109.007C105.336 107.614 105.281 107.229 105.281 104.724C105.281 103.776 106.06 103.374 106.668 102.963C107.406 102.474 108.198 101.943 108.779 101.998C109.252 102.038 109.68 102.049 110.105 102.045C111.064 102.038 112.002 102.049 112.869 102.174C113.814 102.314 114.935 103.092 116.156 103.011C117.183 102.943 118.287 102.467 119.365 101.892C120.228 101.43 120.793 100.458 121.615 99.4821C122.377 98.5744 122.948 97.6056 123.349 96.4328C123.74 95.3008 124.352 94.179 124.352 92.9518C124.352 92.5642 124.032 92.1971 123.992 91.8164C123.9 91.0005 123.89 90.0147 123.482 89.0051C123.152 88.1926 122.669 87.3597 122.02 86.5337C121.476 85.8402 120.837 85.1127 120.004 84.4736C119.079 83.7665 118.019 83.4028 116.887 83.158C115.853 82.9371 114.732 83.1444 113.511 83.1478C112.451 83.1478 111.332 83.1784 110.125 83.2362C109.133 83.2872 107.997 83.3144 106.814 83.3416C105.924 83.3654 105.067 82.9099 104.567 82.4272C104.2 82.0702 104.139 81.3564 104.173 80.3399C104.197 79.4867 104.105 78.6776 104.496 78.4023C104.703 78.2561 105.234 78.3309 106.379 78.2255C107.416 78.1269 108.932 78.3581 110.54 78.6504C111.665 78.8544 112.848 79.2011 114.069 79.3133C115.258 79.4255 116.431 79.0855 117.604 78.8816C118.78 78.681 119.844 78.6776 120.694 78.2901C121.768 77.804 122.713 77.26 123.369 76.5598C124.134 75.7507 124.274 74.6187 124.634 73.6669C125.018 72.6504 125.222 71.6578 125.351 70.6584C125.464 69.7847 125.606 69.0402 125.606 68.3196C125.606 67.2181 125.436 66.2561 125.168 65.3281C124.872 64.298 124.794 63.1864 124.185 62.3842C123.577 61.5785 122.509 61.2318 121.602 60.6743C120.772 60.1677 120.031 59.2567 118.971 58.9745C118.036 58.7264 116.907 59.1207 115.717 59.1173C114.752 59.1139 113.701 59.2567 112.532 59.3111C111.604 59.3587 110.591 59.3519 109.541 59.3757C108.572 59.3961 107.562 59.1513 106.553 59.1037C105.56 59.0561 104.598 58.7502 103.622 58.5904C102.657 58.434 101.759 58.1995 100.845 57.9139C99.927 57.6284 98.9276 57.5774 98.0539 57.1524C97.2007 56.7377 96.5412 55.9796 95.7253 55.4289C94.9435 54.9054 94.1242 54.4329 93.3729 53.7802C92.6659 53.1683 91.986 52.5088 91.2993 51.7848C90.6602 51.1049 89.9531 50.4522 89.3242 49.6737C88.7905 49.0108 88.182 48.2426 87.7231 47.2805C87.3322 46.4715 87.2132 45.4822 86.8936 44.5134C86.6013 43.6363 86.1186 42.7763 85.8908 41.8074C85.6732 40.8896 85.68 39.9072 85.5305 38.9417C85.3843 38.0001 85.2109 37.055 85.1327 36.093C85.0545 35.131 84.7282 34.1723 84.7282 33.2171C84.7282 32.2551 85.2007 31.3406 85.2755 30.4364C85.3571 29.4709 85.2891 28.5327 85.4557 27.6488C85.6359 26.6868 85.5645 25.6874 85.8398 24.8443C86.1458 23.9027 86.7339 23.1038 87.1486 22.3321C87.6211 21.4517 88.2058 20.7106 88.8143 20.0851C89.4874 19.3848 89.7254 18.4568 89.7254 17.4846C89.7254 16.4817 89.2732 15.6727 88.5492 14.969C87.8115 14.2551 87.0194 14.0103 86.0608 14.0239C85.1055 14.0409 84.3611 14.3537 83.6472 15.0948C83.0081 15.7577 82.3928 16.4137 81.8523 17.2126C81.3356 17.9707 80.6455 18.6438 80.2206 19.5106C79.816 20.3333 79.4217 21.1967 79.1022 22.1112C78.7996 22.9746 78.7214 23.9333 78.5005 24.8749C78.2863 25.7656 77.9158 26.6528 77.7764 27.608C77.6438 28.5191 77.5248 29.4607 77.4602 30.4228C77.3956 31.344 77.3922 32.2925 77.3922 33.2511C77.3922 34.3185 77.671 35.3723 77.7458 36.4296C77.8206 37.5004 77.7798 38.5678 77.9294 39.6114C78.0823 40.6788 78.2149 41.7395 78.4359 42.7627C78.667 43.8233 78.8846 44.8771 79.1837 45.8732C79.5033 46.9202 79.7106 47.9944 80.0982 48.9462C80.5163 49.9729 80.965 50.9757 81.4614 51.8663C82.0053 52.8488 83.0897 53.4029 83.7152 54.1847C84.3305 54.9462 84.4562 56.0918 85.0851 56.7785C85.7412 57.4992 86.4993 58.1145 87.1758 58.7536C87.8829 59.4233 88.8619 59.753 89.5894 60.3343C90.3474 60.936 90.9729 61.6907 91.7582 62.2006C92.5673 62.7275 93.3117 63.37 94.1514 63.7983C95.0047 64.2334 95.8987 64.6278 96.786 64.9677C97.6732 65.3077 98.6284 65.5014 99.5565 65.7496C100.468 65.9909 101.443 65.9944 102.395 66.1473C103.575 66.3411 104.72 66.7218 105.862 66.7864C107.066 66.851 108.252 66.6232 109.374 66.6062C110.618 66.5824 111.801 66.681 112.886 66.63C114.772 66.5417 115.972 66.5791 116.557 66.7184C117.798 67.0516 118.77 67.5037 118.716 69.1116C118.665 70.553 117.907 70.9779 117.631 71.1717C117.298 71.4096 117.013 71.617 116.214 71.7564C115.143 71.9399 113.453 71.7666 111.835 71.4708C110.86 71.2941 109.809 71.2771 108.752 71.1581C107.715 71.0425 106.719 70.9133 105.699 71.0119C104.7 71.1037 103.666 71.1003 102.67 71.3722C101.685 71.6408 100.712 71.9603 99.8692 72.562C99.0806 73.1229 98.1253 73.7144 97.578 74.6901C97.1327 75.4855 96.8607 76.5462 96.6432 77.6918C96.4698 78.5858 96.5412 79.6362 96.5412 80.7852C96.5412 81.7745 96.5412 82.6379 96.6942 83.3756C96.8913 84.3138 97.2449 85.0991 97.6698 85.7892C98.1083 86.4997 98.8324 86.979 99.4919 87.6215C100.155 88.2606 100.702 89.1104 101.528 89.5456C102.337 89.9705 103.357 89.9229 104.271 90.1303C105.162 90.3308 106.056 90.9189 106.998 90.8951C108.3 90.8645 109.53 90.7999 110.513 90.7524C111.417 90.7082 112.226 90.0317 112.947 90.0215C114.082 90.0079 115.007 90.1167 115.459 90.2221C116.295 90.4158 116.992 91.2861 116.996 92.6152C116.999 93.7031 116.574 94.6243 115.969 94.8487C115.796 94.9133 115.323 95.056 113.742 94.9031C111.754 94.7093 111.587 94.7875 109.439 94.6073C108.626 94.5359 107.542 94.7025 106.352 94.7637C105.383 94.8147 104.299 94.6957 103.275 95.056C102.354 95.3824 101.504 96.0011 100.682 96.7353C99.9814 97.3642 99.1961 98.2991 98.6522 99.686C98.2783 100.648 98.1457 101.814 98.1151 103.232C98.0913 104.248 98.0369 105.132 98.0165 105.917C97.986 106.964 97.7684 107.828 97.7446 108.596C97.6664 110.836 97.8296 111.581 97.8296 113.083C97.8296 113.872 97.9758 114.732 98.003 115.762C98.0233 116.551 97.6528 117.448 97.6902 118.461C97.7208 119.267 97.5746 120.164 97.6154 121.157C97.6562 122.061 98.0641 122.921 98.0879 123.761C98.1151 124.713 97.9724 125.688 98.0267 126.654C98.0777 127.623 98.0301 128.615 98.1593 129.553C98.2953 130.532 98.4177 131.542 98.693 132.436C98.982 133.381 99.5089 134.275 100.019 135.067C100.536 135.866 101.44 136.332 102.252 136.906C102.98 137.42 103.748 137.95 104.764 138.239C105.604 138.477 106.542 138.664 107.606 138.722C108.602 138.773 109.524 138.565 110.414 138.375ZM67.4625 51.6658C68.2886 51.37 69.0501 50.8227 69.8523 50.3162C70.607 49.8437 71.3413 49.3168 72.0076 48.6539C72.6399 48.025 73.3741 47.4199 73.8738 46.621C74.3396 45.8732 74.6319 44.9757 74.9345 44.0749C75.1826 43.344 75.1418 42.4771 75.2472 41.4777C75.3288 40.6992 75.3084 39.8528 75.3084 38.8669C75.3084 38.34 75.2438 37.2862 75.1962 36.0862C75.1588 35.1752 75.6177 34.1655 75.5804 33.2749C75.5158 31.8233 74.9481 30.6505 74.9481 30.4908C74.9481 29.5389 75.0059 28.5123 75.0432 27.4517C75.0806 26.4692 75.577 25.48 75.6755 24.4534C75.7707 23.4539 75.6075 22.4069 75.7809 21.4109C75.9577 20.4047 76.42 19.4664 76.7022 18.518C76.9945 17.522 77.0863 16.4613 77.5248 15.5843C77.9871 14.6494 78.82 13.9934 79.4727 13.2557C79.6291 13.0823 80.6897 12.0591 81.9611 10.9917C82.8551 10.237 83.79 9.46532 84.6738 9.03019C85.1701 8.78203 86.3293 8.73104 87.2676 9.42113C88.0664 10.0092 88.6443 10.4919 89.1984 10.8897C89.8477 11.3554 90.6534 11.4608 91.3503 12.0455C92.6183 13.0415 93.6007 13.446 94.6613 13.1571C94.7021 13.1469 96.5412 12.5044 96.8234 12.3446C97.5882 11.9061 98.3327 11.182 99.2811 10.8625C100.134 10.5735 101.161 10.6823 102.126 10.4919C103.024 10.3152 103.959 10.169 104.921 10.0806C105.845 9.99223 106.787 10.0772 107.746 10.0738C108.681 10.0704 109.626 9.95144 110.574 10.0296C111.512 10.1044 112.478 10.0534 113.409 10.2098C114.344 10.3696 115.17 10.9951 116.074 11.2364C116.996 11.4846 118.022 11.369 118.886 11.7089C119.722 12.0353 120.643 12.4228 121.544 12.9293C122.35 13.3781 123.264 13.8234 124.063 14.4421C124.804 15.0132 125.11 16.1146 125.8 16.8455C126.443 17.5254 127.207 18.1101 127.768 18.9429C128.292 19.7146 129.148 20.3639 129.577 21.2783C129.968 22.118 130.304 23.0732 130.597 24.0454C130.892 25.0313 131.222 26.0035 132.069 26.4556C132.908 26.9078 133.938 26.7616 134.924 26.4658C135.72 26.2245 136.45 25.9219 136.916 25.293C137.378 24.6675 137.63 23.8789 137.63 23.0528C137.63 22.6857 137.637 22.3049 137.528 21.9548C137.236 20.9792 136.828 20.0511 136.44 19.1367C136.046 18.2018 135.356 17.437 134.866 16.5701C134.37 15.6863 133.863 14.8534 133.272 14.0477C132.677 13.2353 132.075 12.4636 131.389 11.7293C130.702 10.9985 130.094 10.2064 129.322 9.5537C128.557 8.91121 127.908 8.08855 127.061 7.52765C126.232 6.97694 125.127 6.88176 124.223 6.40924C123.342 5.95371 122.56 5.27723 121.612 4.89649C120.708 4.53615 119.776 4.254 118.848 3.96505C117.92 3.6761 117.013 3.29536 116.064 3.0812C115.116 2.86364 114.103 3.03361 113.141 2.89423C112.179 2.75146 111.251 2.34013 110.282 2.27554C109.309 2.21095 108.33 2.06477 107.362 2.08177C106.386 2.09877 105.448 2.59848 104.482 2.70046C103.513 2.80245 102.572 2.92822 101.62 3.11519C100.665 3.30556 99.7197 3.44494 98.7882 3.72369C97.8568 4.00244 96.9831 4.35598 96.0857 4.72652C94.7361 5.4438 93.6551 3.87326 93.084 3.49933C92.4313 3.0778 91.3673 2.88403 90.4256 2.35712C89.6132 1.9016 88.9061 0.973555 87.9645 0.762791C87.0126 0.548627 86.037 0.970156 85.1531 1.03474C84.2081 1.10613 83.382 1.38829 82.5254 1.69763C81.6449 2.01038 80.8325 2.35712 80.054 2.83644C79.2449 3.32936 78.3645 3.6829 77.6778 4.254C76.9163 4.88629 76.0801 5.38261 75.4852 5.98771C74.6863 6.79337 74.02 7.50725 73.5543 7.98997C72.9016 8.72424 72.5583 9.72367 72.0382 10.5531C71.518 11.3826 70.7668 12.1101 70.3656 13.0109C69.9679 13.9016 69.7333 14.8908 69.4376 15.8256C69.1418 16.7605 68.8869 17.7259 68.6795 18.6812C68.4722 19.6466 68.4042 20.6392 68.2682 21.6013C68.1288 22.5871 68.1492 23.5763 68.071 24.5384C67.9894 25.5378 67.6835 26.51 67.6495 27.4585C67.6155 28.4817 67.8331 29.4709 67.8331 30.4024C67.8331 30.8409 67.7175 33.5944 67.7889 34.7332C67.8297 35.4267 68.0438 36.8001 68.088 38.2142C68.1254 39.506 68.3498 40.893 68.0438 41.7496C67.7277 42.6267 66.8506 43.0312 66.2557 43.5004C65.4195 44.1564 64.6342 44.595 64.1277 44.6392C63.2132 44.7174 62.343 45.0131 61.5849 44.9213C60.6603 44.8057 59.8716 44.34 59.1883 44.0103C58.3691 43.6125 57.7504 43.0346 57.2948 42.3887C56.8019 41.6885 56.241 40.8352 55.8841 39.812C55.5781 38.9417 55.2144 37.9865 55.0206 36.9837C54.8371 36.042 54.6637 35.0392 54.5855 34.0568C54.5073 33.0709 54.4631 32.0477 54.5005 31.0925C54.5549 29.5797 54.7419 27.8766 54.8065 26.8398C54.8643 25.8845 54.7521 24.9973 54.1334 24.3344C53.5249 23.6817 52.6614 23.1922 51.7198 23.0902C50.7272 22.978 49.8263 23.4268 49.0445 24.0488C48.266 24.6743 47.6235 25.4562 47.5147 26.4454C47.4263 27.2273 47.3481 28.0058 47.3039 28.7774C47.2564 29.5661 47.2598 30.3514 47.2598 31.1196C47.2598 32.1327 47.4263 33.1253 47.5045 34.1077C47.5827 35.114 47.5351 36.1304 47.6983 37.106C47.8649 38.0953 47.9498 39.1151 48.2014 40.0771C48.4529 41.0426 48.6841 42.042 49.0241 42.987C49.3606 43.9185 49.8671 44.8159 50.2886 45.7304C50.6864 46.5836 51.492 47.1751 52.1005 47.8754C52.7056 48.5689 53.2903 49.2794 54.0756 49.8131C54.8235 50.323 55.6291 50.7921 56.5198 51.1491C57.3594 51.4856 58.2841 51.6114 59.2291 51.8018C60.113 51.9785 61.0036 52.3966 61.9657 52.4408C62.8665 52.4816 63.8319 52.5292 64.7872 52.4476C65.637 52.3729 66.5481 51.9921 67.4625 51.6658ZM24.8032 44.4046C25.619 44.1836 26.4349 43.7689 26.9244 43.1332C27.4105 42.4975 27.5805 41.6001 27.5805 40.757C27.5805 39.4346 26.4791 38.1497 25.6122 37.6499C24.7488 37.1502 23.7425 36.6131 22.7805 36.8749C22.2434 37.0176 21.1726 37.4596 19.8672 37.4358C18.895 37.4154 17.8309 37.3984 16.8655 37.3474C15.4989 37.276 14.3329 37.327 13.8808 37.327C12.5584 37.327 11.4706 36.5757 10.529 36.2426C9.2372 35.7803 8.41453 35.2839 8.41453 34.0567C8.41453 32.714 9.59753 31.9423 11.5998 32.0001C13.1839 32.0477 14.5335 32.0919 15.8491 32.1021C17.0015 32.1123 18.1131 32.544 19.2825 32.578C20.3635 32.612 21.5057 32.3638 22.7431 32.4556C23.372 32.5032 24.1947 32.7616 25.1567 32.8432C26.2241 32.9315 27.2235 32.9927 28.1584 33.0675C29.236 33.1525 30.2286 33.2885 31.1465 33.3531C32.2513 33.4279 33.2507 33.4211 34.1448 33.4653C35.3006 33.523 36.2898 33.2715 37.1431 33.2749C38.4008 33.2783 39.3255 33.2511 40.0904 33.1253C41.406 32.9145 42.0076 32.6018 42.6399 31.9831C43.6088 31.0347 44.2649 30.1066 44.5912 28.995C44.9447 27.7848 45.2847 26.5542 45.2847 25.3712C45.2847 25.0177 44.7952 24.6064 44.785 23.8381C44.785 23.2568 45.3969 22.4919 45.9918 21.7474C46.4269 21.2001 46.9878 20.6256 47.6983 20.1735C48.6841 19.5514 49.8229 19.3542 50.9311 19.2829C52.0971 19.2081 53.3549 19.0755 54.3543 19.4936C55.4796 19.9695 56.2512 20.986 56.7373 21.931C57.1385 22.7095 57.2711 23.5627 57.4376 24.4806C57.5906 25.31 58.1073 26.1565 58.1481 27.1117C58.1821 27.9548 58.1719 28.859 58.1719 29.8075C58.1753 30.7695 58.0869 31.7349 58.1107 32.7208C58.1379 33.676 58.2263 34.6313 58.3215 35.6171C58.4133 36.5621 58.1243 37.5854 58.3215 38.5644C58.5186 39.5434 59.4365 40.1417 60.2659 40.6924C61.0988 41.2465 62.02 41.9502 62.9991 41.753C63.8829 41.5763 64.4506 40.6006 64.9809 39.7372C65.4161 39.0233 65.569 38.1973 65.586 37.1468C65.6064 35.9774 65.5452 34.7536 65.4195 33.489C65.3005 32.2551 65.4161 30.9871 65.4127 29.7871C65.4127 28.7808 65.6268 27.7576 65.5928 26.7412C65.5588 25.7282 65.5147 24.6879 65.3855 23.6817C65.2529 22.6789 64.743 21.7338 64.454 20.7548C64.1719 19.7996 64.0903 18.7152 63.5974 17.8007C63.1283 16.9339 62.3498 16.1418 61.5713 15.4041C60.854 14.7242 59.994 14.0885 59.0761 13.5548C58.2127 13.0551 57.2065 12.7152 56.2138 12.3786C55.2586 12.0557 54.2286 11.9333 53.1985 11.7871C52.1957 11.6443 51.1657 11.3384 50.1323 11.3928C49.1158 11.4472 48.1232 11.8313 47.1204 12.0965C46.1447 12.3582 45.1045 12.5486 44.1799 13.0347C43.2722 13.514 42.3374 14.1395 41.4535 14.8534C40.6411 15.5095 40.1006 16.4681 39.4717 17.42C38.9142 18.263 38.0677 19.0755 37.7686 20.2211C37.5204 21.1763 37.5646 22.3049 37.5646 23.5117C37.6394 25.4902 37.7414 26.3537 35.219 26.3197C34.5663 26.3095 33.4921 25.9967 32.2377 25.8913C31.3097 25.8097 30.2898 25.6704 29.2598 25.5752C28.24 25.4834 27.2032 25.531 26.2683 25.4596C25.0547 25.3644 24.0009 25.4086 23.2904 25.412C21.9408 25.4188 20.7171 25.4018 19.5612 25.3406C18.2967 25.276 17.1069 25.2284 15.8627 25.2148C14.6695 25.2046 13.3131 25.1333 11.8038 25.0857C11.0831 25.0653 10.1788 24.7797 9.1862 24.8647C8.36694 24.9361 7.47288 25.0551 6.59924 25.3474C5.81058 25.616 5.11709 26.1667 4.37942 26.7242C3.68254 27.2511 2.91426 27.7678 2.39075 28.5293C1.89104 29.2568 1.45932 30.0862 1.18396 30.9633C0.918807 31.8029 0.796416 32.7242 0.796416 33.6488C0.796416 34.5429 0.765822 35.4471 0.928999 36.2698C1.10918 37.157 1.35733 38.0511 1.72107 38.7955C2.12219 39.6114 2.7137 40.3491 3.32219 40.9202C4.01907 41.5763 4.81114 42.1882 5.64059 42.6743C6.45306 43.1536 7.3437 43.6193 8.27176 43.9287C9.15561 44.2244 10.189 44.0545 11.1681 44.1904C12.0859 44.3162 13.0242 44.4386 14.0134 44.4182C14.8224 44.4046 15.8049 44.6256 16.8451 44.7173C17.6678 44.7887 18.5822 44.4964 19.517 44.5338C20.3771 44.5644 21.2678 44.9315 22.1754 44.8567C23.0457 44.7887 23.9329 44.6392 24.8032 44.4046Z" fill="#7CD2FF"/>
</svg>
