<svg width="290" height="206" viewBox="0 0 290 206" fill="none" xmlns="http://www.w3.org/2000/svg">
<rect x="9" y="8" width="274" height="189" fill="#0C0A0A" fill-opacity="0.7"/>
<path fill-rule="evenodd" clip-rule="evenodd" d="M7.65144 197.541C7.37704 197.471 7.08708 197.403 6.93707 197.221C6.77242 197.021 6.6965 196.703 6.7459 196.421C6.80718 196.071 6.99744 195.825 7.23709 195.672C7.43558 195.544 7.70724 195.505 8.08958 195.547C8.34844 195.576 8.58718 195.677 8.73993 195.861C8.91372 196.071 8.96403 196.357 8.96495 196.566C8.96586 196.839 8.79481 197.141 8.51766 197.351C8.28076 197.529 7.98805 197.628 7.65144 197.541ZM7.17855 199.49C7.46393 199.564 7.72096 199.621 7.98165 199.635C8.27344 199.65 8.54693 199.699 8.80396 199.639C9.08111 199.576 9.34455 199.477 9.57779 199.33C9.80921 199.183 9.983 198.959 10.1659 198.733C10.3352 198.526 10.5272 198.316 10.6516 198.043C10.7632 197.8 10.862 197.529 10.9361 197.236C10.9901 197.022 11.0102 196.793 11.0102 196.566C11.0102 196.273 10.9855 195.958 10.8922 195.661C10.8044 195.378 10.648 195.107 10.4833 194.851C10.3242 194.602 10.1056 194.394 9.88056 194.195C9.66194 194 9.44608 193.775 9.17075 193.651C8.91189 193.534 8.6073 193.514 8.30271 193.481C8.02098 193.45 7.75115 193.397 7.49961 193.425C7.22062 193.457 6.95719 193.54 6.71754 193.633C6.45868 193.733 6.26385 193.933 6.05347 194.092C5.83303 194.257 5.56045 194.365 5.39581 194.577C5.2275 194.795 5.12872 195.07 5.02261 195.32C4.91376 195.575 4.92108 195.858 4.88083 196.128C4.85614 196.289 4.78205 196.442 4.78205 196.605C4.78205 196.893 4.80583 197.17 4.87535 197.43C4.94852 197.703 5.0903 197.938 5.23299 198.171C5.37568 198.404 5.56503 198.585 5.77175 198.772C5.96841 198.95 6.18427 199.087 6.43399 199.216C6.6654 199.334 6.90597 199.419 7.17855 199.49ZM4.12804 197.536C4.06584 197.257 4.02742 196.97 4.02742 196.667C4.02742 196.412 4.04206 196.158 4.08871 195.903C4.13353 195.654 4.25427 195.429 4.34299 195.184C4.44087 194.91 4.56892 194.67 4.72534 194.428C4.88266 194.186 4.99517 193.912 5.20006 193.711C5.40313 193.511 5.67662 193.408 5.91718 193.256C6.15775 193.105 6.38734 192.954 6.65443 192.86C6.9206 192.765 7.18769 192.704 7.46851 192.675C7.74657 192.645 8.02281 192.624 8.30179 192.664C8.57895 192.705 8.86159 192.743 9.12502 192.843C9.38845 192.944 9.60981 193.134 9.84671 193.287C10.0864 193.442 10.3443 193.57 10.5419 193.771C10.744 193.977 10.8776 194.235 11.0194 194.481C11.1529 194.712 11.2755 194.925 11.3642 195.149C11.4602 195.391 11.6048 195.611 11.6505 195.857C11.6962 196.102 11.6038 196.364 11.6038 196.625C11.6038 196.827 11.6423 197.036 11.6139 197.258C11.5892 197.456 11.6349 197.683 11.5874 197.903C11.527 198.182 11.3752 198.429 11.259 198.668C11.1364 198.918 10.9736 199.138 10.7971 199.34C10.6187 199.544 10.4349 199.753 10.2089 199.904C9.98849 200.05 9.74976 200.202 9.49181 200.293C9.24667 200.38 8.97501 200.455 8.70151 200.49C8.4454 200.523 8.1655 200.539 7.88927 200.523C7.63224 200.508 7.35874 200.454 7.08891 200.394C6.79895 200.331 6.54192 200.175 6.28763 200.069C6.01506 199.955 5.76992 199.808 5.54124 199.648C5.29976 199.48 5.04914 199.325 4.86163 199.112C4.66862 198.893 4.54789 198.618 4.41708 198.357C4.2872 198.1 4.1939 197.827 4.12804 197.536ZM2.86027 199.741C3.00114 199.969 3.1173 200.22 3.29018 200.424C3.46123 200.627 3.66246 200.81 3.86278 200.987C4.05944 201.162 4.31464 201.259 4.53782 201.407C4.75552 201.551 4.9284 201.788 5.16988 201.905C5.40312 202.019 5.67022 202.072 5.92359 202.159C6.16781 202.243 6.43947 202.229 6.70199 202.286C6.96634 202.344 7.21422 202.449 7.47216 202.475C7.74109 202.504 8.00452 202.528 8.26429 202.524C8.53413 202.52 8.79298 202.46 9.05093 202.422C9.3171 202.384 9.56407 202.3 9.8147 202.226C10.0736 202.152 10.3105 202.052 10.5492 201.943C10.7934 201.831 11.0139 201.701 11.2352 201.555C11.4593 201.408 11.6715 201.263 11.8691 201.081C12.0667 200.9 12.2972 200.756 12.4646 200.542C12.6301 200.333 12.7893 200.111 12.9228 199.871C13.0527 199.638 13.1204 199.369 13.2164 199.111C13.3097 198.861 13.4369 198.615 13.4963 198.344C13.5604 198.047 13.6125 197.763 13.6454 197.49C13.6811 197.193 13.6912 196.904 13.6912 196.625C13.6912 196.336 13.6582 196.054 13.6217 195.778C13.5832 195.496 13.5146 195.224 13.4369 194.951C13.361 194.684 13.2979 194.405 13.1826 194.141C13.0738 193.891 12.8634 193.688 12.7179 193.436C12.5789 193.197 12.4929 192.924 12.32 192.709C12.1472 192.495 11.9798 192.268 11.7776 192.081C11.5773 191.895 11.2919 191.822 11.0669 191.666C10.8428 191.51 10.6187 191.371 10.3763 191.248C10.1339 191.124 9.89976 190.997 9.64365 190.907C9.38754 190.817 9.12959 190.758 8.86525 190.705C8.59907 190.652 8.34387 190.5 8.07403 190.486C7.8042 190.472 7.53711 190.607 7.26819 190.635C6.99927 190.663 6.70657 190.562 6.44588 190.629C6.18519 190.697 5.96658 190.914 5.71778 191.018C5.46898 191.123 5.24397 191.265 5.01072 191.403C4.77747 191.542 4.55246 191.68 4.33933 191.849C4.1253 192.019 3.8829 192.15 3.69356 192.347C3.5033 192.544 3.2792 192.72 3.1173 192.942C2.9554 193.163 2.79807 193.402 2.66819 193.646C2.5383 193.888 2.50263 194.183 2.40841 194.443C2.32243 194.683 2.16511 194.902 2.10656 195.145C2.04802 195.393 2.03522 195.655 2.00503 195.904C1.97485 196.156 1.9593 196.414 1.9593 196.667C1.9593 196.942 2.00503 197.215 2.03888 197.478C2.07364 197.75 2.15962 198.009 2.22913 198.265C2.30048 198.529 2.32609 198.809 2.4322 199.054C2.53922 199.302 2.71941 199.514 2.86027 199.741ZM7.32307 167.675C7.06696 167.732 6.79621 167.749 6.57851 167.88C6.3599 168.01 6.13671 168.174 5.962 168.376C5.79553 168.57 5.69308 168.822 5.58332 169.049C5.47264 169.279 5.42965 169.537 5.36654 169.781C5.30068 170.034 5.24763 170.284 5.22019 170.53C5.19092 170.8 5.12872 171.058 5.12872 171.292C5.12872 171.509 5.17262 171.73 5.19 171.953C5.20829 172.173 5.29153 172.384 5.32629 172.599C5.36013 172.804 5.39764 173.142 5.4141 173.521C5.42599 173.811 5.44246 174.131 5.44886 174.443C5.45526 174.77 5.32446 175.094 5.32995 175.365C5.33635 175.73 5.52386 175.903 5.63637 176.049C5.79004 176.248 5.97389 176.276 6.25745 176.319C6.53186 176.359 6.8145 176.391 7.02031 176.233C7.22611 176.073 7.31392 175.789 7.35325 175.507C7.38344 175.291 7.46393 175.009 7.46393 174.66C7.46393 174.41 7.37887 174.14 7.36423 173.862C7.35051 173.594 7.42369 173.315 7.3999 173.056C7.37246 172.766 7.35051 172.487 7.31301 172.258C7.26179 171.939 7.22062 171.611 7.22062 171.291C7.22062 171.014 7.24715 170.804 7.2874 170.62C7.34685 170.344 7.4493 170.184 7.56363 170.03C7.71913 169.817 8.23319 169.71 8.48931 170.057C8.59267 170.198 8.63932 170.528 8.6695 170.882C8.69237 171.151 8.6631 171.448 8.66493 171.715C8.66676 172.113 8.75365 172.446 8.75731 172.544C8.76737 172.786 8.67682 173.072 8.68322 173.368C8.68871 173.637 8.69603 173.916 8.69877 174.189C8.70152 174.478 8.66859 174.76 8.66859 175.009C8.6695 175.382 8.70792 175.681 8.70243 175.828C8.68962 176.215 8.70426 176.322 8.70426 177.017C8.70426 177.28 8.49479 177.392 8.33106 177.506C8.13257 177.642 7.91945 177.789 7.76304 177.774C7.6359 177.763 7.52064 177.76 7.40631 177.761C7.14836 177.763 6.89591 177.76 6.66266 177.725C6.40837 177.686 6.10653 177.47 5.77815 177.493C5.50191 177.512 5.20464 177.644 4.91468 177.803C4.68235 177.932 4.53051 178.201 4.30915 178.472C4.10426 178.724 3.95059 178.993 3.84266 179.319C3.73747 179.633 3.57282 179.945 3.57282 180.285C3.57282 180.393 3.6588 180.495 3.66978 180.6C3.69448 180.827 3.69722 181.101 3.80698 181.381C3.89571 181.606 4.02559 181.838 4.2003 182.067C4.34665 182.26 4.51862 182.461 4.74272 182.639C4.99151 182.835 5.2769 182.936 5.58149 183.004C5.85956 183.065 6.16141 183.008 6.48978 183.007C6.77517 183.007 7.0761 182.998 7.40082 182.982C7.66791 182.968 7.97342 182.961 8.29173 182.953C8.53138 182.947 8.76188 183.073 8.89634 183.207C8.99513 183.306 9.0116 183.504 9.00245 183.786C8.99605 184.023 9.02074 184.248 8.91555 184.324C8.85976 184.365 8.71706 184.344 8.40881 184.373C8.12983 184.401 7.72188 184.337 7.28923 184.256C6.98646 184.199 6.66815 184.103 6.33977 184.071C6.01963 184.04 5.70406 184.135 5.38849 184.191C5.07201 184.247 4.78571 184.248 4.55703 184.356C4.26799 184.491 4.0137 184.642 3.83717 184.836C3.63136 185.061 3.59386 185.375 3.4969 185.639C3.39354 185.921 3.33866 186.197 3.3039 186.474C3.27372 186.717 3.2353 186.923 3.2353 187.124C3.2353 187.429 3.28103 187.696 3.35329 187.954C3.43287 188.24 3.45391 188.549 3.61764 188.771C3.78137 188.995 4.06859 189.091 4.31281 189.246C4.53599 189.387 4.7354 189.64 5.02078 189.718C5.27232 189.787 5.576 189.677 5.89615 189.678C6.15592 189.679 6.43856 189.64 6.75322 189.624C7.00293 189.611 7.27551 189.613 7.55815 189.606C7.81883 189.601 8.0905 189.669 8.36216 189.682C8.62925 189.695 8.88811 189.78 9.15063 189.824C9.4104 189.868 9.65188 189.933 9.89794 190.012C10.1449 190.092 10.4138 190.106 10.6489 190.224C10.8785 190.339 11.0559 190.549 11.2755 190.702C11.4858 190.847 11.7063 190.979 11.9084 191.16C12.0987 191.33 12.2816 191.513 12.4664 191.714C12.6384 191.903 12.8286 192.084 12.9978 192.3C13.1414 192.484 13.3052 192.697 13.4287 192.964C13.5338 193.189 13.5659 193.464 13.6518 193.732C13.7305 193.976 13.8604 194.215 13.9217 194.484C13.9802 194.738 13.9784 195.011 14.0186 195.279C14.058 195.541 14.1046 195.803 14.1257 196.07C14.1467 196.337 14.2345 196.603 14.2345 196.869C14.2345 197.136 14.1074 197.389 14.0872 197.64C14.0653 197.908 14.0836 198.169 14.0388 198.414C13.9903 198.681 14.0095 198.959 13.9354 199.193C13.8531 199.454 13.6948 199.676 13.5832 199.89C13.4561 200.135 13.2988 200.34 13.135 200.514C12.9539 200.709 12.8899 200.966 12.8899 201.236C12.8899 201.514 13.0116 201.739 13.2064 201.934C13.4049 202.133 13.618 202.201 13.8759 202.197C14.133 202.192 14.3333 202.105 14.5254 201.9C14.6973 201.716 14.8629 201.533 15.0083 201.312C15.1474 201.101 15.3331 200.914 15.4474 200.674C15.5562 200.445 15.6623 200.206 15.7483 199.952C15.8297 199.712 15.8508 199.446 15.9102 199.184C15.9679 198.937 16.0676 198.691 16.1051 198.426C16.1407 198.173 16.1727 197.911 16.1901 197.644C16.2075 197.388 16.2084 197.125 16.2084 196.859C16.2084 196.563 16.1334 196.27 16.1133 195.977C16.0932 195.679 16.1041 195.383 16.0639 195.093C16.0227 194.797 15.9871 194.503 15.9276 194.219C15.8654 193.924 15.8069 193.631 15.7264 193.355C15.6404 193.064 15.5846 192.766 15.4803 192.502C15.3678 192.217 15.2471 191.938 15.1135 191.691C14.9672 191.418 14.6754 191.265 14.5071 191.048C14.3415 190.836 14.3077 190.518 14.1385 190.327C13.9619 190.127 13.7579 189.957 13.5759 189.779C13.3857 189.593 13.1222 189.502 12.9265 189.34C12.7225 189.173 12.5542 188.964 12.3429 188.822C12.1252 188.676 11.9249 188.498 11.699 188.379C11.4694 188.258 11.2288 188.148 10.9901 188.054C10.7513 187.96 10.4943 187.906 10.2446 187.837C9.99947 187.77 9.73695 187.769 9.48083 187.727C9.16344 187.673 8.85518 187.567 8.54785 187.549C8.22404 187.531 7.90482 187.594 7.60297 187.599C7.26819 187.606 6.94987 187.578 6.65809 187.593C6.15043 187.617 5.82754 187.607 5.67022 187.568C5.33635 187.476 5.07475 187.35 5.08938 186.904C5.1031 186.503 5.30708 186.386 5.38117 186.332C5.47081 186.266 5.54765 186.208 5.7626 186.169C6.05073 186.118 6.50533 186.167 6.94073 186.249C7.20324 186.298 7.48589 186.302 7.77036 186.336C8.04934 186.368 8.31734 186.403 8.59175 186.376C8.86067 186.351 9.13874 186.352 9.40674 186.276C9.67201 186.201 9.93361 186.113 10.1605 185.946C10.3727 185.79 10.6297 185.626 10.777 185.355C10.8968 185.134 10.97 184.84 11.0285 184.522C11.0751 184.273 11.0559 183.982 11.0559 183.663C11.0559 183.388 11.0559 183.149 11.0148 182.944C10.9617 182.683 10.8666 182.465 10.7523 182.274C10.6343 182.076 10.4394 181.943 10.262 181.765C10.0836 181.588 9.93635 181.352 9.71408 181.231C9.49638 181.113 9.22198 181.126 8.97592 181.069C8.73627 181.013 8.49571 180.85 8.24234 180.856C7.89201 180.865 7.56089 180.883 7.29654 180.896C7.05323 180.908 6.83554 181.096 6.64162 181.099C6.33611 181.103 6.08732 181.072 5.96566 181.043C5.74065 180.989 5.55313 180.748 5.55222 180.379C5.55131 180.077 5.66564 179.821 5.82846 179.759C5.87511 179.741 6.00225 179.701 6.42758 179.744C6.96268 179.797 7.0075 179.776 7.58559 179.826C7.8042 179.845 8.09599 179.799 8.41613 179.782C8.67682 179.768 8.96861 179.801 9.24393 179.701C9.49181 179.61 9.72049 179.439 9.94184 179.235C10.1303 179.06 10.3416 178.801 10.4879 178.416C10.5885 178.149 10.6242 177.825 10.6324 177.431C10.6388 177.149 10.6535 176.904 10.659 176.686C10.6672 176.395 10.7257 176.155 10.7321 175.942C10.7532 175.32 10.7093 175.114 10.7093 174.696C10.7093 174.478 10.6699 174.239 10.6626 173.953C10.6571 173.734 10.7568 173.485 10.7468 173.203C10.7385 172.98 10.7779 172.731 10.7669 172.455C10.7559 172.204 10.6462 171.965 10.6398 171.732C10.6324 171.468 10.6709 171.197 10.6562 170.929C10.6425 170.66 10.6553 170.385 10.6205 170.124C10.584 169.852 10.551 169.572 10.4769 169.324C10.3992 169.061 10.2574 168.813 10.1202 168.593C9.98117 168.372 9.73786 168.242 9.51925 168.083C9.32351 167.94 9.11679 167.793 8.84329 167.713C8.61736 167.647 8.36491 167.595 8.07861 167.579C7.8106 167.565 7.56272 167.622 7.32307 167.675ZM18.8802 191.747C18.658 191.829 18.4531 191.981 18.2372 192.122C18.0341 192.253 17.8366 192.399 17.6573 192.583C17.4872 192.758 17.2896 192.926 17.1551 193.147C17.0298 193.355 16.9511 193.604 16.8697 193.854C16.803 194.057 16.8139 194.298 16.7856 194.575C16.7636 194.791 16.7691 195.026 16.7691 195.3C16.7691 195.446 16.7865 195.739 16.7993 196.072C16.8094 196.325 16.6859 196.605 16.6959 196.852C16.7133 197.255 16.8661 197.581 16.8661 197.625C16.8661 197.89 16.8505 198.175 16.8405 198.469C16.8304 198.742 16.6969 199.016 16.6703 199.301C16.6447 199.579 16.6886 199.87 16.642 200.146C16.5944 200.425 16.47 200.686 16.3941 200.949C16.3154 201.226 16.2907 201.52 16.1727 201.764C16.0483 202.023 15.8242 202.205 15.6486 202.41C15.6065 202.458 15.3212 202.742 14.9791 203.039C14.7385 203.248 14.487 203.462 14.2491 203.583C14.1156 203.652 13.8037 203.666 13.5512 203.475C13.3363 203.311 13.1808 203.177 13.0317 203.067C12.857 202.938 12.6402 202.908 12.4527 202.746C12.1115 202.47 11.8472 202.357 11.5618 202.437C11.5508 202.44 11.0559 202.619 10.98 202.663C10.7742 202.785 10.5739 202.986 10.3187 203.074C10.0891 203.155 9.81287 203.125 9.5531 203.177C9.31162 203.226 9.06007 203.267 8.80122 203.292C8.55242 203.316 8.29905 203.292 8.04111 203.293C7.78956 203.294 7.53528 203.327 7.28008 203.306C7.02762 203.285 6.76785 203.299 6.51722 203.256C6.26568 203.211 6.04341 203.038 5.8001 202.971C5.55222 202.902 5.27598 202.934 5.04365 202.839C4.81863 202.749 4.57075 202.641 4.32836 202.501C4.11158 202.376 3.86552 202.252 3.65057 202.081C3.45117 201.922 3.36884 201.616 3.18316 201.414C3.01028 201.225 2.80448 201.062 2.65355 200.831C2.51269 200.617 2.28219 200.437 2.16693 200.183C2.06174 199.95 1.97119 199.685 1.89253 199.415C1.81295 199.141 1.72422 198.871 1.49646 198.746C1.27053 198.62 0.993381 198.661 0.72812 198.743C0.514081 198.81 0.317422 198.894 0.192108 199.068C0.06771 199.242 2.25835e-05 199.461 2.25835e-05 199.69C2.25835e-05 199.792 -0.00180676 199.898 0.0274635 199.995C0.106127 200.266 0.215891 200.524 0.320166 200.777C0.42627 201.037 0.611953 201.249 0.74367 201.49C0.877215 201.735 1.0135 201.967 1.17266 202.19C1.33273 202.416 1.49463 202.63 1.6794 202.834C1.86417 203.037 2.0279 203.257 2.23554 203.438C2.44134 203.616 2.61605 203.845 2.84381 204C3.06699 204.153 3.36427 204.18 3.60758 204.311C3.84448 204.437 4.05486 204.625 4.31006 204.731C4.55337 204.831 4.804 204.909 5.05371 204.989C5.30342 205.07 5.54765 205.175 5.80285 205.235C6.05805 205.295 6.33063 205.248 6.58948 205.287C6.84834 205.326 7.09806 205.44 7.35874 205.458C7.62035 205.476 7.88378 205.517 8.14447 205.512C8.40698 205.507 8.65944 205.369 8.91921 205.34C9.1799 205.312 9.43327 205.277 9.68939 205.225C9.94641 205.172 10.2007 205.134 10.4513 205.056C10.702 204.979 10.937 204.881 11.1785 204.778C11.5416 204.579 11.8325 205.015 11.9862 205.119C12.1618 205.236 12.4481 205.289 12.7015 205.436C12.9201 205.562 13.1103 205.82 13.3637 205.878C13.6198 205.938 13.8823 205.821 14.1202 205.803C14.3745 205.783 14.5967 205.705 14.8272 205.619C15.0641 205.532 15.2827 205.436 15.4922 205.303C15.7099 205.166 15.9468 205.068 16.1316 204.909C16.3365 204.734 16.5615 204.596 16.7216 204.428C16.9365 204.204 17.1158 204.006 17.2411 203.872C17.4167 203.668 17.5091 203.391 17.6491 203.16C17.789 202.93 17.9912 202.728 18.0991 202.478C18.2061 202.231 18.2692 201.956 18.3488 201.697C18.4284 201.437 18.497 201.169 18.5528 200.904C18.6086 200.636 18.6269 200.36 18.6635 200.093C18.701 199.82 18.6955 199.545 18.7165 199.278C18.7385 199 18.8208 198.73 18.8299 198.467C18.8391 198.183 18.7805 197.908 18.7805 197.65C18.7805 197.528 18.8116 196.764 18.7924 196.448C18.7815 196.255 18.7238 195.874 18.7119 195.481C18.7019 195.123 18.6415 194.738 18.7238 194.5C18.8089 194.256 19.0449 194.144 19.205 194.014C19.43 193.832 19.6413 193.71 19.7776 193.698C20.0236 193.676 20.2578 193.594 20.4617 193.619C20.7105 193.651 20.9228 193.781 21.1066 193.872C21.327 193.983 21.4935 194.143 21.6161 194.322C21.7487 194.517 21.8996 194.754 21.9957 195.038C22.078 195.279 22.1759 195.544 22.228 195.823C22.2774 196.084 22.3241 196.363 22.3451 196.635C22.3661 196.909 22.378 197.193 22.368 197.458C22.3533 197.878 22.303 198.351 22.2856 198.639C22.2701 198.904 22.3003 199.15 22.4668 199.334C22.6305 199.516 22.8628 199.652 23.1162 199.68C23.3833 199.711 23.6257 199.586 23.8361 199.414C24.0455 199.24 24.2184 199.023 24.2477 198.748C24.2714 198.531 24.2925 198.315 24.3044 198.101C24.3172 197.882 24.3163 197.664 24.3163 197.451C24.3163 197.17 24.2714 196.894 24.2504 196.621C24.2294 196.342 24.2422 196.06 24.1983 195.789C24.1535 195.514 24.1306 195.231 24.0629 194.964C23.9952 194.696 23.933 194.419 23.8415 194.156C23.751 193.898 23.6147 193.648 23.5013 193.395C23.3943 193.158 23.1775 192.994 23.0137 192.799C22.8509 192.607 22.6936 192.409 22.4823 192.261C22.2811 192.12 22.0643 191.989 21.8246 191.89C21.5987 191.797 21.3499 191.762 21.0956 191.709C20.8578 191.66 20.6182 191.544 20.3593 191.532C20.1169 191.52 19.8571 191.507 19.6001 191.53C19.3714 191.551 19.1263 191.656 18.8802 191.747ZM30.3587 193.763C30.1392 193.824 29.9197 193.939 29.788 194.116C29.6572 194.292 29.6114 194.541 29.6114 194.775C29.6114 195.142 29.9078 195.499 30.141 195.638C30.3734 195.777 30.6441 195.926 30.903 195.853C31.0475 195.813 31.3356 195.691 31.6869 195.697C31.9485 195.703 32.2348 195.708 32.4946 195.722C32.8623 195.742 33.176 195.728 33.2977 195.728C33.6535 195.728 33.9462 195.936 34.1995 196.029C34.5471 196.157 34.7685 196.295 34.7685 196.635C34.7685 197.008 34.4502 197.222 33.9114 197.206C33.4852 197.193 33.122 197.181 32.768 197.178C32.458 197.175 32.1589 197.055 31.8442 197.046C31.5533 197.036 31.246 197.105 30.913 197.08C30.7438 197.067 30.5225 196.995 30.2636 196.972C29.9764 196.948 29.7075 196.931 29.4559 196.91C29.166 196.886 28.8989 196.849 28.6519 196.831C28.3546 196.81 28.0857 196.812 27.8452 196.8C27.5342 196.784 27.268 196.853 27.0384 196.852C26.7 196.852 26.4512 196.859 26.2454 196.894C25.8914 196.952 25.7295 197.039 25.5593 197.211C25.2987 197.474 25.1221 197.732 25.0343 198.041C24.9392 198.377 24.8477 198.718 24.8477 199.047C24.8477 199.145 24.9794 199.259 24.9822 199.472C24.9822 199.634 24.8175 199.846 24.6575 200.053C24.5404 200.205 24.3894 200.364 24.1983 200.49C23.933 200.662 23.6266 200.717 23.3284 200.737C23.0147 200.758 22.6762 200.794 22.4073 200.678C22.1045 200.546 21.8969 200.264 21.7661 200.002C21.6582 199.786 21.6225 199.549 21.5777 199.294C21.5365 199.064 21.3975 198.829 21.3865 198.563C21.3774 198.329 21.3801 198.078 21.3801 197.815C21.3792 197.548 21.403 197.28 21.3966 197.006C21.3892 196.741 21.3655 196.476 21.3399 196.202C21.3152 195.94 21.3929 195.656 21.3399 195.384C21.2868 195.112 21.0398 194.946 20.8166 194.793C20.5925 194.639 20.3447 194.444 20.0812 194.499C19.8434 194.548 19.6907 194.819 19.548 195.058C19.4309 195.257 19.3897 195.486 19.3852 195.778C19.3797 196.102 19.3961 196.442 19.43 196.793C19.462 197.136 19.4309 197.488 19.4318 197.821C19.4318 198.1 19.3742 198.384 19.3833 198.666C19.3925 198.948 19.4044 199.236 19.4391 199.516C19.4748 199.794 19.612 200.056 19.6897 200.328C19.7657 200.593 19.7876 200.894 19.9202 201.148C20.0465 201.389 20.2559 201.609 20.4654 201.814C20.6584 202.002 20.8898 202.179 21.1368 202.327C21.3691 202.466 21.6399 202.56 21.907 202.654C22.164 202.743 22.4411 202.777 22.7183 202.818C22.9881 202.857 23.2653 202.942 23.5434 202.927C23.8168 202.912 24.0839 202.806 24.3538 202.732C24.6163 202.659 24.8962 202.606 25.145 202.471C25.3892 202.338 25.6407 202.165 25.8786 201.967C26.0972 201.784 26.2426 201.518 26.4118 201.254C26.5618 201.02 26.7896 200.794 26.8701 200.476C26.9369 200.211 26.925 199.898 26.925 199.563C26.9049 199.014 26.8774 198.774 27.5561 198.783C27.7317 198.786 28.0208 198.873 28.3583 198.902C28.608 198.925 28.8824 198.964 29.1596 198.99C29.434 199.015 29.713 199.002 29.9645 199.022C30.2911 199.049 30.5746 199.036 30.7658 199.035C31.1289 199.033 31.4582 199.038 31.7692 199.055C32.1095 199.073 32.4296 199.086 32.7644 199.09C33.0854 199.093 33.4504 199.113 33.8565 199.126C34.0505 199.132 34.2938 199.211 34.5609 199.187C34.7813 199.167 35.0219 199.134 35.2569 199.053C35.4691 198.979 35.6557 198.826 35.8542 198.671C36.0417 198.525 36.2485 198.381 36.3893 198.17C36.5238 197.968 36.64 197.738 36.714 197.494C36.7854 197.261 36.8183 197.005 36.8183 196.749C36.8183 196.5 36.8266 196.249 36.7826 196.021C36.7342 195.775 36.6674 195.527 36.5695 195.32C36.4616 195.093 36.3024 194.889 36.1387 194.73C35.9512 194.548 35.7381 194.378 35.5149 194.243C35.2963 194.11 35.0566 193.981 34.8069 193.895C34.5691 193.813 34.291 193.86 34.0276 193.822C33.7806 193.787 33.5282 193.753 33.262 193.759C33.0443 193.763 32.7799 193.701 32.5 193.676C32.2787 193.656 32.0326 193.737 31.7811 193.727C31.5497 193.718 31.31 193.616 31.0658 193.637C30.8316 193.656 30.5929 193.698 30.3587 193.763Z" fill="#E0CEA0"/>
<path fill-rule="evenodd" clip-rule="evenodd" d="M8.82678 7.89435C8.89756 7.61123 8.96551 7.31206 9.14765 7.15729C9.34678 6.98742 9.66481 6.90909 9.94699 6.96005C10.2971 7.02328 10.5434 7.21958 10.6963 7.46684C10.8237 7.67163 10.8634 7.95191 10.8209 8.34639C10.7926 8.61347 10.6916 8.85979 10.5076 9.01739C10.2971 9.1967 10.0112 9.2486 9.8026 9.24955C9.52892 9.25049 9.22692 9.07401 9.01741 8.78806C8.83905 8.54364 8.73996 8.24164 8.82678 7.89435ZM6.87797 7.40644C6.80436 7.70088 6.74679 7.96607 6.73358 8.23503C6.71848 8.53609 6.66941 8.81826 6.72886 9.08345C6.79209 9.3694 6.89118 9.6412 7.03841 9.88185C7.18469 10.1206 7.40929 10.2999 7.63485 10.4887C7.84247 10.6633 8.05198 10.8614 8.32566 10.9898C8.5682 11.1049 8.83905 11.2068 9.13255 11.2833C9.34583 11.339 9.57516 11.3597 9.8026 11.3597C10.0952 11.3597 10.4104 11.3343 10.7076 11.238C10.9898 11.1474 11.2607 10.986 11.5174 10.8161C11.7665 10.6519 11.9741 10.4264 12.1733 10.1942C12.3677 9.96867 12.5932 9.74595 12.7168 9.46189C12.8339 9.19481 12.8537 8.88055 12.8877 8.56628C12.9179 8.27561 12.9717 7.99721 12.9433 7.73769C12.9113 7.44985 12.8282 7.17805 12.7348 6.9308C12.6347 6.66372 12.4347 6.4627 12.2761 6.24565C12.111 6.01821 12.0034 5.73697 11.791 5.5671C11.573 5.39346 11.2984 5.29153 11.0483 5.18206C10.7935 5.06975 10.5104 5.0773 10.2405 5.03578C10.0791 5.0103 9.92623 4.93386 9.76296 4.93386C9.47512 4.93386 9.19767 4.95839 8.93814 5.03012C8.6654 5.10562 8.43041 5.2519 8.19731 5.39912C7.96421 5.54634 7.78301 5.74169 7.59615 5.95498C7.41779 6.15788 7.28095 6.3806 7.1526 6.63824C7.03369 6.877 6.94875 7.1252 6.87797 7.40644ZM8.83244 4.25909C9.11084 4.19491 9.39774 4.15528 9.70162 4.15528C9.95643 4.15528 10.2103 4.17038 10.4651 4.21851C10.7142 4.26475 10.9389 4.38932 11.1842 4.48087C11.4579 4.58185 11.6986 4.71397 11.9402 4.87535C12.1818 5.03767 12.4564 5.15375 12.6574 5.36514C12.8575 5.57465 12.9603 5.85683 13.1123 6.10503C13.2633 6.35323 13.4143 6.59011 13.5086 6.86568C13.603 7.1403 13.6644 7.41587 13.6936 7.7056C13.7229 7.99249 13.7446 8.2775 13.704 8.56534C13.6634 8.85129 13.6247 9.14291 13.5247 9.4147C13.4237 9.6865 13.234 9.91488 13.0811 10.1593C12.9264 10.4066 12.798 10.6727 12.597 10.8765C12.3913 11.0851 12.1336 11.2229 11.8873 11.3692C11.6561 11.507 11.4428 11.6334 11.2191 11.725C10.9775 11.824 10.7567 11.9732 10.5113 12.0203C10.266 12.0675 10.0046 11.9722 9.74315 11.9722C9.54119 11.9722 9.33262 12.0119 9.1099 11.9826C8.91172 11.9571 8.68522 12.0043 8.46533 11.9552C8.18599 11.8929 7.93873 11.7363 7.69996 11.6164C7.44987 11.49 7.22998 11.322 7.02803 11.1398C6.82418 10.9558 6.61467 10.7661 6.46462 10.533C6.31834 10.3056 6.1664 10.0593 6.07486 9.79314C5.98803 9.54022 5.91348 9.25993 5.87856 8.97775C5.84553 8.71351 5.82949 8.42472 5.84553 8.13972C5.86063 7.87453 5.91442 7.59235 5.97388 7.31395C6.03711 7.01479 6.19282 6.7496 6.29946 6.48724C6.41366 6.20601 6.55993 5.95309 6.72037 5.71716C6.88835 5.46801 7.04313 5.20943 7.25641 5.01596C7.47535 4.81683 7.74998 4.69226 8.0114 4.55731C8.26809 4.4233 8.54083 4.32704 8.83244 4.25909ZM6.62694 2.95108C6.3995 3.09641 6.14847 3.21626 5.94368 3.39463C5.74077 3.57111 5.55863 3.77873 5.38121 3.98541C5.20662 4.18831 5.10942 4.45161 4.96125 4.68188C4.81686 4.90649 4.57998 5.08485 4.46296 5.334C4.34877 5.57465 4.29592 5.85022 4.2091 6.11164C4.1251 6.36361 4.13926 6.6439 4.08264 6.91475C4.02412 7.18749 3.91937 7.44324 3.89295 7.70938C3.86463 7.98683 3.8401 8.25863 3.84387 8.52665C3.84859 8.80505 3.90805 9.07213 3.94579 9.33826C3.98449 9.61288 4.06848 9.86769 4.14209 10.1263C4.21665 10.3934 4.31574 10.6378 4.42521 10.8841C4.53752 11.1361 4.66681 11.3635 4.81309 11.5919C4.96031 11.8231 5.1047 12.0421 5.28684 12.2459C5.46804 12.4497 5.61243 12.6876 5.82571 12.8603C6.03522 13.0311 6.257 13.1953 6.4967 13.3331C6.72981 13.4671 6.99877 13.5369 7.25735 13.636C7.50744 13.7323 7.75281 13.8635 8.02461 13.9248C8.32094 13.9909 8.605 14.0447 8.87774 14.0786C9.17502 14.1154 9.4638 14.1258 9.74315 14.1258C10.0319 14.1258 10.3141 14.0918 10.5906 14.0541C10.8718 14.0145 11.1446 13.9437 11.4173 13.8635C11.6844 13.7851 11.9628 13.72 12.227 13.6011C12.4771 13.4888 12.68 13.2717 12.932 13.1217C13.1708 12.9782 13.4445 12.8895 13.6596 12.7112C13.8729 12.5328 14.1004 12.3601 14.2872 12.1515C14.4731 11.9448 14.5458 11.6504 14.7025 11.4182C14.8582 11.187 14.9969 10.9558 15.1205 10.7057C15.2442 10.4556 15.3716 10.214 15.4612 9.9498C15.5509 9.68555 15.6103 9.41942 15.6632 9.14668C15.716 8.87205 15.868 8.60875 15.8821 8.33035C15.8963 8.05195 15.7613 7.77638 15.733 7.49892C15.7047 7.22147 15.8066 6.91947 15.7387 6.65051C15.6707 6.38154 15.4546 6.15599 15.3499 5.8993C15.2451 5.6426 15.1035 5.41044 14.9648 5.16979C14.8261 4.92914 14.6883 4.69698 14.5194 4.47709C14.3495 4.25626 14.2183 4.00617 14.0211 3.81082C13.8238 3.61452 13.6483 3.3833 13.4265 3.21626C13.2048 3.04922 12.966 2.8869 12.7225 2.75289C12.48 2.61888 12.1855 2.58208 11.9251 2.48487C11.6853 2.39616 11.4664 2.23384 11.2229 2.17344C10.9757 2.11304 10.7133 2.09983 10.4642 2.06869C10.2122 2.03754 9.95454 2.0215 9.70162 2.0215C9.42605 2.0215 9.15331 2.06869 8.89001 2.1036C8.61822 2.13947 8.35963 2.22818 8.10294 2.2999C7.83964 2.37351 7.55935 2.39994 7.31398 2.50941C7.06577 2.61982 6.85438 2.80574 6.62694 2.95108ZM38.6931 7.55555C38.6365 7.2913 38.6195 7.01196 38.4883 6.78735C38.3581 6.5618 38.1939 6.33153 37.9919 6.15127C37.7984 5.97951 37.5465 5.87381 37.319 5.76057C37.0887 5.64638 36.8311 5.60202 36.5867 5.5369C36.3338 5.46895 36.0846 5.41422 35.8383 5.38591C35.5684 5.35571 35.3098 5.29153 35.0758 5.29153C34.8597 5.29153 34.6379 5.33683 34.4152 5.35476C34.1953 5.37364 33.9839 5.45952 33.7696 5.49538C33.5639 5.5303 33.2261 5.56899 32.8467 5.58598C32.5569 5.59824 32.237 5.61523 31.9256 5.62184C31.5981 5.62844 31.2744 5.49349 31.0036 5.49915C30.6383 5.50576 30.4656 5.69922 30.3194 5.8153C30.1202 5.97385 30.0919 6.16354 30.0494 6.4561C30.0089 6.73922 29.9768 7.03083 30.1353 7.24317C30.2948 7.45551 30.5789 7.54611 30.8611 7.58669C31.0772 7.61783 31.3593 7.70088 31.7085 7.70088C31.9577 7.70088 32.2285 7.61311 32.506 7.59802C32.774 7.58386 33.0533 7.65936 33.3119 7.63482C33.6026 7.60651 33.881 7.58386 34.1103 7.54517C34.4293 7.49232 34.7568 7.44985 35.0777 7.44985C35.3542 7.44985 35.5646 7.47722 35.7486 7.51874C36.0242 7.58008 36.1837 7.68578 36.3385 7.80375C36.5508 7.96418 36.6584 8.49456 36.3111 8.75881C36.1705 8.86545 35.8402 8.91358 35.4863 8.94472C35.2173 8.96831 34.92 8.93811 34.653 8.94C34.2547 8.94189 33.9225 9.03154 33.8244 9.03532C33.5818 9.0457 33.2959 8.95227 33.0005 8.95888C32.7315 8.96454 32.4522 8.97209 32.1795 8.97492C31.8897 8.97775 31.6085 8.94378 31.3593 8.94378C30.9866 8.94472 30.6874 8.98436 30.5402 8.9787C30.1533 8.96548 30.0466 8.98058 29.3511 8.98058C29.0878 8.98058 28.9764 8.76447 28.8622 8.59554C28.7263 8.39075 28.5791 8.17086 28.5942 8.00948C28.6055 7.8783 28.6084 7.75939 28.6074 7.64143C28.6055 7.37529 28.6084 7.11482 28.6433 6.87417C28.682 6.61181 28.8981 6.30038 28.8754 5.96158C28.8566 5.67657 28.7244 5.36986 28.565 5.0707C28.4366 4.83099 28.1667 4.67433 27.8958 4.44595C27.6439 4.23455 27.3749 4.076 27.0493 3.96464C26.7351 3.85611 26.4236 3.68624 26.0829 3.68624C25.9753 3.68624 25.8734 3.77495 25.7677 3.78628C25.5412 3.81176 25.2676 3.81459 24.9873 3.92784C24.7617 4.01938 24.5305 4.15339 24.3012 4.33364C24.1086 4.48464 23.9067 4.66206 23.7293 4.89328C23.533 5.14997 23.432 5.44442 23.364 5.75868C23.3027 6.04557 23.3603 6.35701 23.3612 6.69581C23.3612 6.99025 23.3697 7.30074 23.3857 7.63576C23.3999 7.91133 23.4075 8.22654 23.415 8.55496C23.4216 8.80222 23.2951 9.04004 23.1611 9.17877C23.062 9.28069 22.8639 9.29768 22.5817 9.28824C22.3448 9.28163 22.1202 9.30711 22.0438 9.19859C22.0032 9.14102 22.0239 8.99379 21.9947 8.67576C21.9673 8.38792 22.0315 7.96701 22.1127 7.52063C22.1693 7.20825 22.2655 6.87983 22.2967 6.54103C22.3278 6.21073 22.2334 5.88514 22.1768 5.55955C22.1211 5.23302 22.1202 4.93763 22.0126 4.7017C21.8777 4.40348 21.7267 4.14112 21.5323 3.95898C21.3076 3.74664 20.9934 3.70795 20.7291 3.60791C20.447 3.50127 20.1714 3.44465 19.8939 3.40879C19.6514 3.37764 19.4447 3.33801 19.2446 3.33801C18.9389 3.33801 18.6718 3.38519 18.4142 3.45975C18.1282 3.54185 17.8196 3.56356 17.5969 3.73249C17.3732 3.90141 17.277 4.19775 17.1222 4.44972C16.9816 4.67999 16.7287 4.88573 16.6503 5.18017C16.5814 5.4397 16.6909 5.75302 16.69 6.08332C16.689 6.35134 16.7287 6.64296 16.7438 6.9676C16.757 7.22524 16.7551 7.50647 16.7617 7.79809C16.7673 8.06705 16.6994 8.34734 16.6862 8.62763C16.673 8.9032 16.588 9.17027 16.5437 9.44112C16.5003 9.70914 16.4352 9.95829 16.3559 10.2122C16.2766 10.467 16.2625 10.7444 16.1445 10.987C16.0293 11.2238 15.8189 11.4069 15.666 11.6334C15.5207 11.8505 15.3895 12.0779 15.2083 12.2865C15.0384 12.4828 14.8553 12.6715 14.6543 12.8622C14.4656 13.0396 14.2844 13.2359 14.0683 13.4105C13.8842 13.5586 13.671 13.7276 13.4039 13.855C13.1793 13.9635 12.9047 13.9965 12.6357 14.0852C12.3922 14.1664 12.1534 14.3004 11.8845 14.3636C11.6297 14.424 11.3569 14.4221 11.0889 14.4637C10.8275 14.5042 10.5651 14.5524 10.2981 14.5741C10.031 14.5958 9.76485 14.6864 9.49966 14.6864C9.23259 14.6864 8.97872 14.5552 8.72769 14.5344C8.45967 14.5118 8.1992 14.5307 7.95383 14.4844C7.68675 14.4344 7.40929 14.4542 7.17525 14.3778C6.91383 14.2929 6.69206 14.1296 6.47783 14.0145C6.2334 13.8833 6.02767 13.721 5.85402 13.552C5.65961 13.3652 5.40197 13.2991 5.13207 13.2991C4.85367 13.2991 4.62906 13.4246 4.4337 13.6256C4.23552 13.8304 4.16757 14.0503 4.17135 14.3164C4.17607 14.5816 4.26289 14.7883 4.46862 14.9865C4.65265 15.1639 4.83479 15.3347 5.05657 15.4848C5.26702 15.6282 5.45388 15.8198 5.69453 15.9378C5.92291 16.0501 6.16262 16.1596 6.41649 16.2483C6.6562 16.3323 6.92233 16.354 7.18374 16.4153C7.431 16.4748 7.67731 16.5776 7.9425 16.6163C8.19542 16.6531 8.45684 16.6862 8.72391 16.7041C8.97966 16.722 9.24297 16.723 9.5091 16.723C9.80543 16.723 10.098 16.6456 10.3915 16.6248C10.6888 16.6041 10.9851 16.6154 11.2748 16.5739C11.5712 16.5314 11.8656 16.4946 12.1497 16.4332C12.4441 16.3691 12.7367 16.3087 13.0132 16.2256C13.3038 16.1369 13.6021 16.0793 13.8663 15.9718C14.1513 15.8557 14.4297 15.7311 14.677 15.5933C14.9497 15.4423 15.1035 15.1413 15.3206 14.9676C15.532 14.7968 15.85 14.7619 16.0407 14.5873C16.2407 14.4052 16.4116 14.1947 16.589 14.0069C16.7749 13.8106 16.8664 13.5388 17.0278 13.3369C17.1949 13.1264 17.4044 12.9528 17.5459 12.7348C17.6922 12.5101 17.8706 12.3035 17.9895 12.0704C18.1103 11.8335 18.2198 11.5853 18.3141 11.339C18.4085 11.0927 18.4623 10.8275 18.5312 10.5698C18.5982 10.3169 18.5991 10.0461 18.6416 9.78181C18.6954 9.45434 18.8011 9.1363 18.819 8.8192C18.837 8.48512 18.7737 8.15576 18.769 7.84433C18.7624 7.49892 18.7898 7.1705 18.7756 6.86945C18.7511 6.34568 18.7615 6.01254 18.8001 5.85022C18.8926 5.50576 19.0182 5.23585 19.4645 5.25095C19.8647 5.26511 19.9826 5.47556 20.0364 5.552C20.1025 5.64449 20.1601 5.72376 20.1988 5.94554C20.2497 6.24281 20.2016 6.71185 20.1195 7.16107C20.0704 7.43192 20.0657 7.72353 20.0327 8.01703C20.0006 8.30487 19.9647 8.58138 19.9921 8.8645C20.0176 9.14196 20.0166 9.42886 20.0921 9.70537C20.1667 9.97905 20.2554 10.249 20.4224 10.483C20.5781 10.702 20.7424 10.9671 21.0132 11.1191C21.234 11.2427 21.5285 11.3182 21.8465 11.3786C22.0947 11.4267 22.3863 11.4069 22.7053 11.4069C22.9799 11.4069 23.2197 11.4069 23.4244 11.3645C23.6849 11.3097 23.9029 11.2116 24.0945 11.0936C24.2917 10.9719 24.4248 10.7708 24.6032 10.5878C24.7806 10.4037 25.0165 10.2518 25.1373 10.0225C25.2553 9.79786 25.2421 9.51474 25.2996 9.26087C25.3553 9.01361 25.5186 8.76541 25.512 8.504C25.5035 8.14255 25.4856 7.80092 25.4723 7.52818C25.4601 7.27715 25.2723 7.05254 25.2694 6.85247C25.2657 6.53726 25.2959 6.28056 25.3251 6.15505C25.3789 5.92289 25.6205 5.72942 25.9895 5.72848C26.2915 5.72754 26.5473 5.8455 26.6095 6.01349C26.6275 6.06162 26.6671 6.1928 26.6246 6.63163C26.5708 7.18372 26.5926 7.22996 26.5425 7.8264C26.5227 8.05195 26.569 8.353 26.5859 8.68331C26.6001 8.95227 26.5671 9.25332 26.6671 9.53739C26.7577 9.79314 26.9295 10.0291 27.1333 10.2575C27.3079 10.4519 27.5674 10.6699 27.9525 10.8209C28.2195 10.9247 28.5432 10.9615 28.9368 10.97C29.219 10.9766 29.4643 10.9917 29.6823 10.9973C29.973 11.0058 30.2127 11.0662 30.426 11.0728C31.0479 11.0945 31.2546 11.0492 31.6717 11.0492C31.8907 11.0492 32.1294 11.0087 32.4154 11.0011C32.6343 10.9955 32.8835 11.0983 33.1647 11.0879C33.3884 11.0794 33.6375 11.12 33.9131 11.1087C34.1641 11.0974 34.4029 10.9841 34.636 10.9775C34.9002 10.97 35.1711 11.0096 35.4391 10.9945C35.7081 10.9804 35.9836 10.9936 36.2441 10.9577C36.5159 10.92 36.7962 10.886 37.0444 10.8095C37.3068 10.7293 37.555 10.583 37.7748 10.4415C37.9966 10.298 38.1259 10.047 38.2854 9.82145C38.4279 9.61949 38.5751 9.40621 38.6553 9.12403C38.7214 8.89093 38.7733 8.63046 38.7894 8.33507C38.8035 8.05856 38.7459 7.80281 38.6931 7.55555ZM14.6213 19.4796C14.5392 19.2503 14.3873 19.0389 14.2466 18.8162C14.1155 18.6067 13.9692 18.4028 13.7852 18.2178C13.6106 18.0423 13.4426 17.8385 13.2208 17.6997C13.0132 17.5704 12.764 17.4893 12.5139 17.4053C12.311 17.3364 12.0704 17.3477 11.7929 17.3185C11.5768 17.2958 11.3418 17.3015 11.0681 17.3015C10.9219 17.3015 10.6293 17.3194 10.2962 17.3326C10.0433 17.343 9.76296 17.2156 9.51571 17.226C9.11273 17.2439 8.78714 17.4015 8.74279 17.4015C8.47854 17.4015 8.19354 17.3855 7.89909 17.3751C7.62635 17.3647 7.35173 17.2269 7.06672 17.1996C6.78926 17.1731 6.49859 17.2184 6.22208 17.1703C5.94273 17.1212 5.68226 16.9929 5.41896 16.9145C5.14245 16.8334 4.848 16.8079 4.60452 16.6862C4.34499 16.5578 4.16285 16.3266 3.95806 16.1454C3.90993 16.102 3.62587 15.8075 3.32954 15.4546C3.12003 15.2064 2.9058 14.9469 2.785 14.7015C2.71611 14.5637 2.70195 14.2419 2.89353 13.9814C3.0568 13.7596 3.19081 13.5992 3.30122 13.4454C3.43052 13.2651 3.45977 13.0415 3.62209 12.848C3.89861 12.496 4.01091 12.2232 3.93069 11.9288C3.92786 11.9175 3.7495 11.4069 3.70514 11.3286C3.5834 11.1162 3.38239 10.9096 3.29367 10.6463C3.21346 10.4094 3.24366 10.1244 3.19081 9.85637C3.14173 9.60722 3.10115 9.34769 3.07662 9.08062C3.05208 8.82392 3.07567 8.56251 3.07473 8.29638C3.07379 8.03685 3.04075 7.77449 3.06246 7.51119C3.08322 7.25072 3.06907 6.9827 3.11248 6.72412C3.15683 6.46459 3.33048 6.23527 3.39749 5.98423C3.46638 5.72848 3.43429 5.44347 3.52866 5.20376C3.61926 4.97161 3.72685 4.71585 3.86746 4.46577C3.99204 4.2421 4.11567 3.98824 4.28743 3.76646C4.44597 3.56073 4.75174 3.47579 4.95465 3.28421C5.14339 3.10585 5.30571 2.89351 5.53693 2.73779C5.75116 2.59246 5.93141 2.35464 6.18527 2.23573C6.41837 2.1272 6.68356 2.03377 6.95347 1.95261C7.22715 1.8705 7.49706 1.77896 7.62258 1.54397C7.74809 1.31087 7.70751 1.02492 7.62541 0.751234C7.5584 0.530401 7.47441 0.327499 7.29982 0.198207C7.12617 0.0698595 6.90723 2.3302e-05 6.6779 2.3302e-05C6.57598 2.3302e-05 6.47028 -0.00186416 6.37308 0.0283353C6.10222 0.109496 5.84459 0.222744 5.59072 0.33033C5.33119 0.439803 5.11885 0.63138 4.8782 0.767278C4.63283 0.905063 4.40162 1.04568 4.17795 1.20989C3.9524 1.37504 3.73817 1.54208 3.53433 1.73272C3.33142 1.92335 3.11153 2.09228 2.93034 2.30651C2.75197 2.51885 2.52359 2.6991 2.36787 2.93409C2.21499 3.16436 2.18856 3.47107 2.05739 3.7221C1.93092 3.96653 1.74312 4.18359 1.63742 4.44689C1.53739 4.69792 1.45906 4.95651 1.37884 5.21415C1.29862 5.47179 1.19293 5.72376 1.13347 5.98706C1.07307 6.25036 1.12026 6.5316 1.08157 6.79867C1.04193 7.06575 0.927737 7.32339 0.909806 7.59235C0.891875 7.86226 0.851295 8.13405 0.856013 8.40302C0.860732 8.67387 0.999461 8.93434 1.02777 9.20236C1.05608 9.47132 1.091 9.73274 1.14291 9.99698C1.19576 10.2622 1.23445 10.5245 1.31184 10.7831C1.38922 11.0417 1.48737 11.2842 1.59024 11.5334C1.78937 11.908 1.35336 12.2081 1.24955 12.3667C1.13253 12.5479 1.07873 12.8433 0.932456 13.1047C0.805995 13.3302 0.548356 13.5265 0.489845 13.788C0.43039 14.0522 0.547413 14.3231 0.565344 14.5684C0.585162 14.8308 0.663492 15.0601 0.749371 15.2979C0.836195 15.5424 0.932456 15.7679 1.06552 15.984C1.20236 16.2086 1.30051 16.4531 1.45906 16.6437C1.63459 16.8551 1.77238 17.0872 1.94036 17.2524C2.16403 17.4742 2.36221 17.6591 2.49622 17.7884C2.70007 17.9696 2.97752 18.065 3.2078 18.2093C3.43807 18.3537 3.64003 18.5623 3.89011 18.6737C4.13737 18.7841 4.412 18.8492 4.67153 18.9313C4.93105 19.0134 5.19907 19.0842 5.46426 19.1418C5.73228 19.1993 6.00785 19.2182 6.27493 19.2559C6.54861 19.2946 6.82324 19.289 7.09031 19.3107C7.36777 19.3333 7.63768 19.4183 7.90098 19.4277C8.18504 19.4371 8.45967 19.3767 8.71825 19.3767C8.83999 19.3767 9.60442 19.4088 9.92057 19.389C10.1131 19.3777 10.4944 19.3182 10.8869 19.306C11.2456 19.2956 11.6306 19.2333 11.8684 19.3182C12.1119 19.406 12.2242 19.6495 12.3545 19.8146C12.5366 20.0468 12.6583 20.2648 12.6706 20.4054C12.6923 20.6593 12.7744 20.9009 12.7489 21.1113C12.7168 21.368 12.5876 21.587 12.496 21.7767C12.3856 22.0041 12.2252 22.1759 12.0459 22.3023C11.8514 22.4392 11.6146 22.5949 11.3305 22.694C11.0889 22.7789 10.8237 22.8799 10.5453 22.9337C10.2839 22.9846 10.0055 23.0328 9.73276 23.0545C9.45908 23.0762 9.17502 23.0884 8.90983 23.0781C8.48987 23.063 8.01706 23.0111 7.72922 22.9931C7.46403 22.9771 7.21772 23.0082 7.03369 23.18C6.85249 23.3489 6.71659 23.5886 6.68828 23.85C6.65714 24.1256 6.78171 24.3757 6.95441 24.5927C7.12806 24.8089 7.34512 24.9872 7.61975 25.0174C7.8368 25.042 8.05292 25.0637 8.26715 25.0759C8.48609 25.0892 8.70409 25.0882 8.91738 25.0882C9.19861 25.0882 9.47418 25.042 9.74692 25.0203C10.0263 24.9986 10.3084 25.0118 10.5793 24.9665C10.8539 24.9202 11.137 24.8966 11.4041 24.8268C11.6721 24.757 11.9496 24.6928 12.212 24.5984C12.4705 24.505 12.7197 24.3644 12.9735 24.2473C13.2104 24.1369 13.3746 23.9133 13.569 23.7443C13.7616 23.5764 13.9588 23.414 14.107 23.196C14.2485 22.9884 14.3788 22.7647 14.4779 22.5175C14.5713 22.2844 14.6062 22.0277 14.659 21.7653C14.7081 21.52 14.8242 21.2727 14.8365 21.0056C14.8478 20.7555 14.861 20.4875 14.8384 20.2223C14.8176 19.9864 14.7119 19.7335 14.6213 19.4796ZM12.6055 31.3225C12.5441 31.096 12.429 30.8695 12.2525 30.7336C12.0761 30.5987 11.8269 30.5515 11.5929 30.5515C11.2257 30.5515 10.869 30.8572 10.7303 31.0979C10.5916 31.3376 10.4425 31.617 10.5151 31.884C10.5548 32.0331 10.6774 32.3304 10.6708 32.6928C10.6652 32.9627 10.6605 33.2581 10.6463 33.5261C10.6265 33.9055 10.6406 34.2292 10.6406 34.3547C10.6406 34.7218 10.4321 35.0238 10.3396 35.2852C10.2112 35.6439 10.0735 35.8722 9.73276 35.8722C9.35999 35.8722 9.14576 35.5438 9.16181 34.988C9.17502 34.5482 9.18729 34.1735 9.19012 33.8083C9.19295 33.4884 9.3128 33.1798 9.32224 32.8551C9.33168 32.555 9.26279 32.2379 9.28827 31.8944C9.30148 31.7198 9.3732 31.4914 9.39585 31.2244C9.42039 30.928 9.43738 30.6506 9.45814 30.391C9.48173 30.0919 9.51948 29.8163 9.53741 29.5615C9.55817 29.2548 9.55629 28.9773 9.56855 28.7291C9.5846 28.4083 9.51476 28.1336 9.51571 27.8968C9.51665 27.5476 9.5091 27.2909 9.47418 27.0785C9.41567 26.7133 9.32885 26.5463 9.15709 26.3707C8.89379 26.1018 8.63615 25.9196 8.32755 25.829C7.99158 25.7309 7.64995 25.6365 7.32153 25.6365C7.22338 25.6365 7.10919 25.7724 6.8959 25.7752C6.73452 25.7752 6.52219 25.6054 6.31551 25.4402C6.16357 25.3194 6.00408 25.1637 5.87856 24.9665C5.70586 24.6928 5.65112 24.3766 5.6313 24.069C5.61054 23.7453 5.57373 23.3961 5.68981 23.1186C5.82194 22.8063 6.10411 22.592 6.36647 22.4571C6.58258 22.3457 6.81946 22.3089 7.07427 22.2627C7.30454 22.2202 7.53953 22.0768 7.80472 22.0654C8.03876 22.056 8.2898 22.0588 8.5531 22.0588C8.82017 22.0579 9.08819 22.0824 9.36188 22.0758C9.62707 22.0683 9.89225 22.0437 10.1659 22.0173C10.4283 21.9918 10.7124 22.072 10.9842 22.0173C11.2559 21.9626 11.422 21.7078 11.5749 21.4775C11.7288 21.2463 11.9241 20.9905 11.8694 20.7187C11.8203 20.4734 11.5494 20.3158 11.3097 20.1685C11.1116 20.0477 10.8822 20.0053 10.5906 20.0005C10.266 19.9949 9.92623 20.0119 9.57516 20.0468C9.23259 20.0798 8.88057 20.0477 8.54744 20.0487C8.26809 20.0487 7.98403 19.9892 7.70185 19.9987C7.42062 20.0081 7.13184 20.0204 6.85249 20.0562C6.57409 20.093 6.31173 20.2346 6.03994 20.3148C5.77475 20.3931 5.4737 20.4158 5.21983 20.5526C4.97918 20.6829 4.75929 20.899 4.5545 21.1151C4.36576 21.3142 4.18928 21.553 4.04111 21.8078C3.90238 22.0475 3.80801 22.3268 3.71458 22.6024C3.62493 22.8676 3.59095 23.1536 3.55037 23.4395C3.51073 23.7179 3.4258 24.0039 3.4409 24.2908C3.456 24.5729 3.56264 24.8485 3.63625 25.1269C3.70892 25.3978 3.76177 25.6865 3.89672 25.9432C4.02979 26.1952 4.20343 26.4547 4.40162 26.7001C4.58376 26.9257 4.84989 27.0757 5.11414 27.2503C5.34818 27.4051 5.57373 27.6401 5.89177 27.7231C6.15696 27.792 6.47028 27.7797 6.8053 27.7797C7.35456 27.759 7.59427 27.7307 7.58483 28.4309C7.582 28.6121 7.49517 28.9103 7.46592 29.2586C7.44327 29.5162 7.40457 29.7993 7.37815 30.0853C7.35267 30.3684 7.36588 30.6562 7.34606 30.9158C7.31964 31.2527 7.33191 31.5452 7.33285 31.7425C7.33474 32.1171 7.33002 32.4569 7.31303 32.7777C7.2951 33.1288 7.28189 33.4591 7.27811 33.8045C7.27528 34.1358 7.25547 34.5123 7.24225 34.9313C7.23659 35.1314 7.15732 35.3824 7.18091 35.658C7.20073 35.8855 7.23376 36.1337 7.31492 36.3762C7.38947 36.5951 7.54236 36.7877 7.69713 36.9925C7.84341 37.1859 7.98686 37.3992 8.19825 37.5445C8.40021 37.6833 8.63048 37.8031 8.87397 37.8796C9.10707 37.9532 9.36282 37.9871 9.61952 37.9871C9.86772 37.9871 10.1188 37.9956 10.3471 37.9503C10.5934 37.9003 10.8417 37.8314 11.0483 37.7305C11.2748 37.6191 11.4796 37.4549 11.6382 37.286C11.8203 37.0925 11.9902 36.8726 12.1251 36.6423C12.2582 36.4168 12.3875 36.1695 12.4734 35.9119C12.5555 35.6665 12.5083 35.3796 12.546 35.1078C12.581 34.853 12.6149 34.5925 12.6093 34.3179C12.6055 34.0933 12.6668 33.8206 12.6923 33.5318C12.7121 33.3034 12.631 33.0495 12.6413 32.79C12.6498 32.5512 12.7518 32.304 12.731 32.052C12.7121 31.8104 12.6706 31.5641 12.6055 31.3225Z" fill="#E0CEA0"/>
<path fill-rule="evenodd" clip-rule="evenodd" d="M281.427 197.541C281.702 197.471 281.992 197.403 282.142 197.221C282.306 197.021 282.382 196.703 282.333 196.421C282.271 196.071 282.081 195.825 281.842 195.672C281.643 195.544 281.371 195.505 280.989 195.547C280.73 195.576 280.491 195.677 280.339 195.861C280.165 196.071 280.115 196.357 280.114 196.566C280.113 196.839 280.284 197.141 280.561 197.351C280.798 197.529 281.091 197.628 281.427 197.541ZM281.9 199.49C281.615 199.564 281.358 199.621 281.097 199.635C280.805 199.65 280.532 199.699 280.275 199.639C279.998 199.576 279.734 199.477 279.501 199.33C279.269 199.183 279.096 198.959 278.913 198.733C278.743 198.526 278.551 198.316 278.427 198.043C278.315 197.8 278.217 197.529 278.142 197.236C278.089 197.022 278.068 196.793 278.068 196.566C278.068 196.273 278.093 195.958 278.186 195.661C278.274 195.378 278.431 195.107 278.595 194.851C278.754 194.602 278.973 194.394 279.198 194.195C279.417 194 279.633 193.775 279.908 193.651C280.167 193.534 280.471 193.514 280.776 193.481C281.058 193.45 281.327 193.397 281.579 193.425C281.858 193.457 282.121 193.54 282.361 193.633C282.62 193.733 282.815 193.933 283.025 194.092C283.246 194.257 283.518 194.365 283.683 194.577C283.851 194.795 283.95 195.07 284.056 195.32C284.165 195.575 284.158 195.858 284.198 196.128C284.222 196.289 284.297 196.442 284.297 196.605C284.297 196.893 284.273 197.17 284.203 197.43C284.13 197.703 283.988 197.938 283.846 198.171C283.703 198.404 283.514 198.585 283.307 198.772C283.11 198.95 282.894 199.087 282.645 199.216C282.413 199.334 282.173 199.419 281.9 199.49ZM284.951 197.536C285.013 197.257 285.051 196.97 285.051 196.667C285.051 196.412 285.037 196.158 284.99 195.903C284.945 195.654 284.824 195.429 284.736 195.184C284.638 194.91 284.51 194.67 284.353 194.428C284.196 194.186 284.083 193.912 283.879 193.711C283.675 193.511 283.402 193.408 283.161 193.256C282.921 193.105 282.691 192.954 282.424 192.86C282.158 192.765 281.891 192.704 281.61 192.675C281.332 192.645 281.056 192.624 280.777 192.664C280.5 192.705 280.217 192.743 279.954 192.843C279.69 192.944 279.469 193.134 279.232 193.287C278.992 193.442 278.734 193.57 278.537 193.771C278.335 193.977 278.201 194.235 278.059 194.481C277.926 194.712 277.803 194.925 277.714 195.149C277.618 195.391 277.474 195.611 277.428 195.857C277.382 196.102 277.475 196.364 277.475 196.625C277.475 196.827 277.436 197.036 277.465 197.258C277.489 197.456 277.444 197.683 277.491 197.903C277.552 198.182 277.703 198.429 277.82 198.668C277.942 198.918 278.105 199.138 278.282 199.34C278.46 199.544 278.644 199.753 278.87 199.904C279.09 200.05 279.329 200.202 279.587 200.293C279.832 200.38 280.104 200.455 280.377 200.49C280.633 200.523 280.913 200.539 281.189 200.523C281.446 200.508 281.72 200.454 281.99 200.394C282.28 200.331 282.537 200.175 282.791 200.069C283.064 199.955 283.309 199.808 283.537 199.648C283.779 199.48 284.029 199.325 284.217 199.112C284.41 198.893 284.531 198.618 284.662 198.357C284.791 198.1 284.885 197.827 284.951 197.536ZM286.218 199.741C286.077 199.969 285.961 200.22 285.788 200.424C285.617 200.627 285.416 200.81 285.216 200.987C285.019 201.162 284.764 201.259 284.541 201.407C284.323 201.551 284.15 201.788 283.909 201.905C283.675 202.019 283.408 202.072 283.155 202.159C282.911 202.243 282.639 202.229 282.377 202.286C282.112 202.344 281.864 202.449 281.606 202.475C281.338 202.504 281.074 202.528 280.814 202.524C280.544 202.52 280.286 202.46 280.028 202.422C279.762 202.384 279.515 202.3 279.264 202.226C279.005 202.152 278.768 202.052 278.529 201.943C278.285 201.831 278.065 201.701 277.843 201.555C277.619 201.408 277.407 201.263 277.21 201.081C277.012 200.9 276.781 200.756 276.614 200.542C276.448 200.333 276.289 200.111 276.156 199.871C276.026 199.638 275.958 199.369 275.862 199.111C275.769 198.861 275.642 198.615 275.582 198.344C275.518 198.047 275.466 197.763 275.433 197.49C275.398 197.193 275.387 196.904 275.387 196.625C275.387 196.336 275.42 196.054 275.457 195.778C275.495 195.496 275.564 195.224 275.642 194.951C275.718 194.684 275.781 194.405 275.896 194.141C276.005 193.891 276.215 193.688 276.361 193.436C276.5 193.197 276.586 192.924 276.759 192.709C276.931 192.495 277.099 192.268 277.301 192.081C277.501 191.895 277.787 191.822 278.012 191.666C278.236 191.51 278.46 191.371 278.702 191.248C278.945 191.124 279.179 190.997 279.435 190.907C279.691 190.817 279.949 190.758 280.213 190.705C280.48 190.652 280.735 190.5 281.005 190.486C281.274 190.472 281.542 190.607 281.81 190.635C282.079 190.663 282.372 190.562 282.633 190.629C282.893 190.697 283.112 190.914 283.361 191.018C283.61 191.123 283.835 191.265 284.068 191.403C284.301 191.542 284.526 191.68 284.739 191.849C284.953 192.019 285.196 192.15 285.385 192.347C285.575 192.544 285.799 192.72 285.961 192.942C286.123 193.163 286.281 193.402 286.41 193.646C286.54 193.888 286.576 194.183 286.67 194.443C286.756 194.683 286.914 194.902 286.972 195.145C287.031 195.393 287.043 195.655 287.074 195.904C287.104 196.156 287.119 196.414 287.119 196.667C287.119 196.942 287.074 197.215 287.04 197.478C287.005 197.75 286.919 198.009 286.849 198.265C286.778 198.529 286.753 198.809 286.646 199.054C286.539 199.302 286.359 199.514 286.218 199.741ZM281.756 167.675C282.012 167.732 282.282 167.749 282.5 167.88C282.719 168.01 282.942 168.174 283.117 168.376C283.283 168.57 283.386 168.822 283.495 169.049C283.606 169.279 283.649 169.537 283.712 169.781C283.778 170.034 283.831 170.284 283.858 170.53C283.888 170.8 283.95 171.058 283.95 171.292C283.95 171.509 283.906 171.73 283.889 171.953C283.87 172.173 283.787 172.384 283.752 172.599C283.718 172.804 283.681 173.142 283.665 173.521C283.653 173.811 283.636 174.131 283.63 174.443C283.623 174.77 283.754 175.094 283.749 175.365C283.742 175.73 283.555 175.903 283.442 176.049C283.289 176.248 283.105 176.276 282.821 176.319C282.547 176.359 282.264 176.391 282.058 176.233C281.853 176.073 281.765 175.789 281.725 175.507C281.695 175.291 281.615 175.009 281.615 174.66C281.615 174.41 281.7 174.14 281.714 173.862C281.728 173.594 281.655 173.315 281.679 173.056C281.706 172.766 281.728 172.487 281.766 172.258C281.817 171.939 281.858 171.611 281.858 171.291C281.858 171.014 281.831 170.804 281.791 170.62C281.732 170.344 281.629 170.184 281.515 170.03C281.359 169.817 280.845 169.71 280.589 170.057C280.486 170.198 280.439 170.528 280.409 170.882C280.386 171.151 280.416 171.448 280.414 171.715C280.412 172.113 280.325 172.446 280.321 172.544C280.311 172.786 280.402 173.072 280.395 173.368C280.39 173.637 280.383 173.916 280.38 174.189C280.377 174.478 280.41 174.76 280.41 175.009C280.409 175.382 280.371 175.681 280.376 175.828C280.389 176.215 280.374 176.322 280.374 177.017C280.374 177.28 280.584 177.392 280.748 177.506C280.946 177.642 281.159 177.789 281.316 177.774C281.443 177.763 281.558 177.76 281.672 177.761C281.93 177.763 282.183 177.76 282.416 177.725C282.67 177.686 282.972 177.47 283.3 177.493C283.577 177.512 283.874 177.644 284.164 177.803C284.396 177.932 284.548 178.201 284.769 178.472C284.974 178.724 285.128 178.993 285.236 179.319C285.341 179.633 285.506 179.945 285.506 180.285C285.506 180.393 285.42 180.495 285.409 180.6C285.384 180.827 285.381 181.101 285.272 181.381C285.183 181.606 285.053 181.838 284.878 182.067C284.732 182.26 284.56 182.461 284.336 182.639C284.087 182.835 283.802 182.936 283.497 183.004C283.219 183.065 282.917 183.008 282.589 183.007C282.303 183.007 282.003 182.998 281.678 182.982C281.411 182.968 281.105 182.961 280.787 182.953C280.547 182.947 280.317 183.073 280.182 183.207C280.083 183.306 280.067 183.504 280.076 183.786C280.083 184.023 280.058 184.248 280.163 184.324C280.219 184.365 280.362 184.344 280.67 184.373C280.949 184.401 281.357 184.337 281.789 184.256C282.092 184.199 282.41 184.103 282.739 184.071C283.059 184.04 283.375 184.135 283.69 184.191C284.007 184.247 284.293 184.248 284.522 184.356C284.811 184.491 285.065 184.642 285.241 184.836C285.447 185.061 285.485 185.375 285.582 185.639C285.685 185.921 285.74 186.197 285.775 186.474C285.805 186.717 285.843 186.923 285.843 187.124C285.843 187.429 285.798 187.696 285.725 187.954C285.646 188.24 285.625 188.549 285.461 188.771C285.297 188.995 285.01 189.091 284.766 189.246C284.543 189.387 284.343 189.64 284.058 189.718C283.806 189.787 283.503 189.677 283.182 189.678C282.923 189.679 282.64 189.64 282.325 189.624C282.076 189.611 281.803 189.613 281.52 189.606C281.26 189.601 280.988 189.669 280.716 189.682C280.449 189.695 280.191 189.78 279.928 189.824C279.668 189.868 279.427 189.933 279.181 190.012C278.934 190.092 278.665 190.106 278.43 190.224C278.2 190.339 278.023 190.549 277.803 190.702C277.593 190.847 277.372 190.979 277.17 191.16C276.98 191.33 276.797 191.513 276.612 191.714C276.44 191.903 276.25 192.084 276.081 192.3C275.937 192.484 275.773 192.697 275.65 192.964C275.545 193.189 275.513 193.464 275.427 193.732C275.348 193.976 275.218 194.215 275.157 194.484C275.098 194.738 275.1 195.011 275.06 195.279C275.021 195.541 274.974 195.803 274.953 196.07C274.932 196.337 274.844 196.603 274.844 196.869C274.844 197.136 274.971 197.389 274.991 197.64C275.013 197.908 274.995 198.169 275.04 198.414C275.088 198.681 275.069 198.959 275.143 199.193C275.226 199.454 275.384 199.676 275.495 199.89C275.623 200.135 275.78 200.34 275.944 200.514C276.125 200.709 276.189 200.966 276.189 201.236C276.189 201.514 276.067 201.739 275.872 201.934C275.674 202.133 275.461 202.201 275.203 202.197C274.946 202.192 274.745 202.105 274.553 201.9C274.381 201.716 274.216 201.533 274.07 201.312C273.931 201.101 273.746 200.914 273.631 200.674C273.522 200.445 273.416 200.206 273.33 199.952C273.249 199.712 273.228 199.446 273.168 199.184C273.111 198.937 273.011 198.691 272.974 198.426C272.938 198.173 272.906 197.911 272.888 197.644C272.871 197.388 272.87 197.125 272.87 196.859C272.87 196.563 272.945 196.27 272.965 195.977C272.985 195.679 272.974 195.383 273.015 195.093C273.056 194.797 273.092 194.503 273.151 194.219C273.213 193.924 273.272 193.631 273.352 193.355C273.438 193.064 273.494 192.766 273.598 192.502C273.711 192.217 273.832 191.938 273.965 191.691C274.111 191.418 274.403 191.265 274.572 191.048C274.737 190.836 274.771 190.518 274.94 190.327C275.117 190.127 275.321 189.957 275.503 189.779C275.693 189.593 275.956 189.502 276.152 189.34C276.356 189.173 276.524 188.964 276.736 188.822C276.953 188.676 277.154 188.498 277.38 188.379C277.609 188.258 277.85 188.148 278.089 188.054C278.327 187.96 278.584 187.906 278.834 187.837C279.079 187.77 279.342 187.769 279.598 187.727C279.915 187.673 280.223 187.567 280.531 187.549C280.855 187.531 281.174 187.594 281.476 187.599C281.81 187.606 282.129 187.578 282.421 187.593C282.928 187.617 283.251 187.607 283.408 187.568C283.742 187.476 284.004 187.35 283.989 186.904C283.976 186.503 283.772 186.386 283.697 186.332C283.608 186.266 283.531 186.208 283.316 186.169C283.028 186.118 282.573 186.167 282.138 186.249C281.875 186.298 281.593 186.302 281.308 186.336C281.029 186.368 280.761 186.403 280.487 186.376C280.218 186.351 279.94 186.352 279.672 186.276C279.407 186.201 279.145 186.113 278.918 185.946C278.706 185.79 278.449 185.626 278.302 185.355C278.182 185.134 278.109 184.84 278.05 184.522C278.003 184.273 278.023 183.982 278.023 183.663C278.023 183.388 278.023 183.149 278.064 182.944C278.117 182.683 278.212 182.465 278.326 182.274C278.444 182.076 278.639 181.943 278.817 181.765C278.995 181.588 279.142 181.352 279.365 181.231C279.582 181.113 279.857 181.126 280.103 181.069C280.342 181.013 280.583 180.85 280.836 180.856C281.187 180.865 281.518 180.883 281.782 180.896C282.025 180.908 282.243 181.096 282.437 181.099C282.742 181.103 282.991 181.072 283.113 181.043C283.338 180.989 283.525 180.748 283.526 180.379C283.527 180.077 283.413 179.821 283.25 179.759C283.204 179.741 283.076 179.701 282.651 179.744C282.116 179.797 282.071 179.776 281.493 179.826C281.274 179.845 280.983 179.799 280.662 179.782C280.402 179.768 280.11 179.801 279.835 179.701C279.587 179.61 279.358 179.439 279.137 179.235C278.948 179.06 278.737 178.801 278.591 178.416C278.49 178.149 278.454 177.825 278.446 177.431C278.44 177.149 278.425 176.904 278.42 176.686C278.411 176.395 278.353 176.155 278.346 175.942C278.325 175.32 278.369 175.114 278.369 174.696C278.369 174.478 278.409 174.239 278.416 173.953C278.421 173.734 278.322 173.485 278.332 173.203C278.34 172.98 278.301 172.731 278.312 172.455C278.323 172.204 278.432 171.965 278.439 171.732C278.446 171.468 278.408 171.197 278.422 170.929C278.436 170.66 278.423 170.385 278.458 170.124C278.495 169.852 278.528 169.572 278.602 169.324C278.679 169.061 278.821 168.813 278.958 168.593C279.097 168.372 279.341 168.242 279.559 168.083C279.755 167.94 279.962 167.793 280.235 167.713C280.461 167.647 280.714 167.595 281 167.579C281.268 167.565 281.516 167.622 281.756 167.675ZM270.198 191.747C270.421 191.829 270.626 191.981 270.841 192.122C271.044 192.253 271.242 192.399 271.421 192.583C271.591 192.758 271.789 192.926 271.923 193.147C272.049 193.355 272.127 193.604 272.209 193.854C272.276 194.057 272.265 194.298 272.293 194.575C272.315 194.791 272.309 195.026 272.309 195.3C272.309 195.446 272.292 195.739 272.279 196.072C272.269 196.325 272.393 196.605 272.383 196.852C272.365 197.255 272.213 197.581 272.213 197.625C272.213 197.89 272.228 198.175 272.238 198.469C272.248 198.742 272.382 199.016 272.408 199.301C272.434 199.579 272.39 199.87 272.437 200.146C272.484 200.425 272.609 200.686 272.685 200.949C272.763 201.226 272.788 201.52 272.906 201.764C273.03 202.023 273.254 202.205 273.43 202.41C273.472 202.458 273.757 202.742 274.1 203.039C274.34 203.248 274.592 203.462 274.829 203.583C274.963 203.652 275.275 203.666 275.527 203.475C275.742 203.311 275.898 203.177 276.047 203.067C276.222 202.938 276.438 202.908 276.626 202.746C276.967 202.47 277.231 202.357 277.517 202.437C277.528 202.44 278.023 202.619 278.099 202.663C278.304 202.785 278.505 202.986 278.76 203.074C278.99 203.155 279.266 203.125 279.526 203.177C279.767 203.226 280.019 203.267 280.277 203.292C280.526 203.316 280.78 203.292 281.038 203.293C281.289 203.294 281.543 203.327 281.799 203.306C282.051 203.285 282.311 203.299 282.561 203.256C282.813 203.211 283.035 203.038 283.279 202.971C283.526 202.902 283.803 202.934 284.035 202.839C284.26 202.749 284.508 202.641 284.75 202.501C284.967 202.376 285.213 202.252 285.428 202.081C285.627 201.922 285.71 201.616 285.895 201.414C286.068 201.225 286.274 201.062 286.425 200.831C286.566 200.617 286.796 200.437 286.912 200.183C287.017 199.95 287.107 199.685 287.186 199.415C287.266 199.141 287.354 198.871 287.582 198.746C287.808 198.62 288.085 198.661 288.35 198.743C288.565 198.81 288.761 198.894 288.887 199.068C289.011 199.242 289.079 199.461 289.079 199.69C289.079 199.792 289.08 199.898 289.051 199.995C288.972 200.266 288.863 200.524 288.758 200.777C288.652 201.037 288.467 201.249 288.335 201.49C288.201 201.735 288.065 201.967 287.906 202.19C287.746 202.416 287.584 202.63 287.399 202.834C287.214 203.037 287.051 203.257 286.843 203.438C286.637 203.616 286.463 203.845 286.235 204C286.012 204.153 285.714 204.18 285.471 204.311C285.234 204.437 285.024 204.625 284.769 204.731C284.525 204.831 284.275 204.909 284.025 204.989C283.775 205.07 283.531 205.175 283.276 205.235C283.021 205.295 282.748 205.248 282.489 205.287C282.23 205.326 281.981 205.44 281.72 205.458C281.458 205.476 281.195 205.517 280.934 205.512C280.672 205.507 280.419 205.369 280.159 205.34C279.899 205.312 279.645 205.277 279.389 205.225C279.132 205.172 278.878 205.134 278.627 205.056C278.377 204.979 278.142 204.881 277.9 204.778C277.537 204.579 277.246 205.015 277.092 205.119C276.917 205.236 276.631 205.289 276.377 205.436C276.159 205.562 275.968 205.82 275.715 205.878C275.459 205.938 275.196 205.821 274.958 205.803C274.704 205.783 274.482 205.705 274.251 205.619C274.014 205.532 273.796 205.436 273.586 205.303C273.369 205.166 273.132 205.068 272.947 204.909C272.742 204.734 272.517 204.596 272.357 204.428C272.142 204.204 271.963 204.006 271.838 203.872C271.662 203.668 271.57 203.391 271.43 203.16C271.29 202.93 271.087 202.728 270.98 202.478C270.873 202.231 270.809 201.956 270.73 201.697C270.65 201.437 270.582 201.169 270.526 200.904C270.47 200.636 270.452 200.36 270.415 200.093C270.378 199.82 270.383 199.545 270.362 199.278C270.34 199 270.258 198.73 270.249 198.467C270.24 198.183 270.298 197.908 270.298 197.65C270.298 197.528 270.267 196.764 270.286 196.448C270.297 196.255 270.355 195.874 270.367 195.481C270.377 195.123 270.437 194.738 270.355 194.5C270.27 194.256 270.034 194.144 269.874 194.014C269.649 193.832 269.437 193.71 269.301 193.698C269.055 193.676 268.821 193.594 268.617 193.619C268.368 193.651 268.156 193.781 267.972 193.872C267.752 193.983 267.585 194.143 267.463 194.322C267.33 194.517 267.179 194.754 267.083 195.038C267.001 195.279 266.903 195.544 266.851 195.823C266.801 196.084 266.755 196.363 266.734 196.635C266.712 196.909 266.701 197.193 266.711 197.458C266.725 197.878 266.776 198.351 266.793 198.639C266.809 198.904 266.778 199.15 266.612 199.334C266.448 199.516 266.216 199.652 265.962 199.68C265.695 199.711 265.453 199.586 265.243 199.414C265.033 199.24 264.86 199.023 264.831 198.748C264.807 198.531 264.786 198.315 264.774 198.101C264.761 197.882 264.762 197.664 264.762 197.451C264.762 197.17 264.807 196.894 264.828 196.621C264.849 196.342 264.836 196.06 264.88 195.789C264.925 195.514 264.948 195.231 265.016 194.964C265.083 194.696 265.146 194.419 265.237 194.156C265.328 193.898 265.464 193.648 265.577 193.395C265.684 193.158 265.901 192.994 266.065 192.799C266.228 192.607 266.385 192.409 266.596 192.261C266.798 192.12 267.014 191.989 267.254 191.89C267.48 191.797 267.729 191.762 267.983 191.709C268.221 191.66 268.46 191.544 268.719 191.532C268.962 191.52 269.221 191.507 269.479 191.53C269.707 191.551 269.952 191.656 270.198 191.747ZM258.72 193.763C258.939 193.824 259.159 193.939 259.291 194.116C259.421 194.292 259.467 194.541 259.467 194.775C259.467 195.142 259.171 195.499 258.938 195.638C258.705 195.777 258.434 195.926 258.176 195.853C258.031 195.813 257.743 195.691 257.392 195.697C257.13 195.703 256.844 195.708 256.584 195.722C256.216 195.742 255.903 195.728 255.781 195.728C255.425 195.728 255.132 195.936 254.879 196.029C254.531 196.157 254.31 196.295 254.31 196.635C254.31 197.008 254.628 197.222 255.167 197.206C255.593 197.193 255.957 197.181 256.311 197.178C256.621 197.175 256.92 197.055 257.234 197.046C257.525 197.036 257.833 197.105 258.166 197.08C258.335 197.067 258.556 196.995 258.815 196.972C259.102 196.948 259.371 196.931 259.623 196.91C259.913 196.886 260.18 196.849 260.427 196.831C260.724 196.81 260.993 196.812 261.233 196.8C261.544 196.784 261.811 196.853 262.04 196.852C262.379 196.852 262.627 196.859 262.833 196.894C263.187 196.952 263.349 197.039 263.519 197.211C263.78 197.474 263.956 197.732 264.044 198.041C264.139 198.377 264.231 198.718 264.231 199.047C264.231 199.145 264.099 199.259 264.096 199.472C264.096 199.634 264.261 199.846 264.421 200.053C264.538 200.205 264.689 200.364 264.88 200.49C265.146 200.662 265.452 200.717 265.75 200.737C266.064 200.758 266.402 200.794 266.671 200.678C266.974 200.546 267.182 200.264 267.313 200.002C267.42 199.786 267.456 199.549 267.501 199.294C267.542 199.064 267.681 198.829 267.692 198.563C267.701 198.329 267.699 198.078 267.699 197.815C267.699 197.548 267.676 197.28 267.682 197.006C267.689 196.741 267.713 196.476 267.739 196.202C267.763 195.94 267.686 195.656 267.739 195.384C267.792 195.112 268.039 194.946 268.262 194.793C268.486 194.639 268.734 194.444 268.997 194.499C269.235 194.548 269.388 194.819 269.531 195.058C269.648 195.257 269.689 195.486 269.693 195.778C269.699 196.102 269.682 196.442 269.649 196.793C269.617 197.136 269.648 197.488 269.647 197.821C269.647 198.1 269.704 198.384 269.695 198.666C269.686 198.948 269.674 199.236 269.639 199.516C269.604 199.794 269.467 200.056 269.389 200.328C269.313 200.593 269.291 200.894 269.158 201.148C269.032 201.389 268.823 201.609 268.613 201.814C268.42 202.002 268.189 202.179 267.942 202.327C267.709 202.466 267.439 202.56 267.172 202.654C266.915 202.743 266.637 202.777 266.36 202.818C266.09 202.857 265.813 202.942 265.535 202.927C265.262 202.912 264.995 202.806 264.725 202.732C264.462 202.659 264.182 202.606 263.934 202.471C263.689 202.338 263.438 202.165 263.2 201.967C262.981 201.784 262.836 201.518 262.667 201.254C262.517 201.02 262.289 200.794 262.209 200.476C262.142 200.211 262.154 199.898 262.154 199.563C262.174 199.014 262.201 198.774 261.522 198.783C261.347 198.786 261.058 198.873 260.72 198.902C260.471 198.925 260.196 198.964 259.919 198.99C259.645 199.015 259.366 199.002 259.114 199.022C258.788 199.049 258.504 199.036 258.313 199.035C257.95 199.033 257.62 199.038 257.309 199.055C256.969 199.073 256.649 199.086 256.314 199.09C255.993 199.093 255.628 199.113 255.222 199.126C255.028 199.132 254.785 199.211 254.518 199.187C254.297 199.167 254.057 199.134 253.822 199.053C253.609 198.979 253.423 198.826 253.224 198.671C253.037 198.525 252.83 198.381 252.689 198.17C252.555 197.968 252.439 197.738 252.365 197.494C252.293 197.261 252.26 197.005 252.26 196.749C252.26 196.5 252.252 196.249 252.296 196.021C252.344 195.775 252.411 195.527 252.509 195.32C252.617 195.093 252.776 194.889 252.94 194.73C253.127 194.548 253.341 194.378 253.564 194.243C253.782 194.11 254.022 193.981 254.272 193.895C254.51 193.813 254.788 193.86 255.051 193.822C255.298 193.787 255.55 193.753 255.817 193.759C256.034 193.763 256.299 193.701 256.579 193.676C256.8 193.656 257.046 193.737 257.298 193.727C257.529 193.718 257.769 193.616 258.013 193.637C258.247 193.656 258.486 193.698 258.72 193.763Z" fill="#E0CEA0"/>
<path fill-rule="evenodd" clip-rule="evenodd" d="M281.004 7.89435C280.933 7.61123 280.865 7.31206 280.683 7.15729C280.484 6.98742 280.166 6.90909 279.884 6.96005C279.534 7.02328 279.287 7.21958 279.134 7.46684C279.007 7.67163 278.967 7.95191 279.01 8.34639C279.038 8.61347 279.139 8.85979 279.323 9.01739C279.534 9.1967 279.82 9.2486 280.028 9.24955C280.302 9.25049 280.604 9.07401 280.813 8.78806C280.992 8.54364 281.091 8.24164 281.004 7.89435ZM282.953 7.40644C283.026 7.70088 283.084 7.96607 283.097 8.23503C283.112 8.53609 283.161 8.81826 283.102 9.08345C283.039 9.3694 282.94 9.6412 282.792 9.88185C282.646 10.1206 282.422 10.2999 282.196 10.4887C281.988 10.6633 281.779 10.8614 281.505 10.9898C281.263 11.1049 280.992 11.2068 280.698 11.2833C280.485 11.339 280.256 11.3597 280.028 11.3597C279.736 11.3597 279.42 11.3343 279.123 11.238C278.841 11.1474 278.57 10.986 278.313 10.8161C278.064 10.6519 277.857 10.4264 277.658 10.1942C277.463 9.96867 277.238 9.74595 277.114 9.46189C276.997 9.19481 276.977 8.88055 276.943 8.56628C276.913 8.27561 276.859 7.99721 276.887 7.73769C276.92 7.44985 277.003 7.17805 277.096 6.9308C277.196 6.66372 277.396 6.4627 277.555 6.24565C277.72 6.01821 277.827 5.73697 278.04 5.5671C278.258 5.39346 278.532 5.29153 278.782 5.18206C279.037 5.06975 279.32 5.0773 279.59 5.03578C279.752 5.0103 279.905 4.93386 280.068 4.93386C280.356 4.93386 280.633 4.95839 280.893 5.03012C281.165 5.10562 281.4 5.2519 281.633 5.39912C281.867 5.54634 282.048 5.74169 282.235 5.95498C282.413 6.15788 282.55 6.3806 282.678 6.63824C282.797 6.877 282.882 7.1252 282.953 7.40644ZM280.998 4.25909C280.72 4.19491 280.433 4.15528 280.129 4.15528C279.874 4.15528 279.621 4.17038 279.366 4.21851C279.117 4.26475 278.892 4.38932 278.647 4.48087C278.373 4.58185 278.132 4.71397 277.891 4.87535C277.649 5.03767 277.374 5.15375 277.173 5.36514C276.973 5.57465 276.87 5.85683 276.719 6.10503C276.568 6.35323 276.417 6.59011 276.322 6.86568C276.228 7.1403 276.166 7.41587 276.137 7.7056C276.108 7.99249 276.086 8.2775 276.127 8.56534C276.167 8.85129 276.206 9.14291 276.306 9.4147C276.407 9.6865 276.597 9.91488 276.75 10.1593C276.904 10.4066 277.033 10.6727 277.234 10.8765C277.44 11.0851 277.697 11.2229 277.944 11.3692C278.175 11.507 278.388 11.6334 278.612 11.725C278.853 11.824 279.074 11.9732 279.319 12.0203C279.565 12.0675 279.826 11.9722 280.088 11.9722C280.29 11.9722 280.498 12.0119 280.721 11.9826C280.919 11.9571 281.146 12.0043 281.365 11.9552C281.645 11.8929 281.892 11.7363 282.131 11.6164C282.381 11.49 282.601 11.322 282.803 11.1398C283.007 10.9558 283.216 10.7661 283.366 10.533C283.512 10.3056 283.664 10.0593 283.756 9.79314C283.843 9.54022 283.917 9.25993 283.952 8.97775C283.985 8.71351 284.001 8.42472 283.985 8.13972C283.97 7.87453 283.916 7.59235 283.857 7.31395C283.794 7.01479 283.638 6.7496 283.531 6.48724C283.417 6.20601 283.271 5.95309 283.11 5.71716C282.942 5.46801 282.788 5.20943 282.574 5.01596C282.355 4.81683 282.081 4.69226 281.819 4.55731C281.563 4.4233 281.29 4.32704 280.998 4.25909ZM283.204 2.95108C283.431 3.09641 283.682 3.21626 283.887 3.39463C284.09 3.57111 284.272 3.77873 284.45 3.98541C284.624 4.18831 284.721 4.45161 284.87 4.68188C285.014 4.90649 285.251 5.08485 285.368 5.334C285.482 5.57465 285.535 5.85022 285.622 6.11164C285.706 6.36361 285.692 6.6439 285.748 6.91475C285.807 7.18749 285.911 7.44324 285.938 7.70938C285.966 7.98683 285.991 8.25863 285.987 8.52665C285.982 8.80505 285.923 9.07213 285.885 9.33826C285.846 9.61288 285.762 9.86769 285.689 10.1263C285.614 10.3934 285.515 10.6378 285.406 10.8841C285.293 11.1361 285.164 11.3635 285.018 11.5919C284.871 11.8231 284.726 12.0421 284.544 12.2459C284.363 12.4497 284.218 12.6876 284.005 12.8603C283.796 13.0311 283.574 13.1953 283.334 13.3331C283.101 13.4671 282.832 13.5369 282.573 13.636C282.323 13.7323 282.078 13.8635 281.806 13.9248C281.51 13.9909 281.226 14.0447 280.953 14.0786C280.656 14.1154 280.367 14.1258 280.088 14.1258C279.799 14.1258 279.517 14.0918 279.24 14.0541C278.959 14.0145 278.686 13.9437 278.413 13.8635C278.146 13.7851 277.868 13.72 277.604 13.6011C277.354 13.4888 277.151 13.2717 276.899 13.1217C276.66 12.9782 276.386 12.8895 276.171 12.7112C275.958 12.5328 275.73 12.3601 275.544 12.1515C275.358 11.9448 275.285 11.6504 275.128 11.4182C274.973 11.187 274.834 10.9558 274.71 10.7057C274.587 10.4556 274.459 10.214 274.37 9.9498C274.28 9.68555 274.22 9.41942 274.168 9.14668C274.115 8.87205 273.963 8.60875 273.949 8.33035C273.935 8.05195 274.069 7.77638 274.098 7.49892C274.126 7.22147 274.024 6.91947 274.092 6.65051C274.16 6.38154 274.376 6.15599 274.481 5.8993C274.586 5.6426 274.727 5.41044 274.866 5.16979C275.005 4.92914 275.143 4.69698 275.311 4.47709C275.481 4.25626 275.612 4.00617 275.81 3.81082C276.007 3.61452 276.182 3.3833 276.404 3.21626C276.626 3.04922 276.865 2.8869 277.108 2.75289C277.351 2.61888 277.645 2.58208 277.906 2.48487C278.145 2.39616 278.364 2.23384 278.608 2.17344C278.855 2.11304 279.118 2.09983 279.367 2.06869C279.619 2.03754 279.876 2.0215 280.129 2.0215C280.405 2.0215 280.677 2.06869 280.941 2.1036C281.213 2.13947 281.471 2.22818 281.728 2.2999C281.991 2.37351 282.271 2.39994 282.517 2.50941C282.765 2.61982 282.976 2.80574 283.204 2.95108ZM251.138 7.55555C251.194 7.2913 251.211 7.01196 251.343 6.78735C251.473 6.5618 251.637 6.33153 251.839 6.15127C252.032 5.97951 252.284 5.87381 252.512 5.76057C252.742 5.64638 253 5.60202 253.244 5.5369C253.497 5.46895 253.746 5.41422 253.993 5.38591C254.262 5.35571 254.521 5.29153 254.755 5.29153C254.971 5.29153 255.193 5.33683 255.416 5.35476C255.636 5.37364 255.847 5.45952 256.061 5.49538C256.267 5.5303 256.605 5.56899 256.984 5.58598C257.274 5.59824 257.594 5.61523 257.905 5.62184C258.233 5.62844 258.556 5.49349 258.827 5.49915C259.192 5.50576 259.365 5.69922 259.511 5.8153C259.711 5.97385 259.739 6.16354 259.781 6.4561C259.822 6.73922 259.854 7.03083 259.695 7.24317C259.536 7.45551 259.252 7.54611 258.97 7.58669C258.754 7.61783 258.471 7.70088 258.122 7.70088C257.873 7.70088 257.602 7.61311 257.325 7.59802C257.057 7.58386 256.777 7.65936 256.519 7.63482C256.228 7.60651 255.95 7.58386 255.72 7.54517C255.402 7.49232 255.074 7.44985 254.753 7.44985C254.477 7.44985 254.266 7.47722 254.082 7.51874C253.807 7.58008 253.647 7.68578 253.492 7.80375C253.28 7.96418 253.172 8.49456 253.52 8.75881C253.66 8.86545 253.991 8.91358 254.345 8.94472C254.613 8.96831 254.911 8.93811 255.178 8.94C255.576 8.94189 255.908 9.03154 256.006 9.03532C256.249 9.0457 256.535 8.95227 256.83 8.95888C257.099 8.96454 257.379 8.97209 257.651 8.97492C257.941 8.97775 258.222 8.94378 258.471 8.94378C258.844 8.94472 259.143 8.98436 259.291 8.9787C259.678 8.96548 259.784 8.98058 260.48 8.98058C260.743 8.98058 260.854 8.76447 260.969 8.59554C261.104 8.39075 261.252 8.17086 261.237 8.00948C261.225 7.8783 261.222 7.75939 261.223 7.64143C261.225 7.37529 261.222 7.11482 261.188 6.87417C261.149 6.61181 260.933 6.30038 260.955 5.96158C260.974 5.67657 261.106 5.36986 261.266 5.0707C261.394 4.83099 261.664 4.67433 261.935 4.44595C262.187 4.23455 262.456 4.076 262.781 3.96464C263.096 3.85611 263.407 3.68624 263.748 3.68624C263.855 3.68624 263.957 3.77495 264.063 3.78628C264.29 3.81176 264.563 3.81459 264.844 3.92784C265.069 4.01938 265.3 4.15339 265.53 4.33364C265.722 4.48464 265.924 4.66206 266.102 4.89328C266.298 5.14997 266.399 5.44442 266.467 5.75868C266.528 6.04557 266.471 6.35701 266.47 6.69581C266.47 6.99025 266.461 7.30074 266.445 7.63576C266.431 7.91133 266.423 8.22654 266.416 8.55496C266.409 8.80222 266.536 9.04004 266.67 9.17877C266.769 9.28069 266.967 9.29768 267.249 9.28824C267.486 9.28163 267.711 9.30711 267.787 9.19859C267.828 9.14102 267.807 8.99379 267.836 8.67576C267.863 8.38792 267.799 7.96701 267.718 7.52063C267.662 7.20825 267.565 6.87983 267.534 6.54103C267.503 6.21073 267.597 5.88514 267.654 5.55955C267.71 5.23302 267.711 4.93763 267.818 4.7017C267.953 4.40348 268.104 4.14112 268.299 3.95898C268.523 3.74664 268.837 3.70795 269.102 3.60791C269.384 3.50127 269.659 3.44465 269.937 3.40879C270.179 3.37764 270.386 3.33801 270.586 3.33801C270.892 3.33801 271.159 3.38519 271.417 3.45975C271.703 3.54185 272.011 3.56356 272.234 3.73249C272.458 3.90141 272.554 4.19775 272.709 4.44972C272.849 4.67999 273.102 4.88573 273.18 5.18017C273.249 5.4397 273.14 5.75302 273.141 6.08332C273.142 6.35134 273.102 6.64296 273.087 6.9676C273.074 7.22524 273.076 7.50647 273.069 7.79809C273.063 8.06705 273.131 8.34734 273.145 8.62763C273.158 8.9032 273.243 9.17027 273.287 9.44112C273.331 9.70914 273.396 9.95829 273.475 10.2122C273.554 10.467 273.568 10.7444 273.686 10.987C273.801 11.2238 274.012 11.4069 274.165 11.6334C274.31 11.8505 274.441 12.0779 274.623 12.2865C274.792 12.4828 274.975 12.6715 275.176 12.8622C275.365 13.0396 275.546 13.2359 275.763 13.4105C275.947 13.5586 276.16 13.7276 276.427 13.855C276.652 13.9635 276.926 13.9965 277.195 14.0852C277.439 14.1664 277.677 14.3004 277.946 14.3636C278.201 14.424 278.474 14.4221 278.742 14.4637C279.003 14.5042 279.266 14.5524 279.533 14.5741C279.8 14.5958 280.066 14.6864 280.331 14.6864C280.598 14.6864 280.852 14.5552 281.103 14.5344C281.371 14.5118 281.632 14.5307 281.877 14.4844C282.144 14.4344 282.422 14.4542 282.656 14.3778C282.917 14.2929 283.139 14.1296 283.353 14.0145C283.597 13.8833 283.803 13.721 283.977 13.552C284.171 13.3652 284.429 13.2991 284.699 13.2991C284.977 13.2991 285.202 13.4246 285.397 13.6256C285.595 13.8304 285.663 14.0503 285.659 14.3164C285.655 14.5816 285.568 14.7883 285.362 14.9865C285.178 15.1639 284.996 15.3347 284.774 15.4848C284.564 15.6282 284.377 15.8198 284.136 15.9378C283.908 16.0501 283.668 16.1596 283.414 16.2483C283.175 16.3323 282.908 16.354 282.647 16.4153C282.4 16.4748 282.153 16.5776 281.888 16.6163C281.635 16.6531 281.374 16.6862 281.107 16.7041C280.851 16.722 280.588 16.723 280.322 16.723C280.025 16.723 279.733 16.6456 279.439 16.6248C279.142 16.6041 278.846 16.6154 278.556 16.5739C278.26 16.5314 277.965 16.4946 277.681 16.4332C277.387 16.3691 277.094 16.3087 276.818 16.2256C276.527 16.1369 276.229 16.0793 275.964 15.9718C275.679 15.8557 275.401 15.7311 275.154 15.5933C274.881 15.4423 274.727 15.1413 274.51 14.9676C274.299 14.7968 273.981 14.7619 273.79 14.5873C273.59 14.4052 273.419 14.1947 273.242 14.0069C273.056 13.8106 272.964 13.5388 272.803 13.3369C272.636 13.1264 272.426 12.9528 272.285 12.7348C272.139 12.5101 271.96 12.3035 271.841 12.0704C271.721 11.8335 271.611 11.5853 271.517 11.339C271.422 11.0927 271.369 10.8275 271.3 10.5698C271.233 10.3169 271.232 10.0461 271.189 9.78181C271.135 9.45434 271.03 9.1363 271.012 8.8192C270.994 8.48512 271.057 8.15576 271.062 7.84433C271.068 7.49892 271.041 7.1705 271.055 6.86945C271.08 6.34568 271.069 6.01254 271.031 5.85022C270.938 5.50576 270.813 5.23585 270.366 5.25095C269.966 5.26511 269.848 5.47556 269.794 5.552C269.728 5.64449 269.671 5.72376 269.632 5.94554C269.581 6.24281 269.629 6.71185 269.711 7.16107C269.76 7.43192 269.765 7.72353 269.798 8.01703C269.83 8.30487 269.866 8.58138 269.839 8.8645C269.813 9.14196 269.814 9.42886 269.739 9.70537C269.664 9.97905 269.575 10.249 269.408 10.483C269.253 10.702 269.088 10.9671 268.818 11.1191C268.597 11.2427 268.302 11.3182 267.984 11.3786C267.736 11.4267 267.444 11.4069 267.125 11.4069C266.851 11.4069 266.611 11.4069 266.406 11.3645C266.146 11.3097 265.928 11.2116 265.736 11.0936C265.539 10.9719 265.406 10.7708 265.228 10.5878C265.05 10.4037 264.814 10.2518 264.693 10.0225C264.576 9.79786 264.589 9.51474 264.531 9.26087C264.475 9.01361 264.312 8.76541 264.319 8.504C264.327 8.14255 264.345 7.80092 264.358 7.52818C264.371 7.27715 264.559 7.05254 264.561 6.85247C264.565 6.53726 264.535 6.28056 264.506 6.15505C264.452 5.92289 264.21 5.72942 263.841 5.72848C263.539 5.72754 263.284 5.8455 263.221 6.01349C263.203 6.06162 263.164 6.1928 263.206 6.63163C263.26 7.18372 263.238 7.22996 263.288 7.8264C263.308 8.05195 263.262 8.353 263.245 8.68331C263.231 8.95227 263.264 9.25332 263.164 9.53739C263.073 9.79314 262.901 10.0291 262.698 10.2575C262.523 10.4519 262.263 10.6699 261.878 10.8209C261.611 10.9247 261.288 10.9615 260.894 10.97C260.612 10.9766 260.366 10.9917 260.148 10.9973C259.858 11.0058 259.618 11.0662 259.405 11.0728C258.783 11.0945 258.576 11.0492 258.159 11.0492C257.94 11.0492 257.701 11.0087 257.415 11.0011C257.196 10.9955 256.947 11.0983 256.666 11.0879C256.442 11.0794 256.193 11.12 255.918 11.1087C255.667 11.0974 255.428 10.9841 255.195 10.9775C254.931 10.97 254.66 11.0096 254.392 10.9945C254.123 10.9804 253.847 10.9936 253.587 10.9577C253.315 10.92 253.035 10.886 252.786 10.8095C252.524 10.7293 252.276 10.583 252.056 10.4415C251.834 10.298 251.705 10.047 251.545 9.82145C251.403 9.61949 251.256 9.40621 251.175 9.12403C251.109 8.89093 251.057 8.63046 251.041 8.33507C251.027 8.05856 251.085 7.80281 251.138 7.55555ZM275.21 19.4796C275.292 19.2503 275.444 19.0389 275.584 18.8162C275.715 18.6067 275.862 18.4028 276.046 18.2178C276.22 18.0423 276.388 17.8385 276.61 17.6997C276.818 17.5704 277.067 17.4893 277.317 17.4053C277.52 17.3364 277.76 17.3477 278.038 17.3185C278.254 17.2958 278.489 17.3015 278.763 17.3015C278.909 17.3015 279.202 17.3194 279.535 17.3326C279.788 17.343 280.068 17.2156 280.315 17.226C280.718 17.2439 281.044 17.4015 281.088 17.4015C281.352 17.4015 281.637 17.3855 281.932 17.3751C282.204 17.3647 282.479 17.2269 282.764 17.1996C283.042 17.1731 283.332 17.2184 283.609 17.1703C283.888 17.1212 284.149 16.9929 284.412 16.9145C284.688 16.8334 284.983 16.8079 285.226 16.6862C285.486 16.5578 285.668 16.3266 285.873 16.1454C285.921 16.102 286.205 15.8075 286.501 15.4546C286.711 15.2064 286.925 14.9469 287.046 14.7015C287.115 14.5637 287.129 14.2419 286.937 13.9814C286.774 13.7596 286.64 13.5992 286.53 13.4454C286.4 13.2651 286.371 13.0415 286.209 12.848C285.932 12.496 285.82 12.2232 285.9 11.9288C285.903 11.9175 286.081 11.4069 286.126 11.3286C286.247 11.1162 286.448 10.9096 286.537 10.6463C286.617 10.4094 286.587 10.1244 286.64 9.85637C286.689 9.60722 286.73 9.34769 286.754 9.08062C286.779 8.82392 286.755 8.56251 286.756 8.29638C286.757 8.03685 286.79 7.77449 286.768 7.51119C286.748 7.25072 286.762 6.9827 286.718 6.72412C286.674 6.46459 286.5 6.23527 286.433 5.98423C286.364 5.72848 286.397 5.44347 286.302 5.20376C286.212 4.97161 286.104 4.71585 285.963 4.46577C285.839 4.2421 285.715 3.98824 285.543 3.76646C285.385 3.56073 285.079 3.47579 284.876 3.28421C284.687 3.10585 284.525 2.89351 284.294 2.73779C284.08 2.59246 283.899 2.35464 283.646 2.23573C283.412 2.1272 283.147 2.03377 282.877 1.95261C282.604 1.8705 282.334 1.77896 282.208 1.54397C282.083 1.31087 282.123 1.02492 282.205 0.751234C282.272 0.530401 282.356 0.327499 282.531 0.198207C282.705 0.0698595 282.924 2.3302e-05 283.153 2.3302e-05C283.255 2.3302e-05 283.361 -0.00186416 283.458 0.0283353C283.729 0.109496 283.986 0.222744 284.24 0.33033C284.5 0.439803 284.712 0.63138 284.953 0.767278C285.198 0.905063 285.429 1.04568 285.653 1.20989C285.878 1.37504 286.093 1.54208 286.296 1.73272C286.499 1.92335 286.719 2.09228 286.9 2.30651C287.079 2.51885 287.307 2.6991 287.463 2.93409C287.616 3.16436 287.642 3.47107 287.773 3.7221C287.9 3.96653 288.088 4.18359 288.193 4.44689C288.293 4.69792 288.372 4.95651 288.452 5.21415C288.532 5.47179 288.638 5.72376 288.697 5.98706C288.758 6.25036 288.711 6.5316 288.749 6.79867C288.789 7.06575 288.903 7.32339 288.921 7.59235C288.939 7.86226 288.98 8.13405 288.975 8.40302C288.97 8.67387 288.831 8.93434 288.803 9.20236C288.775 9.47132 288.74 9.73274 288.688 9.99698C288.635 10.2622 288.596 10.5245 288.519 10.7831C288.442 11.0417 288.343 11.2842 288.241 11.5334C288.041 11.908 288.477 12.2081 288.581 12.3667C288.698 12.5479 288.752 12.8433 288.898 13.1047C289.025 13.3302 289.282 13.5265 289.341 13.788C289.4 14.0522 289.283 14.3231 289.265 14.5684C289.246 14.8308 289.167 15.0601 289.081 15.2979C288.995 15.5424 288.898 15.7679 288.765 15.984C288.628 16.2086 288.53 16.4531 288.372 16.6437C288.196 16.8551 288.058 17.0872 287.89 17.2524C287.667 17.4742 287.469 17.6591 287.335 17.7884C287.131 17.9696 286.853 18.065 286.623 18.2093C286.393 18.3537 286.191 18.5623 285.941 18.6737C285.693 18.7841 285.419 18.8492 285.159 18.9313C284.9 19.0134 284.632 19.0842 284.367 19.1418C284.099 19.1993 283.823 19.2182 283.556 19.2559C283.282 19.2946 283.008 19.289 282.74 19.3107C282.463 19.3333 282.193 19.4183 281.93 19.4277C281.646 19.4371 281.371 19.3767 281.113 19.3767C280.991 19.3767 280.226 19.4088 279.91 19.389C279.718 19.3777 279.336 19.3182 278.944 19.306C278.585 19.2956 278.2 19.2333 277.962 19.3182C277.719 19.406 277.607 19.6495 277.476 19.8146C277.294 20.0468 277.172 20.2648 277.16 20.4054C277.138 20.6593 277.056 20.9009 277.082 21.1113C277.114 21.368 277.243 21.587 277.335 21.7767C277.445 22.0041 277.606 22.1759 277.785 22.3023C277.979 22.4392 278.216 22.5949 278.5 22.694C278.742 22.7789 279.007 22.8799 279.285 22.9337C279.547 22.9846 279.825 23.0328 280.098 23.0545C280.372 23.0762 280.656 23.0884 280.921 23.0781C281.341 23.063 281.814 23.0111 282.102 22.9931C282.367 22.9771 282.613 23.0082 282.797 23.18C282.978 23.3489 283.114 23.5886 283.143 23.85C283.174 24.1256 283.049 24.3757 282.876 24.5927C282.703 24.8089 282.486 24.9872 282.211 25.0174C281.994 25.042 281.778 25.0637 281.564 25.0759C281.345 25.0892 281.127 25.0882 280.913 25.0882C280.632 25.0882 280.357 25.042 280.084 25.0203C279.805 24.9986 279.522 25.0118 279.252 24.9665C278.977 24.9202 278.694 24.8966 278.427 24.8268C278.159 24.757 277.881 24.6928 277.619 24.5984C277.36 24.505 277.111 24.3644 276.857 24.2473C276.62 24.1369 276.456 23.9133 276.262 23.7443C276.069 23.5764 275.872 23.414 275.724 23.196C275.582 22.9884 275.452 22.7647 275.353 22.5175C275.26 22.2844 275.225 22.0277 275.172 21.7653C275.123 21.52 275.007 21.2727 274.994 21.0056C274.983 20.7555 274.97 20.4875 274.992 20.2223C275.013 19.9864 275.119 19.7335 275.21 19.4796ZM277.225 31.3225C277.287 31.096 277.402 30.8695 277.578 30.7336C277.755 30.5987 278.004 30.5515 278.238 30.5515C278.605 30.5515 278.962 30.8572 279.101 31.0979C279.239 31.3376 279.388 31.617 279.316 31.884C279.276 32.0331 279.153 32.3304 279.16 32.6928C279.166 32.9627 279.17 33.2581 279.185 33.5261C279.204 33.9055 279.19 34.2292 279.19 34.3547C279.19 34.7218 279.399 35.0238 279.491 35.2852C279.62 35.6439 279.757 35.8722 280.098 35.8722C280.471 35.8722 280.685 35.5438 280.669 34.988C280.656 34.5482 280.644 34.1735 280.641 33.8083C280.638 33.4884 280.518 33.1798 280.509 32.8551C280.499 32.555 280.568 32.2379 280.543 31.8944C280.529 31.7198 280.458 31.4914 280.435 31.2244C280.41 30.928 280.393 30.6506 280.373 30.391C280.349 30.0919 280.311 29.8163 280.293 29.5615C280.273 29.2548 280.275 28.9773 280.262 28.7291C280.246 28.4083 280.316 28.1336 280.315 27.8968C280.314 27.5476 280.322 27.2909 280.357 27.0785C280.415 26.7133 280.502 26.5463 280.674 26.3707C280.937 26.1018 281.195 25.9196 281.503 25.829C281.839 25.7309 282.181 25.6365 282.509 25.6365C282.607 25.6365 282.722 25.7724 282.935 25.7752C283.096 25.7752 283.309 25.6054 283.515 25.4402C283.667 25.3194 283.827 25.1637 283.952 24.9665C284.125 24.6928 284.18 24.3766 284.2 24.069C284.22 23.7453 284.257 23.3961 284.141 23.1186C284.009 22.8063 283.727 22.592 283.464 22.4571C283.248 22.3457 283.011 22.3089 282.757 22.2627C282.526 22.2202 282.291 22.0768 282.026 22.0654C281.792 22.056 281.541 22.0588 281.278 22.0588C281.011 22.0579 280.743 22.0824 280.469 22.0758C280.204 22.0683 279.939 22.0437 279.665 22.0173C279.403 21.9918 279.118 22.072 278.847 22.0173C278.575 21.9626 278.409 21.7078 278.256 21.4775C278.102 21.2463 277.907 20.9905 277.961 20.7187C278.011 20.4734 278.281 20.3158 278.521 20.1685C278.719 20.0477 278.949 20.0053 279.24 20.0005C279.565 19.9949 279.905 20.0119 280.256 20.0468C280.598 20.0798 280.95 20.0477 281.283 20.0487C281.563 20.0487 281.847 19.9892 282.129 19.9987C282.41 20.0081 282.699 20.0204 282.978 20.0562C283.257 20.093 283.519 20.2346 283.791 20.3148C284.056 20.3931 284.357 20.4158 284.611 20.5526C284.852 20.6829 285.072 20.899 285.276 21.1151C285.465 21.3142 285.642 21.553 285.79 21.8078C285.928 22.0475 286.023 22.3268 286.116 22.6024C286.206 22.8676 286.24 23.1536 286.28 23.4395C286.32 23.7179 286.405 24.0039 286.39 24.2908C286.375 24.5729 286.268 24.8485 286.195 25.1269C286.122 25.3978 286.069 25.6865 285.934 25.9432C285.801 26.1952 285.627 26.4547 285.429 26.7001C285.247 26.9257 284.981 27.0757 284.717 27.2503C284.483 27.4051 284.257 27.6401 283.939 27.7231C283.674 27.792 283.361 27.7797 283.026 27.7797C282.476 27.759 282.237 27.7307 282.246 28.4309C282.249 28.6121 282.336 28.9103 282.365 29.2586C282.388 29.5162 282.426 29.7993 282.453 30.0853C282.478 30.3684 282.465 30.6562 282.485 30.9158C282.511 31.2527 282.499 31.5452 282.498 31.7425C282.496 32.1171 282.501 32.4569 282.518 32.7777C282.536 33.1288 282.549 33.4591 282.553 33.8045C282.556 34.1358 282.575 34.5123 282.589 34.9313C282.594 35.1314 282.673 35.3824 282.65 35.658C282.63 35.8855 282.597 36.1337 282.516 36.3762C282.441 36.5951 282.288 36.7877 282.134 36.9925C281.987 37.1859 281.844 37.3992 281.633 37.5445C281.431 37.6833 281.2 37.8031 280.957 37.8796C280.724 37.9532 280.468 37.9871 280.211 37.9871C279.963 37.9871 279.712 37.9956 279.484 37.9503C279.237 37.9003 278.989 37.8314 278.782 37.7305C278.556 37.6191 278.351 37.4549 278.193 37.286C278.011 37.0925 277.841 36.8726 277.706 36.6423C277.573 36.4168 277.443 36.1695 277.357 35.9119C277.275 35.6665 277.323 35.3796 277.285 35.1078C277.25 34.853 277.216 34.5925 277.222 34.3179C277.225 34.0933 277.164 33.8206 277.138 33.5318C277.119 33.3034 277.2 33.0495 277.189 32.79C277.181 32.5512 277.079 32.304 277.1 32.052C277.119 31.8104 277.16 31.5641 277.225 31.3225Z" fill="#E0CEA0"/>
<line x1="45.6221" y1="8.5" x2="244.21" y2="8.5" stroke="#E0CEA0"/>
<line x1="9.5" y1="44.1304" x2="9.5" y2="159.526" stroke="#E0CEA0"/>
<line x1="282.5" y1="44.1304" x2="282.5" y2="159.526" stroke="#E0CEA0"/>
<line x1="45.6218" y1="196.596" x2="244.209" y2="196.596" stroke="#E0CEA0"/>
</svg>
