<svg width="74" height="75" viewBox="0 0 74 75" fill="none" xmlns="http://www.w3.org/2000/svg">
<path fill-rule="evenodd" clip-rule="evenodd" d="M15.2232 58.0623C14.6773 57.9252 14.1004 57.7935 13.8019 57.4406C13.4743 57.0547 13.3233 56.4385 13.4215 55.8917C13.5435 55.2133 13.922 54.736 14.3988 54.4397C14.7937 54.1929 15.3342 54.1161 16.0949 54.1984C16.6099 54.2532 17.0849 54.4489 17.3889 54.8055C17.7346 55.2133 17.8347 55.7674 17.8365 56.1715C17.8384 56.7018 17.498 57.287 16.9466 57.6929C16.4753 58.0385 15.8929 58.2306 15.2232 58.0623ZM14.2823 61.8385C14.8501 61.9811 15.3615 62.0927 15.8802 62.1183C16.4607 62.1475 17.0049 62.2426 17.5162 62.1274C18.0677 62.0049 18.5918 61.8129 19.0558 61.5276C19.5163 61.2442 19.862 60.809 20.226 60.3719C20.5627 59.9696 20.9449 59.5636 21.1924 59.0333C21.4144 58.5634 21.6109 58.0385 21.7583 57.4698C21.8657 57.0566 21.9058 56.6122 21.9058 56.1715C21.9058 55.6046 21.8566 54.9938 21.671 54.4178C21.4963 53.871 21.1851 53.3462 20.8575 52.8488C20.5409 52.3661 20.1059 51.9638 19.6582 51.5779C19.2233 51.2012 18.7938 50.7642 18.246 50.5246C17.731 50.2978 17.125 50.2594 16.519 50.1936C15.9584 50.1351 15.4216 50.0309 14.9211 50.0857C14.3661 50.1479 13.8419 50.3088 13.3651 50.4898C12.8501 50.6837 12.4625 51.0714 12.0439 51.3786C11.6053 51.6986 11.063 51.9071 10.7354 52.3185C10.4006 52.7409 10.204 53.2731 9.99292 53.7577C9.77636 54.2514 9.79092 54.8 9.71084 55.323C9.66171 55.6357 9.5143 55.9319 9.5143 56.2483C9.5143 56.806 9.56161 57.3437 9.69992 57.8465C9.84551 58.375 10.1276 58.8304 10.4115 59.282C10.6954 59.7337 11.0721 60.0848 11.4834 60.4469C11.8747 60.7925 12.3041 61.0577 12.801 61.3064C13.2614 61.5368 13.74 61.7013 14.2823 61.8385ZM8.21309 58.0513C8.08934 57.5119 8.01291 56.956 8.01291 56.3672C8.01291 55.8734 8.04203 55.3815 8.13484 54.8878C8.22401 54.405 8.46423 53.9698 8.64076 53.4943C8.83549 52.964 9.09027 52.4977 9.40147 52.0296C9.71448 51.5614 9.93832 51.0293 10.346 50.6398C10.75 50.2521 11.2941 50.0528 11.7727 49.7584C12.2514 49.4658 12.7082 49.1732 13.2396 48.9904C13.7691 48.8075 14.3005 48.6886 14.8592 48.6319C15.4125 48.5752 15.9621 48.5332 16.5171 48.6118C17.0686 48.6905 17.6309 48.7654 18.155 48.9593C18.6791 49.1549 19.1195 49.5225 19.5909 49.8187C20.0677 50.1186 20.5809 50.3673 20.974 50.7568C21.3762 51.1555 21.6419 51.6547 21.924 52.132C22.1897 52.58 22.4335 52.9933 22.61 53.4267C22.8011 53.8948 23.0887 54.3227 23.1797 54.7982C23.2707 55.2736 23.0868 55.7802 23.0868 56.2867C23.0868 56.678 23.1633 57.0822 23.1069 57.5137C23.0577 57.8977 23.1487 58.3366 23.0541 58.7627C22.934 59.304 22.6319 59.7831 22.4008 60.2457C22.1569 60.7303 21.833 61.1564 21.4817 61.5477C21.1269 61.9427 20.7611 62.3487 20.3116 62.6394C19.873 62.9229 19.398 63.2173 18.8848 63.3947C18.3971 63.5629 17.8566 63.7074 17.3124 63.775C16.8029 63.839 16.246 63.8701 15.6964 63.839C15.185 63.8098 14.6409 63.7055 14.104 63.5903C13.5271 63.4678 13.0157 63.1661 12.5098 62.9595C11.9675 62.7382 11.4797 62.4547 11.0248 62.1439C10.5443 61.8184 10.0457 61.5185 9.67262 61.1052C9.28863 60.681 9.04841 60.1488 8.78817 59.6423C8.52975 59.1449 8.34412 58.6164 8.21309 58.0513ZM5.69076 62.3249C5.97102 62.7656 6.20214 63.252 6.5461 63.6489C6.88641 64.042 7.28678 64.395 7.68533 64.7387C8.0766 65.077 8.58434 65.2654 9.02839 65.5525C9.46152 65.8323 9.80547 66.2913 10.2859 66.518C10.75 66.7393 11.2814 66.8417 11.7855 67.0099C12.2714 67.1727 12.8119 67.1453 13.3342 67.255C13.8601 67.3683 14.3533 67.5713 14.8665 67.6225C15.4016 67.6774 15.9257 67.7249 16.4425 67.7176C16.9794 67.7085 17.4944 67.5933 18.0076 67.5201C18.5372 67.4451 19.0285 67.2824 19.5272 67.1398C20.0422 66.9953 20.5136 66.8033 20.9885 66.5912C21.4744 66.3736 21.913 66.123 22.3534 65.8396C22.7993 65.5543 23.2215 65.2745 23.6146 64.9216C24.0077 64.5705 24.4663 64.2907 24.7993 63.8774C25.1287 63.4715 25.4454 63.0417 25.7111 62.5773C25.9695 62.1256 26.1042 61.6044 26.2953 61.1034C26.4809 60.6188 26.7339 60.1433 26.8521 59.6167C26.9795 59.0425 27.0833 58.4921 27.1488 57.9636C27.2198 57.3875 27.2398 56.828 27.2398 56.2867C27.2398 55.7271 27.1743 55.1804 27.1015 54.6446C27.025 54.0996 26.8885 53.5711 26.7339 53.0427C26.5828 52.5251 26.4572 51.9857 26.2279 51.4737C26.0114 50.9891 25.5928 50.5959 25.3034 50.1077C25.0268 49.645 24.8558 49.1147 24.5118 48.6978C24.1678 48.2845 23.8348 47.8438 23.4326 47.4817C23.0341 47.1215 22.4663 46.9807 22.0186 46.6771C21.5727 46.3754 21.1269 46.1066 20.6446 45.867C20.1623 45.6275 19.6964 45.3806 19.1869 45.2069C18.6773 45.0331 18.1641 44.9179 17.6382 44.8155C17.1086 44.7131 16.6008 44.4187 16.064 44.3913C15.5271 44.3639 14.9957 44.6253 14.4607 44.6802C13.9256 44.7351 13.3433 44.5376 12.8246 44.6692C12.306 44.8009 11.871 45.2197 11.376 45.4226C10.881 45.6256 10.4333 45.8999 9.96926 46.1687C9.5052 46.4375 9.05751 46.7045 8.63348 47.0319C8.20763 47.361 7.72537 47.6152 7.34866 47.9974C6.97013 48.3796 6.52426 48.7197 6.20214 49.1494C5.88003 49.5792 5.56701 50.0418 5.30859 50.5136C5.05017 50.9836 4.97919 51.5541 4.79175 52.0588C4.62068 52.5233 4.30766 52.9476 4.19119 53.4194C4.07472 53.8985 4.04924 54.4068 3.98919 54.8896C3.92913 55.3778 3.89819 55.8771 3.89819 56.3672C3.89819 56.9011 3.98919 57.4296 4.05652 57.9398C4.12568 58.4664 4.29674 58.9675 4.43505 59.4649C4.577 59.9751 4.62796 60.5182 4.83906 60.9937C5.05199 61.4746 5.4105 61.8842 5.69076 62.3249ZM14.5699 0.190834C14.0603 0.300552 13.5216 0.333473 13.0885 0.587662C12.6536 0.840012 12.2095 1.1582 11.8619 1.54953C11.5307 1.9244 11.3269 2.41265 11.1085 2.85336C10.8883 3.29955 10.8028 3.79877 10.6772 4.27239C10.5462 4.76247 10.4406 5.24524 10.386 5.72252C10.3278 6.24551 10.204 6.74657 10.204 7.20007C10.204 7.61884 10.2914 8.04858 10.326 8.48014C10.3624 8.90621 10.528 9.31583 10.5971 9.73093C10.6645 10.1296 10.7391 10.7842 10.7718 11.5194C10.7955 12.0808 10.8282 12.7007 10.841 13.3041C10.8537 13.9387 10.5935 14.5659 10.6044 15.0907C10.6171 15.7984 10.9902 16.1331 11.214 16.4165C11.5198 16.8023 11.8856 16.8572 12.4497 16.9395C12.9957 17.0181 13.558 17.0803 13.9675 16.7731C14.377 16.4641 14.5517 15.9136 14.6299 15.3669C14.69 14.9481 14.8501 14.4013 14.8501 13.7247C14.8501 13.242 14.6809 12.7171 14.6518 12.1795C14.6245 11.6602 14.7701 11.1189 14.7227 10.6178C14.6682 10.0546 14.6245 9.51515 14.5499 9.07079C14.4479 8.45271 14.3661 7.81816 14.3661 7.19642C14.3661 6.66062 14.4188 6.25283 14.4989 5.89625C14.6172 5.36227 14.821 5.05324 15.0485 4.75333C15.3579 4.34189 16.3806 4.13342 16.8902 4.80637C17.0959 5.07883 17.1887 5.71886 17.2487 6.40461C17.2942 6.92578 17.236 7.50181 17.2396 8.01932C17.2433 8.79101 17.4161 9.43469 17.4234 9.62488C17.4434 10.0948 17.2633 10.6489 17.276 11.2213C17.2869 11.7425 17.3015 12.2837 17.307 12.8122C17.3124 13.3736 17.2469 13.9186 17.2469 14.4013C17.2487 15.1236 17.3252 15.7033 17.3142 15.9886C17.2888 16.7383 17.3179 16.945 17.3179 18.2927C17.3179 18.8029 16.9011 19.0187 16.5754 19.2399C16.1805 19.5033 15.7564 19.7885 15.4452 19.7593C15.1923 19.7373 14.963 19.7319 14.7355 19.7337C14.2223 19.7373 13.72 19.7319 13.2559 19.6642C12.75 19.5892 12.1495 19.1705 11.4961 19.2143C10.9465 19.2509 10.3551 19.5069 9.77818 19.816C9.31593 20.0647 9.01383 20.5877 8.57343 21.1125C8.16578 21.6007 7.86004 22.1219 7.6453 22.7528C7.43601 23.3617 7.10844 23.9652 7.10844 24.6253C7.10844 24.8338 7.2795 25.0313 7.30134 25.2361C7.35048 25.675 7.35594 26.2053 7.57432 26.7484C7.75085 27.1855 8.00927 27.6335 8.35686 28.0778C8.64804 28.4509 8.99018 28.8422 9.43604 29.186C9.93105 29.5664 10.4988 29.762 11.1049 29.8937C11.6581 30.0126 12.2587 29.901 12.912 29.8992C13.4798 29.8992 14.0785 29.8827 14.7246 29.8516C15.256 29.8242 15.8638 29.8096 16.4971 29.795C16.9739 29.7822 17.4325 30.0272 17.7 30.2869C17.8966 30.4789 17.9293 30.8629 17.9112 31.4097C17.8984 31.8686 17.9475 32.3039 17.7383 32.452C17.6273 32.5306 17.3434 32.4904 16.7301 32.5471C16.175 32.6001 15.3633 32.4758 14.5025 32.3185C13.9002 32.2088 13.2669 32.0223 12.6135 31.9619C11.9766 31.9016 11.3487 32.0844 10.7209 32.1941C10.0912 32.302 9.52158 32.3039 9.06661 32.5123C8.49153 32.7738 7.98561 33.0664 7.63438 33.4431C7.22491 33.8783 7.15029 34.4873 6.95739 34.9993C6.75174 35.5461 6.64255 36.08 6.5734 36.6177C6.51334 37.0876 6.43691 37.4881 6.43691 37.8758C6.43691 38.4683 6.5279 38.9858 6.67167 39.485C6.83 40.0391 6.87185 40.6371 7.19761 41.0686C7.52336 41.502 8.0948 41.6885 8.58071 41.9884C9.02475 42.2609 9.42148 42.751 9.98928 42.9028C10.4897 43.0362 11.0939 42.8241 11.7309 42.826C12.2477 42.8278 12.8101 42.751 13.4361 42.7217C13.9329 42.6961 14.4752 42.6998 15.0376 42.687C15.5562 42.676 16.0967 42.8077 16.6372 42.8333C17.1686 42.8589 17.6837 43.0234 18.206 43.1094C18.7228 43.1935 19.2033 43.3197 19.6928 43.4733C20.1842 43.6269 20.7192 43.6543 21.1869 43.8829C21.6437 44.106 21.9967 44.5138 22.4335 44.81C22.8521 45.0917 23.2907 45.3458 23.6929 45.6969C24.0714 46.0261 24.4354 46.3809 24.803 46.7704C25.1451 47.1361 25.5236 47.4872 25.8603 47.906C26.146 48.2625 26.4718 48.6758 26.7175 49.1933C26.9268 49.6286 26.9905 50.1607 27.1615 50.6819C27.318 51.1537 27.5765 51.6163 27.6984 52.1375C27.8149 52.6312 27.8112 53.1597 27.8913 53.679C27.9695 54.1856 28.0624 54.6939 28.1042 55.2114C28.1461 55.729 28.3208 56.2446 28.3208 56.7585C28.3208 57.276 28.0678 57.7679 28.0278 58.2543C27.9841 58.7737 28.0205 59.2784 27.9313 59.7538C27.8349 60.2713 27.8731 60.809 27.7257 61.2625C27.5619 61.769 27.2471 62.1987 27.025 62.6138C26.7721 63.0875 26.4591 63.4861 26.1333 63.8226C25.773 64.1993 25.6456 64.6985 25.6456 65.2215C25.6456 65.761 25.8876 66.1962 26.2752 66.5747C26.6702 66.9587 27.0942 67.0904 27.6074 67.0831C28.1188 67.0739 28.5173 66.9057 28.8995 66.507C29.2416 66.1505 29.571 65.7975 29.8604 65.3678C30.137 64.96 30.5064 64.5979 30.7339 64.1316C30.9505 63.6891 31.1616 63.2246 31.3327 62.7327C31.4946 62.2682 31.5365 61.7525 31.6548 61.246C31.7694 60.7669 31.9678 60.2896 32.0424 59.7758C32.1134 59.2857 32.1771 58.7792 32.2116 58.2616C32.2462 57.7661 32.248 57.2559 32.248 56.7402C32.248 56.166 32.0988 55.5991 32.0588 55.0304C32.0187 54.4544 32.0406 53.8802 31.9605 53.3188C31.8786 52.7446 31.8076 52.174 31.6893 51.6236C31.5656 51.0531 31.4491 50.4862 31.289 49.9504C31.1179 49.3872 31.0069 48.8093 30.7994 48.2973C30.5756 47.745 30.3354 47.2056 30.0697 46.7265C29.7785 46.198 29.198 45.8999 28.8631 45.4793C28.5337 45.0697 28.4664 44.4535 28.1297 44.0841C27.7785 43.6964 27.3726 43.3654 27.0105 43.0216C26.6319 42.6614 26.1078 42.484 25.7184 42.1713C25.3125 41.8476 24.9777 41.4417 24.5573 41.1674C24.1242 40.8839 23.7256 40.5383 23.2761 40.3079C22.8193 40.0738 22.3407 39.8617 21.8657 39.6788C21.3907 39.496 20.8793 39.3917 20.3825 39.2582C19.8948 39.1284 19.3725 39.1266 18.8629 39.0443C18.2314 38.9401 17.6182 38.7352 17.0067 38.7005C16.3624 38.6658 15.7273 38.7883 15.1268 38.7974C14.4607 38.8102 13.8274 38.7572 13.2468 38.7846C12.2368 38.8322 11.5944 38.8121 11.2814 38.7371C10.6171 38.5579 10.0967 38.3147 10.1258 37.4497C10.1531 36.6744 10.5589 36.4458 10.7063 36.3415C10.8847 36.2135 11.0375 36.102 11.4652 36.027C12.0384 35.9283 12.9429 36.0215 13.8092 36.1806C14.3315 36.2757 14.8938 36.2849 15.4598 36.3489C16.0149 36.411 16.5481 36.4805 17.094 36.4275C17.6291 36.3781 18.1823 36.3799 18.7155 36.2337C19.2433 36.0892 19.7638 35.9173 20.2151 35.5936C20.6373 35.2919 21.1487 34.9737 21.4417 34.4489C21.6801 34.021 21.8257 33.4504 21.9422 32.8342C22.035 32.3532 21.9967 31.7882 21.9967 31.1701C21.9967 30.638 21.9967 30.1735 21.9149 29.7767C21.8093 29.272 21.62 28.8495 21.3926 28.4783C21.1578 28.0961 20.7702 27.8383 20.4171 27.4927C20.0622 27.1489 19.7692 26.6917 19.327 26.4577C18.8939 26.2291 18.3479 26.2547 17.8584 26.1431C17.3816 26.0352 16.9029 25.7189 16.3988 25.7317C15.7018 25.7481 15.043 25.7829 14.5171 25.8085C14.033 25.8323 13.5999 26.1962 13.2141 26.2016C12.6062 26.209 12.1112 26.1504 11.8692 26.0938C11.4215 25.9895 11.0484 25.5214 11.0466 24.8064C11.0448 24.2212 11.2723 23.7256 11.5962 23.6049C11.689 23.5702 11.942 23.4934 12.7882 23.5757C13.8529 23.6799 13.942 23.6379 15.0922 23.7348C15.5271 23.7732 16.1077 23.6836 16.7446 23.6507C17.2633 23.6232 17.8438 23.6872 18.3916 23.4934C18.8848 23.3179 19.3397 22.985 19.7802 22.59C20.155 22.2517 20.5754 21.7489 20.8666 21.0028C21.0668 20.4853 21.1378 19.858 21.1542 19.0955C21.1669 18.5487 21.196 18.0733 21.2069 17.6508C21.2233 17.0876 21.3398 16.6231 21.3525 16.2099C21.3944 15.0048 21.307 14.6043 21.307 13.796C21.307 13.3718 21.2288 12.9091 21.2142 12.3551C21.2033 11.9308 21.4017 11.448 21.3816 10.9031C21.3653 10.4697 21.4435 9.98695 21.4217 9.45298C21.3998 8.96656 21.1814 8.50391 21.1687 8.05222C21.1542 7.54021 21.2306 7.01538 21.2015 6.49604C21.1742 5.97488 21.1996 5.44091 21.1305 4.9362C21.0577 4.40955 20.9922 3.86643 20.8448 3.3855C20.6901 2.87713 20.408 2.39619 20.135 1.97012C19.8584 1.54038 19.3743 1.28986 18.9394 0.98082C18.5499 0.704689 18.1386 0.419418 17.5945 0.263985C17.145 0.135979 16.6427 0.0354004 16.0731 0.00431061C15.5399 -0.0231171 15.0467 0.0884323 14.5699 0.190834ZM37.5639 46.8344C37.1216 46.9935 36.714 47.2879 36.2845 47.5603C35.8805 47.8145 35.4874 48.098 35.1307 48.4546C34.7922 48.7929 34.3991 49.1184 34.1316 49.5481C33.8823 49.9504 33.7258 50.4332 33.5638 50.9178C33.431 51.3109 33.4528 51.7772 33.3964 52.3148C33.3527 52.7336 33.3636 53.1889 33.3636 53.7193C33.3636 54.0027 33.3982 54.5696 33.4237 55.2151C33.4437 55.7052 33.198 56.2483 33.218 56.7274C33.2526 57.5082 33.5565 58.1391 33.5565 58.2251C33.5565 58.7371 33.5256 59.2893 33.5056 59.8599C33.4855 60.3884 33.2199 60.9205 33.1671 61.4728C33.1161 62.0104 33.2035 62.5736 33.1107 63.1094C33.016 63.6507 32.7685 64.1554 32.6175 64.6656C32.461 65.2014 32.4118 65.7719 32.1771 66.2437C31.9296 66.7466 31.4837 67.0995 31.1343 67.4964C31.0506 67.5896 30.4828 68.14 29.8021 68.7142C29.3235 69.1202 28.8231 69.5353 28.3499 69.7694C28.0842 69.9029 27.4636 69.9303 26.9613 69.5591C26.5337 69.2427 26.2243 68.983 25.9277 68.7691C25.5801 68.5186 25.1488 68.4619 24.7757 68.1474C24.0969 67.6116 23.5709 67.3939 23.0031 67.5494C22.9813 67.5549 21.9967 67.9005 21.8457 67.9864C21.4362 68.2223 21.0377 68.6118 20.5299 68.7837C20.0732 68.9392 19.5236 68.8806 19.0067 68.9831C18.5263 69.0781 18.0258 69.1568 17.5108 69.2043C17.0158 69.2519 16.5117 69.2061 15.9985 69.208C15.498 69.2098 14.9921 69.2738 14.4843 69.2317C13.9821 69.1915 13.4652 69.2189 12.9666 69.1348C12.4661 69.0489 12.0239 68.7124 11.5398 68.5826C11.0466 68.4491 10.497 68.5113 10.0348 68.3284C9.58709 68.1528 9.09391 67.9444 8.61164 67.6719C8.18034 67.4305 7.69079 67.191 7.26312 66.8582C6.86639 66.5509 6.70261 65.9585 6.33317 65.5653C5.98922 65.1996 5.57975 64.885 5.27947 64.437C4.99921 64.0219 4.54061 63.6726 4.3113 63.1807C4.10202 62.729 3.92185 62.2152 3.76534 61.6922C3.60702 61.1619 3.43049 60.6389 2.97734 60.3957C2.52784 60.1525 1.97642 60.2311 1.44866 60.3902C1.02281 60.52 0.631538 60.6828 0.382216 61.0211C0.134715 61.3576 4.49319e-05 61.7818 4.49319e-05 62.2262C4.49319e-05 62.4237 -0.00359471 62.6285 0.054641 62.8168C0.211149 63.3416 0.429533 63.8409 0.636997 64.3328C0.848102 64.8357 1.21753 65.2471 1.47959 65.7134C1.7453 66.1889 2.01645 66.6369 2.33311 67.0703C2.65159 67.5073 2.9737 67.9224 3.34132 68.3174C3.70893 68.7106 4.03468 69.1367 4.44779 69.4878C4.85726 69.8334 5.20486 70.2759 5.658 70.5776C6.10205 70.8739 6.69351 70.9251 7.17759 71.1793C7.64894 71.4243 8.0675 71.7882 8.57525 71.993C9.05933 72.1869 9.55797 72.3386 10.0548 72.4941C10.5516 72.6495 11.0375 72.8543 11.5453 72.9695C12.053 73.0866 12.5953 72.9951 13.1103 73.0701C13.6254 73.1469 14.1222 73.3682 14.6409 73.4029C15.1613 73.4377 15.6855 73.5163 16.2041 73.5071C16.7264 73.498 17.2287 73.2292 17.7455 73.1743C18.2642 73.1195 18.7683 73.0518 19.2779 72.9512C19.7893 72.8488 20.2952 72.7739 20.7938 72.6239C21.2925 72.474 21.7602 72.2838 22.2406 72.0845C22.9631 71.6986 23.5418 72.5434 23.8475 72.7446C24.197 72.9713 24.7666 73.0756 25.2707 73.359C25.7056 73.6041 26.0842 74.1033 26.5883 74.2167C27.0978 74.3319 27.6201 74.1051 28.0933 74.0704C28.5992 74.032 29.0414 73.8802 29.5 73.7138C29.9714 73.5455 30.4063 73.359 30.8231 73.1012C31.2562 72.836 31.7276 72.6458 32.0952 72.3386C32.5028 71.9985 32.9505 71.7315 33.269 71.406C33.6967 70.9726 34.0533 70.5886 34.3027 70.3289C34.6521 69.934 34.8359 69.3963 35.1143 68.9501C35.3928 68.5039 35.795 68.1126 36.0097 67.628C36.2226 67.1489 36.3482 66.6168 36.5065 66.1139C36.6649 65.611 36.8013 65.0917 36.9124 64.5778C37.0234 64.0585 37.0598 63.5245 37.1326 63.007C37.2072 62.4767 37.1963 61.9446 37.2381 61.427C37.2818 60.8894 37.4456 60.3664 37.4638 59.8562C37.482 59.3058 37.3655 58.7737 37.3655 58.2726C37.3655 58.0367 37.4274 56.5555 37.3892 55.9429C37.3673 55.5699 37.2527 54.8311 37.229 54.0704C37.209 53.3755 37.0889 52.6294 37.2527 52.1686C37.4219 51.6968 37.8914 51.4792 38.2099 51.2268C38.6576 50.8739 39.078 50.638 39.3492 50.6142C39.8387 50.5721 40.3046 50.413 40.7104 50.4624C41.2054 50.5246 41.6276 50.7751 41.9934 50.9525C42.432 51.1665 42.7632 51.4773 43.0071 51.8248C43.271 52.2015 43.5712 52.6605 43.7623 53.2109C43.9261 53.679 44.1208 54.1929 44.2246 54.7323C44.3228 55.2389 44.4157 55.7783 44.4575 56.3068C44.4994 56.8371 44.523 57.3875 44.503 57.9014C44.4739 58.7151 44.3738 59.6313 44.3392 60.189C44.3083 60.7029 44.3683 61.1802 44.6996 61.5368C45.0253 61.8879 45.4876 62.1512 45.9917 62.2061C46.5231 62.2664 47.0053 62.025 47.4239 61.6904C47.8406 61.3539 48.1846 60.9333 48.2428 60.4012C48.2901 59.9806 48.332 59.5618 48.3557 59.1467C48.3811 58.7225 48.3793 58.3 48.3793 57.8868C48.3793 57.3418 48.2901 56.8079 48.2483 56.2794C48.2064 55.7381 48.2319 55.1913 48.1446 54.6665C48.0554 54.1344 48.0099 53.5858 47.8752 53.0683C47.7405 52.5489 47.6168 52.0113 47.4348 51.5029C47.2546 51.0019 46.9835 50.5191 46.7578 50.0272C46.5449 49.5682 46.1136 49.25 45.7878 48.8733C45.4639 48.5003 45.1509 48.1181 44.7305 47.831C44.3301 47.5567 43.8988 47.3043 43.422 47.1123C42.9725 46.9313 42.4775 46.8636 41.9716 46.7612C41.4984 46.6661 41.0216 46.4412 40.5066 46.4174C40.0243 46.3955 39.5075 46.3699 38.9961 46.4138C38.5411 46.454 38.0534 46.6588 37.5639 46.8344ZM60.4013 50.7404C59.9646 50.8592 59.5278 51.0823 59.2658 51.4243C59.0055 51.7663 58.9145 52.249 58.9145 52.7025C58.9145 53.4139 59.5042 54.1051 59.9682 54.3739C60.4305 54.6427 60.9691 54.9317 61.4842 54.7909C61.7717 54.714 62.345 54.4763 63.0438 54.4891C63.5643 54.5001 64.1339 54.5092 64.6507 54.5367C65.3823 54.5751 66.0065 54.5476 66.2486 54.5476C66.9565 54.5476 67.5388 54.9518 68.043 55.131C68.7345 55.3797 69.1749 55.6467 69.1749 56.3068C69.1749 57.0291 68.5416 57.4442 67.4697 57.4131C66.6216 57.3875 65.8992 57.3638 65.1949 57.3583C64.5779 57.3528 63.9828 57.1206 63.3568 57.1023C62.7781 57.084 62.1666 57.2175 61.5042 57.1681C61.1675 57.1425 60.7271 57.0035 60.2121 56.9596C59.6406 56.9121 59.1056 56.8792 58.6051 56.8389C58.0282 56.7932 57.4968 56.7201 57.0055 56.6853C56.414 56.6451 55.879 56.6488 55.4004 56.625C54.7816 56.5939 54.252 56.7292 53.7952 56.7274C53.1219 56.7256 52.6269 56.7402 52.2174 56.8079C51.5131 56.9212 51.191 57.0895 50.8525 57.4223C50.3339 57.9325 49.9826 58.4317 49.8079 59.0297C49.6186 59.6807 49.4367 60.3427 49.4367 60.979C49.4367 61.1692 49.6987 61.3905 49.7042 61.8037C49.7042 62.1164 49.3766 62.5279 49.0581 62.9284C48.8252 63.2228 48.5249 63.5318 48.1446 63.775C47.6168 64.1097 47.0071 64.2157 46.4139 64.2541C45.7896 64.2944 45.1163 64.3657 44.5813 64.1408C43.9789 63.8848 43.5658 63.338 43.3055 62.8296C43.0908 62.4109 43.0198 61.9519 42.9306 61.4581C42.8488 61.0119 42.5721 60.5566 42.5503 60.0428C42.5321 59.5892 42.5376 59.1028 42.5376 58.5926C42.5357 58.0751 42.5831 57.5558 42.5703 57.0255C42.5558 56.5116 42.5084 55.9978 42.4575 55.4675C42.4083 54.9591 42.563 54.4087 42.4575 53.882C42.3519 53.3554 41.8606 53.0335 41.4165 52.7373C40.9707 52.4392 40.4775 52.0607 39.9534 52.1667C39.4802 52.2618 39.1763 52.7866 38.8924 53.2511C38.6594 53.6351 38.5775 54.0795 38.5684 54.6446C38.5575 55.2736 38.5903 55.9319 38.6576 56.6122C38.7213 57.276 38.6594 57.9581 38.6612 58.6036C38.6612 59.1449 38.5466 59.6953 38.5648 60.2421C38.583 60.787 38.6067 61.3466 38.6758 61.8879C38.7468 62.4273 39.0198 62.9357 39.1744 63.4623C39.3255 63.9762 39.3692 64.5595 39.6331 65.0514C39.8842 65.5177 40.3009 65.9438 40.7177 66.3406C41.1017 66.7064 41.5621 67.0483 42.0535 67.3354C42.5157 67.6042 43.0544 67.7871 43.5858 67.9681C44.0972 68.1419 44.6486 68.2077 45.2 68.2863C45.7369 68.3631 46.2883 68.5277 46.8415 68.4985C47.3857 68.4692 47.9171 68.2626 48.4539 68.1199C48.9762 67.9791 49.5331 67.8767 50.0281 67.6152C50.514 67.3574 51.0145 67.0209 51.4876 66.6369C51.9226 66.284 52.212 65.7683 52.5486 65.2562C52.8471 64.8027 53.3002 64.3657 53.4604 63.7494C53.5932 63.2356 53.5696 62.6285 53.5696 61.9793C53.5295 60.915 53.4749 60.4505 54.8253 60.4688C55.1747 60.4743 55.7498 60.6425 56.4213 60.6992C56.9181 60.7431 57.4641 60.8181 58.0155 60.8693C58.5615 60.9187 59.1165 60.8931 59.617 60.9315C60.2667 60.9827 60.8308 60.9589 61.2112 60.9571C61.9337 60.9534 62.5888 60.9626 63.2076 60.9955C63.8846 61.0302 64.5215 61.0558 65.1876 61.0631C65.8264 61.0686 66.5525 61.107 67.3605 61.1326C67.7463 61.1436 68.2304 61.2972 68.7618 61.2515C69.2004 61.2131 69.679 61.1491 70.1467 60.9918C70.5689 60.8474 70.9402 60.5511 71.3351 60.2512C71.7082 59.9678 72.1195 59.6898 72.3997 59.2802C72.6672 58.8889 72.8984 58.4427 73.0458 57.9709C73.1877 57.5192 73.2532 57.0236 73.2532 56.5262C73.2532 56.0453 73.2696 55.5589 73.1823 55.1164C73.0858 54.6391 72.9529 54.1581 72.7582 53.7577C72.5435 53.3188 72.2268 52.922 71.9011 52.6147C71.528 52.2618 71.104 51.9327 70.6599 51.6712C70.225 51.4133 69.7482 51.1628 69.2514 50.9964C68.7782 50.8373 68.2249 50.9287 67.7008 50.8556C67.2095 50.7879 66.7072 50.7221 66.1776 50.7331C65.7445 50.7404 65.2185 50.6215 64.6616 50.5721C64.2212 50.5337 63.7317 50.691 63.2312 50.6709C62.7708 50.6544 62.294 50.4569 61.8081 50.4972C61.3422 50.5337 60.8672 50.6142 60.4013 50.7404Z" fill="#E0CEA0"/>
</svg>
