<svg width="74" height="75" viewBox="0 0 74 75" fill="none" xmlns="http://www.w3.org/2000/svg">
<path fill-rule="evenodd" clip-rule="evenodd" d="M15.2232 58.0622C14.6773 57.925 14.1004 57.7934 13.8019 57.4405C13.4743 57.0546 13.3233 56.4383 13.4215 55.8916C13.5435 55.2131 13.922 54.7359 14.3988 54.4396C14.7937 54.1928 15.3342 54.116 16.0949 54.1982C16.6099 54.2531 17.0849 54.4488 17.3889 54.8054C17.7346 55.2131 17.8347 55.7672 17.8365 56.1714C17.8384 56.7017 17.498 57.2868 16.9466 57.6928C16.4753 58.0384 15.8929 58.2304 15.2232 58.0622ZM14.2823 61.8384C14.8501 61.981 15.3615 62.0926 15.8802 62.1182C16.4607 62.1474 17.0049 62.2425 17.5162 62.1273C18.0677 62.0048 18.5918 61.8128 19.0558 61.5275C19.5163 61.2441 19.862 60.8088 20.226 60.3718C20.5627 59.9695 20.9449 59.5635 21.1924 59.0332C21.4144 58.5632 21.6109 58.0384 21.7583 57.4697C21.8657 57.0564 21.9058 56.6121 21.9058 56.1714C21.9058 55.6045 21.8566 54.9937 21.671 54.4177C21.4963 53.8709 21.1851 53.3461 20.8575 52.8487C20.5409 52.3659 20.1059 51.9636 19.6582 51.5778C19.2233 51.2011 18.7938 50.764 18.246 50.5245C17.731 50.2977 17.125 50.2593 16.519 50.1935C15.9584 50.135 15.4216 50.0307 14.9211 50.0856C14.3661 50.1478 13.8419 50.3087 13.3651 50.4897C12.8501 50.6836 12.4625 51.0712 12.0439 51.3785C11.6053 51.6985 11.063 51.9069 10.7354 52.3184C10.4006 52.7408 10.204 53.2729 9.99292 53.7575C9.77636 54.2513 9.79092 54.7999 9.71084 55.3229C9.66171 55.6356 9.5143 55.9318 9.5143 56.2482C9.5143 56.8059 9.56161 57.3435 9.69992 57.8464C9.84551 58.3749 10.1276 58.8302 10.4115 59.2819C10.6954 59.7336 11.0721 60.0847 11.4834 60.4468C11.8747 60.7924 12.3041 61.0575 12.801 61.3062C13.2614 61.5366 13.74 61.7012 14.2823 61.8384ZM8.21309 58.0512C8.08934 57.5118 8.01291 56.9559 8.01291 56.367C8.01291 55.8733 8.04203 55.3814 8.13484 54.8876C8.22401 54.4049 8.46423 53.9697 8.64076 53.4942C8.83549 52.9639 9.09027 52.4976 9.40147 52.0295C9.71448 51.5613 9.93833 51.0292 10.346 50.6397C10.75 50.252 11.2941 50.0527 11.7727 49.7583C12.2514 49.4657 12.7082 49.1731 13.2396 48.9902C13.7691 48.8074 14.3005 48.6885 14.8592 48.6318C15.4125 48.5751 15.9621 48.5331 16.5171 48.6117C17.0686 48.6903 17.6309 48.7653 18.155 48.9591C18.6791 49.1548 19.1195 49.5224 19.5909 49.8186C20.0677 50.1185 20.5809 50.3672 20.974 50.7567C21.3762 51.1554 21.6419 51.6546 21.924 52.1319C22.1897 52.5799 22.4335 52.9932 22.61 53.4266C22.8011 53.8947 23.0887 54.3226 23.1797 54.798C23.2707 55.2735 23.0868 55.78 23.0868 56.2866C23.0868 56.6779 23.1633 57.082 23.1069 57.5136C23.0577 57.8976 23.1487 58.3365 23.0541 58.7626C22.934 59.3039 22.6319 59.783 22.4008 60.2456C22.1569 60.7302 21.833 61.1563 21.4817 61.5476C21.1269 61.9426 20.7611 62.3486 20.3116 62.6393C19.873 62.9228 19.398 63.2172 18.8848 63.3946C18.3971 63.5628 17.8566 63.7073 17.3124 63.7749C16.8029 63.8389 16.246 63.87 15.6964 63.8389C15.185 63.8097 14.6409 63.7054 14.104 63.5902C13.5271 63.4677 13.0157 63.166 12.5098 62.9593C11.9675 62.7381 11.4797 62.4546 11.0248 62.1438C10.5443 61.8183 10.0457 61.5184 9.67262 61.1051C9.28863 60.6808 9.04841 60.1487 8.78817 59.6422C8.52975 59.1448 8.34412 58.6163 8.21309 58.0512ZM5.69076 62.3248C5.97102 62.7655 6.20214 63.2519 6.5461 63.6487C6.88641 64.0419 7.28678 64.3948 7.68533 64.7386C8.0766 65.0769 8.58435 65.2653 9.02839 65.5524C9.46152 65.8322 9.80547 66.2911 10.2859 66.5179C10.75 66.7392 11.2814 66.8416 11.7855 67.0098C12.2714 67.1726 12.8119 67.1451 13.3342 67.2548C13.8601 67.3682 14.3533 67.5712 14.8665 67.6224C15.4016 67.6773 15.9257 67.7248 16.4425 67.7175C16.9794 67.7084 17.4944 67.5931 18.0076 67.52C18.5372 67.445 19.0285 67.2823 19.5272 67.1396C20.0422 66.9952 20.5136 66.8032 20.9885 66.591C21.4744 66.3734 21.913 66.1229 22.3534 65.8395C22.7993 65.5542 23.2215 65.2744 23.6146 64.9215C24.0077 64.5704 24.4663 64.2906 24.7993 63.8773C25.1287 63.4714 25.4454 63.0416 25.7111 62.5771C25.9695 62.1255 26.1042 61.6043 26.2953 61.1032C26.4809 60.6187 26.7339 60.1432 26.8521 59.6166C26.9795 59.0424 27.0833 58.4919 27.1488 57.9634C27.2198 57.3874 27.2398 56.8279 27.2398 56.2866C27.2398 55.727 27.1743 55.1802 27.1015 54.6444C27.025 54.0995 26.8885 53.571 26.7339 53.0425C26.5828 52.525 26.4572 51.9856 26.2279 51.4735C26.0114 50.989 25.5928 50.5958 25.3034 50.1075C25.0268 49.6449 24.8558 49.1146 24.5118 48.6976C24.1678 48.2844 23.8348 47.8437 23.4326 47.4816C23.0341 47.1213 22.4663 46.9805 22.0186 46.677C21.5727 46.3753 21.1269 46.1064 20.6446 45.8669C20.1623 45.6273 19.6964 45.3805 19.1869 45.2067C18.6773 45.033 18.1641 44.9178 17.6382 44.8154C17.1086 44.713 16.6008 44.4186 16.064 44.3912C15.5271 44.3637 14.9957 44.6252 14.4607 44.6801C13.9256 44.7349 13.3433 44.5375 12.8246 44.6691C12.306 44.8008 11.871 45.2195 11.376 45.4225C10.881 45.6255 10.4333 45.8998 9.96926 46.1686C9.5052 46.4374 9.05751 46.7044 8.63348 47.0317C8.20763 47.3609 7.72537 47.6151 7.34866 47.9973C6.97013 48.3795 6.52426 48.7196 6.20214 49.1493C5.88003 49.5791 5.56701 50.0417 5.30859 50.5135C5.05017 50.9835 4.97919 51.554 4.79175 52.0587C4.62068 52.5232 4.30766 52.9474 4.19119 53.4192C4.07472 53.8983 4.04924 54.4067 3.98919 54.8895C3.92913 55.3777 3.89819 55.877 3.89819 56.367C3.89819 56.901 3.98919 57.4295 4.05652 57.9397C4.12568 58.4663 4.29674 58.9674 4.43505 59.4648C4.577 59.975 4.62796 60.5181 4.83906 60.9935C5.05199 61.4745 5.4105 61.8841 5.69076 62.3248ZM14.5699 0.190714C14.0603 0.300433 13.5216 0.333353 13.0885 0.587536C12.6536 0.839891 12.2095 1.15807 11.8619 1.5494C11.5307 1.92428 11.3269 2.41253 11.1085 2.85324C10.8883 3.29943 10.8028 3.79865 10.6772 4.27227C10.5462 4.76235 10.4406 5.24512 10.386 5.7224C10.3278 6.24539 10.204 6.74645 10.204 7.19995C10.204 7.61872 10.2914 8.04845 10.326 8.48002C10.3624 8.90609 10.528 9.31571 10.5971 9.73081C10.6645 10.1295 10.7391 10.7841 10.7718 11.5192C10.7955 12.0806 10.8282 12.7006 10.841 13.304C10.8537 13.9386 10.5935 14.5658 10.6044 15.0906C10.6171 15.7983 10.9902 16.1329 11.214 16.4164C11.5198 16.8022 11.8856 16.8571 12.4497 16.9394C12.9957 17.018 13.558 17.0802 13.9675 16.773C14.377 16.4639 14.5517 15.9135 14.6299 15.3667C14.69 14.948 14.8501 14.4012 14.8501 13.7246C14.8501 13.2418 14.6809 12.717 14.6518 12.1794C14.6245 11.66 14.7701 11.1188 14.7227 10.6177C14.6682 10.0545 14.6245 9.51503 14.5499 9.07067C14.4479 8.45258 14.3661 7.81804 14.3661 7.1963C14.3661 6.6605 14.4188 6.25271 14.4989 5.89612C14.6172 5.36215 14.821 5.05311 15.0485 4.75321C15.3579 4.34177 16.3806 4.1333 16.8902 4.80624C17.0959 5.07871 17.1887 5.71875 17.2487 6.40449C17.2942 6.92566 17.236 7.50168 17.2396 8.01919C17.2433 8.79089 17.4161 9.43457 17.4234 9.62475C17.4434 10.0947 17.2633 10.6488 17.276 11.2212C17.2869 11.7423 17.3015 12.2836 17.307 12.8121C17.3124 13.3735 17.2469 13.9184 17.2469 14.4012C17.2487 15.1235 17.3252 15.7032 17.3142 15.9885C17.2888 16.7382 17.3179 16.9449 17.3179 18.2926C17.3179 18.8028 16.9011 19.0186 16.5754 19.2398C16.1805 19.5032 15.7564 19.7884 15.4452 19.7592C15.1923 19.7372 14.963 19.7317 14.7355 19.7336C14.2223 19.7372 13.72 19.7317 13.2559 19.6641C12.75 19.5891 12.1495 19.1703 11.4961 19.2142C10.9465 19.2508 10.3551 19.5068 9.77818 19.8159C9.31593 20.0645 9.01383 20.5875 8.57343 21.1124C8.16578 21.6006 7.86004 22.1218 7.6453 22.7527C7.43601 23.3616 7.10844 23.9651 7.10844 24.6252C7.10844 24.8337 7.2795 25.0312 7.30134 25.236C7.35048 25.6749 7.35594 26.2052 7.57432 26.7483C7.75085 27.1853 8.00927 27.6334 8.35686 28.0777C8.64804 28.4508 8.99018 28.8421 9.43604 29.1859C9.93105 29.5662 10.4988 29.7619 11.1049 29.8936C11.6581 30.0124 12.2587 29.9009 12.912 29.8991C13.4798 29.8991 14.0785 29.8826 14.7246 29.8515C15.256 29.8241 15.8638 29.8095 16.4971 29.7948C16.9739 29.782 17.4325 30.0271 17.7 30.2867C17.8966 30.4787 17.9294 30.8628 17.9112 31.4095C17.8984 31.8685 17.9475 32.3037 17.7383 32.4519C17.6273 32.5305 17.3434 32.4903 16.7301 32.547C16.175 32.6 15.3633 32.4756 14.5025 32.3184C13.9002 32.2087 13.2669 32.0221 12.6135 31.9618C11.9766 31.9014 11.3487 32.0843 10.7209 32.194C10.0912 32.3019 9.52158 32.3037 9.06661 32.5122C8.49153 32.7737 7.98561 33.0663 7.63438 33.443C7.22491 33.8782 7.15029 34.4872 6.95739 34.9992C6.75174 35.546 6.64255 36.0799 6.5734 36.6175C6.51334 37.0875 6.43691 37.488 6.43691 37.8757C6.43691 38.4681 6.5279 38.9857 6.67167 39.4849C6.83 40.039 6.87185 40.6369 7.19761 41.0685C7.52336 41.5019 8.0948 41.6884 8.58071 41.9883C9.02475 42.2608 9.42148 42.7509 9.98928 42.9026C10.4897 43.0361 11.0939 42.824 11.7309 42.8258C12.2477 42.8277 12.8101 42.7509 13.4361 42.7216C13.9329 42.696 14.4752 42.6997 15.0376 42.6869C15.5562 42.6759 16.0967 42.8075 16.6372 42.8331C17.1686 42.8587 17.6837 43.0233 18.206 43.1093C18.7228 43.1934 19.2033 43.3196 19.6928 43.4732C20.1842 43.6268 20.7192 43.6542 21.1869 43.8828C21.6437 44.1059 21.9967 44.5137 22.4335 44.8099C22.8521 45.0915 23.2907 45.3457 23.6929 45.6968C24.0714 46.026 24.4354 46.3807 24.803 46.7702C25.1451 47.136 25.5236 47.4871 25.8603 47.9058C26.146 48.2624 26.4718 48.6757 26.7175 49.1932C26.9268 49.6284 26.9905 50.1606 27.1615 50.6817C27.318 51.1535 27.5765 51.6162 27.6984 52.1373C27.8149 52.6311 27.8112 53.1596 27.8913 53.6789C27.9695 54.1854 28.0624 54.6938 28.1042 55.2113C28.1461 55.7288 28.3208 56.2445 28.3208 56.7584C28.3208 57.2759 28.0678 57.7678 28.0278 58.2542C27.9841 58.7735 28.0205 59.2783 27.9313 59.7537C27.8349 60.2712 27.8731 60.8088 27.7257 61.2623C27.5619 61.7689 27.2471 62.1986 27.025 62.6137C26.7721 63.0873 26.4591 63.486 26.1333 63.8225C25.773 64.1992 25.6456 64.6984 25.6456 65.2214C25.6456 65.7608 25.8876 66.1961 26.2752 66.5746C26.6702 66.9586 27.0942 67.0903 27.6074 67.083C28.1188 67.0738 28.5173 66.9056 28.8995 66.5069C29.2416 66.1503 29.571 65.7974 29.8604 65.3677C30.137 64.9599 30.5064 64.5978 30.7339 64.1315C30.9505 63.689 31.1616 63.2245 31.3327 62.7326C31.4946 62.2681 31.5365 61.7524 31.6548 61.2459C31.7694 60.7668 31.9678 60.2895 32.0424 59.7756C32.1134 59.2856 32.1771 58.779 32.2116 58.2615C32.2462 57.766 32.248 57.2558 32.248 56.7401C32.248 56.1659 32.0988 55.599 32.0588 55.0303C32.0187 54.4543 32.0406 53.8801 31.9605 53.3187C31.8786 52.7445 31.8076 52.1739 31.6893 51.6235C31.5656 51.053 31.4491 50.4861 31.289 49.9503C31.1179 49.387 31.0069 48.8092 30.7994 48.2972C30.5756 47.7449 30.3354 47.2055 30.0697 46.7264C29.7785 46.1979 29.198 45.8998 28.8631 45.4792C28.5337 45.0696 28.4664 44.4533 28.1297 44.0839C27.7785 43.6963 27.3726 43.3653 27.0105 43.0215C26.6319 42.6613 26.1078 42.4839 25.7184 42.1712C25.3125 41.8475 24.9777 41.4415 24.5573 41.1672C24.1242 40.8838 23.7256 40.5382 23.2761 40.3078C22.8193 40.0737 22.3407 39.8616 21.8657 39.6787C21.3907 39.4958 20.8793 39.3916 20.3825 39.2581C19.8948 39.1283 19.3725 39.1265 18.8629 39.0442C18.2314 38.9399 17.6182 38.7351 17.0067 38.7004C16.3624 38.6656 15.7273 38.7882 15.1268 38.7973C14.4607 38.8101 13.8274 38.7571 13.2468 38.7845C12.2368 38.832 11.5944 38.8119 11.2814 38.737C10.6171 38.5577 10.0967 38.3145 10.1258 37.4496C10.1531 36.6742 10.5589 36.4457 10.7063 36.3414C10.8847 36.2134 11.0375 36.1019 11.4652 36.0269C12.0384 35.9281 12.9429 36.0214 13.8092 36.1805C14.3315 36.2756 14.8938 36.2847 15.4598 36.3487C16.0149 36.4109 16.5481 36.4804 17.094 36.4274C17.6291 36.378 18.1823 36.3798 18.7155 36.2335C19.2433 36.0891 19.7638 35.9172 20.2151 35.5935C20.6373 35.2918 21.1487 34.9736 21.4417 34.4488C21.6801 34.0209 21.8257 33.4503 21.9422 32.8341C22.035 32.3531 21.9967 31.7881 21.9967 31.17C21.9967 30.6378 21.9967 30.1734 21.9149 29.7765C21.8093 29.2718 21.62 28.8494 21.3926 28.4782C21.1578 28.096 20.7702 27.8382 20.4171 27.4926C20.0622 27.1488 19.7692 26.6916 19.327 26.4575C18.8939 26.2289 18.3479 26.2546 17.8584 26.143C17.3816 26.0351 16.9029 25.7188 16.3988 25.7316C15.7018 25.748 15.043 25.7828 14.5171 25.8084C14.033 25.8321 13.5999 26.196 13.2141 26.2015C12.6062 26.2088 12.1112 26.1503 11.8692 26.0936C11.4215 25.9894 11.0484 25.5213 11.0466 24.8063C11.0448 24.2211 11.2723 23.7255 11.5962 23.6048C11.689 23.5701 11.942 23.4933 12.7882 23.5756C13.8529 23.6798 13.942 23.6377 15.0922 23.7347C15.5271 23.7731 16.1077 23.6835 16.7446 23.6505C17.2633 23.6231 17.8438 23.6871 18.3916 23.4933C18.8848 23.3177 19.3397 22.9849 19.7802 22.5899C20.155 22.2516 20.5754 21.7487 20.8666 21.0027C21.0668 20.4851 21.1378 19.8579 21.1541 19.0954C21.1669 18.5486 21.196 18.0731 21.2069 17.6507C21.2233 17.0875 21.3398 16.623 21.3525 16.2097C21.3944 15.0047 21.307 14.6042 21.307 13.7959C21.307 13.3717 21.2288 12.909 21.2142 12.3549C21.2033 11.9307 21.4017 11.4479 21.3816 10.903C21.3653 10.4696 21.4435 9.98683 21.4217 9.45286C21.3998 8.96644 21.1814 8.50378 21.1687 8.0521C21.1541 7.54008 21.2306 7.01526 21.2015 6.49592C21.1742 5.97475 21.1996 5.44079 21.1305 4.93608C21.0577 4.40942 20.9922 3.86631 20.8448 3.38538C20.6901 2.87701 20.408 2.39607 20.135 1.97C19.8584 1.54026 19.3743 1.28974 18.9394 0.980694C18.5499 0.704567 18.1386 0.419296 17.5945 0.263861C17.145 0.135855 16.6427 0.035278 16.0731 0.00419098C15.5399 -0.023239 15.0467 0.0883092 14.5699 0.190714ZM37.5639 46.8342C37.1216 46.9933 36.714 47.2878 36.2845 47.5602C35.8805 47.8144 35.4874 48.0978 35.1307 48.4544C34.7922 48.7927 34.3991 49.1182 34.1316 49.548C33.8823 49.9503 33.7258 50.433 33.5638 50.9176C33.431 51.3108 33.4528 51.7771 33.3964 52.3147C33.3527 52.7335 33.3636 53.1888 33.3636 53.7191C33.3636 54.0026 33.3982 54.5695 33.4237 55.215C33.4437 55.7051 33.198 56.2482 33.218 56.7273C33.2526 57.5081 33.5565 58.139 33.5565 58.2249C33.5565 58.737 33.5256 59.2892 33.5056 59.8598C33.4856 60.3882 33.2199 60.9204 33.1671 61.4726C33.1161 62.0103 33.2035 62.5735 33.1107 63.1093C33.016 63.6506 32.7685 64.1553 32.6175 64.6655C32.461 65.2013 32.4118 65.7718 32.1771 66.2436C31.9296 66.7465 31.4837 67.0994 31.1343 67.4962C31.0506 67.5895 30.4828 68.1399 29.8021 68.7141C29.3235 69.1201 28.8231 69.5352 28.3499 69.7692C28.0842 69.9027 27.4636 69.9302 26.9613 69.559C26.5337 69.2426 26.2243 68.9829 25.9277 68.769C25.5801 68.5184 25.1488 68.4618 24.7757 68.1472C24.0969 67.6114 23.5709 67.3938 23.0031 67.5493C22.9813 67.5547 21.9967 67.9004 21.8457 67.9863C21.4362 68.2222 21.0377 68.6117 20.5299 68.7836C20.0732 68.939 19.5236 68.8805 19.0067 68.9829C18.5263 69.078 18.0258 69.1567 17.5108 69.2042C17.0158 69.2517 16.5117 69.206 15.9985 69.2079C15.498 69.2097 14.9921 69.2737 14.4843 69.2316C13.9821 69.1914 13.4652 69.2188 12.9666 69.1347C12.4661 69.0488 12.0239 68.7123 11.5398 68.5825C11.0466 68.449 10.497 68.5111 10.0348 68.3283C9.58709 68.1527 9.09391 67.9443 8.61164 67.6718C8.18034 67.4304 7.69079 67.1908 7.26312 66.858C6.86639 66.5508 6.70261 65.9583 6.33317 65.5652C5.98922 65.1994 5.57975 64.8849 5.27947 64.4369C4.99921 64.0218 4.54061 63.6725 4.3113 63.1806C4.10202 62.7289 3.92185 62.2151 3.76534 61.6921C3.60702 61.1618 3.43049 60.6388 2.97734 60.3956C2.52784 60.1523 1.97642 60.231 1.44866 60.3901C1.02281 60.5199 0.631538 60.6827 0.382216 61.021C0.134715 61.3574 4.49319e-05 61.7817 4.49319e-05 62.226C4.49319e-05 62.4235 -0.00359471 62.6283 0.054641 62.8167C0.211149 63.3415 0.429533 63.8407 0.636997 64.3327C0.848102 64.8355 1.21753 65.247 1.47959 65.7133C1.7453 66.1887 2.01645 66.6368 2.33311 67.0702C2.65159 67.5072 2.9737 67.9223 3.34132 68.3173C3.70893 68.7105 4.03468 69.1365 4.44779 69.4876C4.85726 69.8333 5.20486 70.2758 5.658 70.5775C6.10205 70.8738 6.69351 70.925 7.17759 71.1791C7.64894 71.4242 8.0675 71.7881 8.57525 71.9929C9.05933 72.1867 9.55797 72.3385 10.0548 72.4939C10.5516 72.6494 11.0375 72.8542 11.5453 72.9694C12.053 73.0864 12.5953 72.995 13.1103 73.07C13.6254 73.1468 14.1222 73.368 14.6409 73.4028C15.1613 73.4375 15.6855 73.5162 16.2041 73.507C16.7264 73.4979 17.2287 73.2291 17.7455 73.1742C18.2642 73.1193 18.7683 73.0517 19.2779 72.9511C19.7893 72.8487 20.2952 72.7737 20.7938 72.6238C21.2925 72.4738 21.7602 72.2837 22.2406 72.0843C22.9631 71.6985 23.5418 72.5433 23.8475 72.7445C24.197 72.9712 24.7666 73.0755 25.2707 73.3589C25.7056 73.6039 26.0842 74.1032 26.5883 74.2165C27.0978 74.3317 27.6201 74.105 28.0933 74.0702C28.5992 74.0318 29.0414 73.8801 29.5 73.7137C29.9714 73.5454 30.4063 73.3589 30.8231 73.1011C31.2562 72.8359 31.7276 72.6457 32.0952 72.3385C32.5028 71.9984 32.9505 71.7314 33.269 71.4059C33.6967 70.9725 34.0534 70.5885 34.3027 70.3288C34.6521 69.9338 34.8359 69.3962 35.1143 68.95C35.3928 68.5038 35.795 68.1125 36.0097 67.6279C36.2226 67.1488 36.3482 66.6166 36.5065 66.1138C36.6649 65.6109 36.8013 65.0915 36.9124 64.5777C37.0234 64.0584 37.0598 63.5244 37.1326 63.0069C37.2072 62.4766 37.1963 61.9444 37.2381 61.4269C37.2818 60.8893 37.4456 60.3663 37.4638 59.8561C37.482 59.3057 37.3655 58.7735 37.3655 58.2725C37.3655 58.0366 37.4274 56.5554 37.3892 55.9428C37.3673 55.5697 37.2527 54.831 37.229 54.0702C37.209 53.3753 37.0889 52.6293 37.2527 52.1684C37.4219 51.6966 37.8914 51.479 38.2099 51.2267C38.6576 50.8737 39.078 50.6378 39.3492 50.6141C39.8387 50.572 40.3046 50.4129 40.7104 50.4623C41.2054 50.5245 41.6276 50.775 41.9934 50.9524C42.432 51.1663 42.7632 51.4772 43.0071 51.8246C43.271 52.2014 43.5712 52.6603 43.7623 53.2108C43.9261 53.6789 44.1208 54.1928 44.2246 54.7322C44.3228 55.2387 44.4157 55.7782 44.4575 56.3067C44.4994 56.837 44.523 57.3874 44.503 57.9013C44.4739 58.715 44.3738 59.6312 44.3392 60.1889C44.3083 60.7028 44.3683 61.1801 44.6996 61.5366C45.0253 61.8877 45.4876 62.1511 45.9917 62.2059C46.5231 62.2663 47.0053 62.0249 47.4239 61.6902C47.8406 61.3538 48.1846 60.9332 48.2428 60.401C48.2901 59.9805 48.332 59.5617 48.3557 59.1466C48.3811 58.7223 48.3793 58.2999 48.3793 57.8866C48.3793 57.3417 48.2901 56.8077 48.2483 56.2793C48.2064 55.738 48.2319 55.1912 48.1446 54.6664C48.0554 54.1342 48.0099 53.5856 47.8752 53.0681C47.7405 52.5488 47.6168 52.0112 47.4348 51.5028C47.2546 51.0018 46.9835 50.519 46.7578 50.0271C46.5449 49.5681 46.1136 49.2499 45.7878 48.8732C45.4639 48.5002 45.1509 48.118 44.7305 47.8309C44.3301 47.5566 43.8988 47.3042 43.422 47.1122C42.9725 46.9312 42.4775 46.8635 41.9716 46.7611C41.4984 46.666 41.0216 46.4411 40.5066 46.4173C40.0243 46.3954 39.5075 46.3698 38.9961 46.4137C38.5411 46.4539 38.0534 46.6587 37.5639 46.8342ZM60.4013 50.7403C59.9646 50.8591 59.5278 51.0822 59.2657 51.4242C59.0055 51.7661 58.9145 52.2489 58.9145 52.7024C58.9145 53.4138 59.5042 54.105 59.9682 54.3738C60.4305 54.6426 60.9691 54.9315 61.4842 54.7907C61.7717 54.7139 62.345 54.4762 63.0438 54.489C63.5643 54.5 64.1339 54.5091 64.6507 54.5365C65.3823 54.5749 66.0065 54.5475 66.2486 54.5475C66.9565 54.5475 67.5389 54.9517 68.043 55.1309C68.7345 55.3796 69.1749 55.6465 69.1749 56.3067C69.1749 57.029 68.5416 57.4441 67.4697 57.413C66.6216 57.3874 65.8992 57.3636 65.1949 57.3582C64.5779 57.3527 63.9828 57.1204 63.3568 57.1022C62.7781 57.0839 62.1666 57.2174 61.5042 57.168C61.1675 57.1424 60.7271 57.0034 60.2121 56.9595C59.6406 56.912 59.1056 56.8791 58.6051 56.8388C58.0282 56.7931 57.4968 56.72 57.0055 56.6852C56.414 56.645 55.879 56.6486 55.4004 56.6249C54.7816 56.5938 54.252 56.7291 53.7952 56.7273C53.1219 56.7254 52.6269 56.7401 52.2174 56.8077C51.5131 56.9211 51.191 57.0893 50.8525 57.4222C50.3339 57.9324 49.9826 58.4316 49.8079 59.0296C49.6186 59.6806 49.4367 60.3425 49.4367 60.9789C49.4367 61.1691 49.6987 61.3903 49.7042 61.8036C49.7042 62.1163 49.3766 62.5278 49.0581 62.9282C48.8252 63.2227 48.5249 63.5317 48.1446 63.7749C47.6168 64.1096 47.0071 64.2156 46.4139 64.254C45.7897 64.2943 45.1163 64.3656 44.5813 64.1406C43.9789 63.8846 43.5658 63.3379 43.3055 62.8295C43.0908 62.4107 43.0198 61.9517 42.9306 61.458C42.8488 61.0118 42.5721 60.5565 42.5503 60.0426C42.5321 59.5891 42.5376 59.1027 42.5376 58.5925C42.5357 58.075 42.5831 57.5557 42.5703 57.0253C42.5558 56.5115 42.5084 55.9976 42.4575 55.4673C42.4083 54.959 42.563 54.4085 42.4575 53.8819C42.3519 53.3552 41.8606 53.0334 41.4165 52.7371C40.9707 52.4391 40.4775 52.0605 39.9534 52.1666C39.4802 52.2617 39.1763 52.7865 38.8924 53.251C38.6594 53.635 38.5775 54.0794 38.5684 54.6444C38.5575 55.2735 38.5903 55.9318 38.6576 56.6121C38.7213 57.2759 38.6594 57.958 38.6612 58.6035C38.6612 59.1448 38.5466 59.6952 38.5648 60.242C38.583 60.7869 38.6066 61.3465 38.6758 61.8877C38.7468 62.4272 39.0198 62.9356 39.1744 63.4622C39.3255 63.9761 39.3692 64.5594 39.6331 65.0513C39.8842 65.5176 40.3009 65.9437 40.7177 66.3405C41.1017 66.7063 41.5621 67.0482 42.0535 67.3353C42.5157 67.6041 43.0544 67.787 43.5858 67.968C44.0972 68.1417 44.6486 68.2076 45.2 68.2862C45.7369 68.363 46.2883 68.5276 46.8415 68.4983C47.3857 68.4691 47.9171 68.2624 48.4539 68.1198C48.9762 67.979 49.5331 67.8766 50.0281 67.6151C50.514 67.3573 51.0145 67.0208 51.4876 66.6368C51.9226 66.2838 52.212 65.7682 52.5486 65.2561C52.8471 64.8026 53.3002 64.3656 53.4604 63.7493C53.5932 63.2355 53.5696 62.6283 53.5696 61.9792C53.5295 60.9149 53.4749 60.4504 54.8253 60.4687C55.1747 60.4742 55.7498 60.6424 56.4213 60.6991C56.9181 60.743 57.4641 60.818 58.0155 60.8692C58.5615 60.9186 59.1165 60.893 59.617 60.9314C60.2667 60.9826 60.8308 60.9588 61.2112 60.957C61.9337 60.9533 62.5888 60.9624 63.2076 60.9954C63.8846 61.0301 64.5215 61.0557 65.1876 61.063C65.8264 61.0685 66.5525 61.1069 67.3605 61.1325C67.7463 61.1435 68.2304 61.2971 68.7618 61.2514C69.2004 61.213 69.679 61.149 70.1467 60.9917C70.5689 60.8472 70.9402 60.551 71.3351 60.2511C71.7082 59.9677 72.1195 59.6897 72.3997 59.2801C72.6672 58.8887 72.8984 58.4426 73.0458 57.9708C73.1877 57.5191 73.2532 57.0235 73.2532 56.5261C73.2532 56.0452 73.2696 55.5588 73.1823 55.1162C73.0858 54.639 72.953 54.158 72.7582 53.7575C72.5435 53.3187 72.2268 52.9218 71.9011 52.6146C71.528 52.2617 71.104 51.9325 70.6599 51.671C70.225 51.4132 69.7482 51.1627 69.2513 50.9963C68.7782 50.8372 68.2249 50.9286 67.7008 50.8555C67.2095 50.7878 66.7072 50.722 66.1776 50.7329C65.7445 50.7403 65.2185 50.6214 64.6616 50.572C64.2212 50.5336 63.7317 50.6909 63.2312 50.6708C62.7708 50.6543 62.294 50.4568 61.8081 50.497C61.3422 50.5336 60.8672 50.6141 60.4013 50.7403Z" fill="#BA6ED5"/>
</svg>
