<svg width="46" height="46" viewBox="0 0 46 46" fill="none" xmlns="http://www.w3.org/2000/svg">
<path fill-rule="evenodd" clip-rule="evenodd" d="M9.958 35.6945C9.62743 35.6118 9.27814 35.5325 9.09743 35.3198C8.89909 35.0873 8.80763 34.716 8.86713 34.3865C8.94096 33.9777 9.17015 33.6901 9.45884 33.5116C9.69795 33.3629 10.0252 33.3166 10.4858 33.3662C10.7976 33.3992 11.0852 33.5171 11.2692 33.732C11.4786 33.9777 11.5392 34.3116 11.5403 34.5551C11.5414 34.8747 11.3354 35.2273 11.0015 35.4719C10.7161 35.6801 10.3635 35.7958 9.958 35.6945ZM9.38832 37.9699C9.73211 38.0558 10.0417 38.123 10.3558 38.1384C10.7073 38.1561 11.0367 38.2134 11.3464 38.144C11.6802 38.0701 11.9976 37.9544 12.2786 37.7825C12.5573 37.6117 12.7667 37.3495 12.9871 37.0861C13.1909 36.8437 13.4223 36.5991 13.5722 36.2796C13.7066 35.9964 13.8256 35.6801 13.9149 35.3375C13.9799 35.0884 14.0041 34.8207 14.0041 34.5551C14.0041 34.2135 13.9744 33.8455 13.862 33.4984C13.7562 33.169 13.5678 32.8527 13.3694 32.553C13.1777 32.2621 12.9143 32.0197 12.6433 31.7872C12.3799 31.5602 12.1199 31.2969 11.7882 31.1525C11.4764 31.0159 11.1095 30.9927 10.7425 30.9531C10.4032 30.9178 10.0781 30.855 9.77508 30.8881C9.43901 30.9255 9.12167 31.0225 8.83297 31.1316C8.52114 31.2484 8.28644 31.482 8.03301 31.6671C7.76745 31.8599 7.43909 31.9855 7.24075 32.2335C7.03801 32.488 6.919 32.8086 6.79119 33.1006C6.66006 33.3981 6.66888 33.7287 6.62039 34.0438C6.59064 34.2323 6.50139 34.4108 6.50139 34.6014C6.50139 34.9375 6.53004 35.2614 6.61378 35.5644C6.70193 35.8829 6.87273 36.1573 7.04462 36.4294C7.21651 36.7016 7.4446 36.9132 7.69363 37.1313C7.93053 37.3396 8.19058 37.4994 8.49139 37.6492C8.77017 37.788 9.05996 37.8872 9.38832 37.9699ZM5.71355 35.6879C5.63862 35.3628 5.59234 35.0278 5.59234 34.673C5.59234 34.3755 5.60997 34.0791 5.66616 33.7816C5.72016 33.4907 5.8656 33.2285 5.97249 32.942C6.09039 32.6224 6.24465 32.3414 6.43307 32.0594C6.6226 31.7773 6.75813 31.4566 7.00495 31.2219C7.24957 30.9883 7.57903 30.8682 7.86883 30.6908C8.15862 30.5145 8.4352 30.3382 8.75694 30.228C9.07759 30.1178 9.39934 30.0462 9.73762 30.0121C10.0726 29.9779 10.4054 29.9526 10.7414 29.9999C11.0753 30.0473 11.4158 30.0925 11.7331 30.2093C12.0505 30.3272 12.3171 30.5487 12.6025 30.7272C12.8912 30.9079 13.2019 31.0577 13.4399 31.2924C13.6835 31.5327 13.8443 31.8335 14.0151 32.1211C14.176 32.391 14.3237 32.6401 14.4305 32.9012C14.5462 33.1833 14.7203 33.4411 14.7754 33.7276C14.8305 34.0141 14.7192 34.3193 14.7192 34.6245C14.7192 34.8603 14.7655 35.1039 14.7314 35.3639C14.7016 35.5953 14.7567 35.8598 14.6994 36.1165C14.6267 36.4426 14.4438 36.7313 14.3038 37.0101C14.1562 37.3021 13.96 37.5589 13.7474 37.7947C13.5325 38.0327 13.311 38.2773 13.0389 38.4525C12.7733 38.6233 12.4857 38.8007 12.175 38.9076C11.8797 39.0089 11.5524 39.096 11.223 39.1367C10.9144 39.1753 10.5773 39.194 10.2445 39.1753C9.93486 39.1577 9.6054 39.0949 9.28034 39.0255C8.93104 38.9516 8.62141 38.7698 8.31509 38.6453C7.98673 38.512 7.69142 38.3412 7.41595 38.1539C7.12506 37.9577 6.82314 37.777 6.59725 37.528C6.36476 37.2724 6.21931 36.9517 6.06174 36.6465C5.90527 36.3468 5.79288 36.0283 5.71355 35.6879ZM4.18634 38.263C4.35603 38.5285 4.49596 38.8216 4.70422 39.0607C4.91027 39.2976 5.15269 39.5103 5.394 39.7174C5.6309 39.9213 5.93833 40.0348 6.20719 40.2078C6.46944 40.3764 6.67769 40.6529 6.96859 40.7896C7.24957 40.9229 7.57132 40.9846 7.87654 41.086C8.17074 41.184 8.498 41.1675 8.81424 41.2336C9.13269 41.3019 9.4313 41.4243 9.74203 41.4551C10.066 41.4882 10.3833 41.5168 10.6963 41.5124C11.0213 41.5069 11.3331 41.4375 11.6439 41.3934C11.9645 41.3482 12.262 41.2502 12.5639 41.1642C12.8758 41.0772 13.1612 40.9615 13.4488 40.8336C13.743 40.7025 14.0085 40.5516 14.2752 40.3808C14.5451 40.2089 14.8008 40.0403 15.0388 39.8276C15.2768 39.6161 15.5545 39.4475 15.7561 39.1985C15.9555 38.9538 16.1473 38.6949 16.3081 38.415C16.4646 38.1429 16.5462 37.8288 16.6619 37.5269C16.7742 37.2349 16.9274 36.9484 16.999 36.6311C17.0762 36.2851 17.139 35.9534 17.1786 35.635C17.2216 35.2879 17.2337 34.9507 17.2337 34.6245C17.2337 34.2874 17.1941 33.9579 17.15 33.6351C17.1037 33.3067 17.0211 32.9882 16.9274 32.6698C16.8359 32.358 16.7599 32.0329 16.6211 31.7244C16.49 31.4324 16.2365 31.1955 16.0613 30.9013C15.8938 30.6225 15.7903 30.303 15.582 30.0517C15.3737 29.8027 15.1721 29.5371 14.9286 29.319C14.6873 29.1019 14.3435 29.0171 14.0724 28.8341C13.8025 28.6523 13.5325 28.4904 13.2405 28.346C12.9485 28.2017 12.6664 28.0529 12.3579 27.9482C12.0494 27.8436 11.7386 27.7741 11.4202 27.7124C11.0995 27.6507 10.7921 27.4733 10.4671 27.4568C10.142 27.4403 9.82026 27.5978 9.49631 27.6309C9.17235 27.6639 8.81975 27.5449 8.50572 27.6243C8.19168 27.7036 7.92833 27.9559 7.62862 28.0783C7.3289 28.2006 7.05784 28.3658 6.77686 28.5278C6.49588 28.6898 6.22482 28.8507 5.96808 29.0479C5.71024 29.2463 5.41824 29.3994 5.19015 29.6297C4.96096 29.86 4.691 30.065 4.49596 30.3239C4.30093 30.5828 4.11141 30.8616 3.95494 31.1459C3.79847 31.4291 3.7555 31.7729 3.64201 32.077C3.53843 32.3569 3.34891 32.6125 3.27838 32.8968C3.20786 33.1855 3.19244 33.4918 3.15608 33.7827C3.11971 34.0769 3.10098 34.3777 3.10098 34.673C3.10098 34.9948 3.15608 35.3132 3.19685 35.6206C3.23872 35.938 3.34229 36.2399 3.42604 36.5396C3.51198 36.847 3.54284 37.1743 3.67065 37.4608C3.79958 37.7506 4.01665 37.9974 4.18634 38.263ZM9.56242 0.823196C9.25389 0.889309 8.92774 0.909145 8.66549 1.06231C8.40214 1.21437 8.13328 1.40609 7.92282 1.64189C7.72228 1.86778 7.59886 2.16198 7.46664 2.42754C7.33331 2.6964 7.28152 2.99721 7.20549 3.2826C7.12616 3.5779 7.06225 3.8688 7.02919 4.15639C6.99393 4.47153 6.919 4.77344 6.919 5.04671C6.919 5.29904 6.97189 5.55799 6.99283 5.81803C7.01487 6.07477 7.11514 6.32159 7.15701 6.57172C7.19778 6.81192 7.24296 7.2064 7.26279 7.64936C7.27712 7.98763 7.29695 8.36118 7.30466 8.7248C7.31238 9.10715 7.15481 9.48509 7.16142 9.80133C7.16913 10.2278 7.39502 10.4294 7.53055 10.6002C7.71566 10.8327 7.93714 10.8658 8.27873 10.9153C8.60929 10.9627 8.94977 11.0002 9.1977 10.8151C9.44562 10.6288 9.5514 10.2972 9.59878 9.96772C9.63514 9.71539 9.73211 9.38592 9.73211 8.97823C9.73211 8.68733 9.62964 8.37109 9.61201 8.04713C9.59548 7.7342 9.68363 7.40804 9.65498 7.10613C9.62192 6.76675 9.59548 6.44169 9.5503 6.17393C9.48859 5.8015 9.43901 5.41915 9.43901 5.04451C9.43901 4.72165 9.47096 4.47594 9.51945 4.26107C9.59107 3.93932 9.71448 3.7531 9.85221 3.57239C10.0395 3.32447 10.6588 3.19885 10.9673 3.60435C11.0918 3.76853 11.148 4.15419 11.1844 4.56739C11.2119 4.88143 11.1767 5.22852 11.1789 5.54036C11.1811 6.00535 11.2858 6.39321 11.2902 6.50781C11.3023 6.79099 11.1932 7.12486 11.2009 7.46975C11.2075 7.78379 11.2163 8.10994 11.2197 8.42839C11.223 8.76667 11.1833 9.09503 11.1833 9.38592C11.1844 9.82117 11.2307 10.1705 11.2241 10.3424C11.2086 10.7941 11.2263 10.9186 11.2263 11.7307C11.2263 12.0382 10.9739 12.1682 10.7767 12.3015C10.5376 12.4602 10.2808 12.6321 10.0924 12.6144C9.93926 12.6012 9.80043 12.5979 9.66269 12.599C9.35196 12.6012 9.04784 12.5979 8.76686 12.5571C8.46054 12.512 8.09692 12.2596 7.70134 12.2861C7.36857 12.3081 7.01046 12.4624 6.66116 12.6486C6.38129 12.7985 6.19837 13.1136 5.93172 13.4298C5.6849 13.724 5.49978 14.0381 5.36976 14.4182C5.24304 14.7851 5.0447 15.1488 5.0447 15.5466C5.0447 15.6722 5.14828 15.7912 5.1615 15.9146C5.19125 16.179 5.19456 16.4986 5.32678 16.8258C5.43367 17.0892 5.59013 17.3591 5.80059 17.6269C5.97689 17.8517 6.18405 18.0875 6.45401 18.2946C6.75372 18.5238 7.09751 18.6417 7.46444 18.7211C7.79941 18.7927 8.16303 18.7255 8.55861 18.7244C8.90239 18.7244 9.26491 18.7145 9.65608 18.6957C9.97783 18.6792 10.3459 18.6704 10.7293 18.6616C11.018 18.6539 11.2957 18.8015 11.4577 18.958C11.5767 19.0737 11.5965 19.3051 11.5855 19.6345C11.5778 19.9111 11.6075 20.1734 11.4808 20.2626C11.4136 20.31 11.2417 20.2857 10.8704 20.3199C10.5343 20.3519 10.0428 20.2769 9.52165 20.1822C9.15693 20.1161 8.77347 20.0037 8.3779 19.9673C7.99224 19.9309 7.61209 20.0411 7.23194 20.1072C6.85069 20.1723 6.5058 20.1734 6.23033 20.299C5.88213 20.4565 5.57581 20.6328 5.36315 20.8598C5.11522 21.1221 5.07005 21.489 4.95325 21.7975C4.82873 22.127 4.76262 22.4487 4.72075 22.7727C4.68439 23.0559 4.63811 23.2972 4.63811 23.5308C4.63811 23.8878 4.6932 24.1996 4.78025 24.5004C4.87611 24.8343 4.90146 25.1946 5.09869 25.4547C5.29593 25.7158 5.64192 25.8282 5.93613 26.0089C6.20498 26.1731 6.44519 26.4684 6.78898 26.5599C7.092 26.6403 7.45783 26.5125 7.84348 26.5136C8.15642 26.5147 8.4969 26.4684 8.87595 26.4508C9.17676 26.4354 9.50512 26.4376 9.8456 26.4298C10.1596 26.4232 10.4869 26.5026 10.8142 26.518C11.1359 26.5334 11.4477 26.6326 11.764 26.6844C12.0769 26.7351 12.3678 26.8111 12.6642 26.9036C12.9617 26.9962 13.2857 27.0127 13.5689 27.1505C13.8454 27.2849 14.0592 27.5306 14.3237 27.7091C14.5771 27.8788 14.8426 28.032 15.0862 28.2435C15.3153 28.4419 15.5357 28.6556 15.7583 28.8903C15.9655 29.1107 16.1947 29.3223 16.3985 29.5746C16.5715 29.7895 16.7687 30.0385 16.9175 30.3503C17.0442 30.6126 17.0828 30.9332 17.1863 31.2473C17.2811 31.5316 17.4376 31.8103 17.5114 32.1244C17.5819 32.4219 17.5797 32.7403 17.6282 33.0533C17.6756 33.3585 17.7318 33.6648 17.7571 33.9766C17.7825 34.2885 17.8882 34.5992 17.8882 34.9088C17.8882 35.2207 17.7351 35.5171 17.7108 35.8102C17.6844 36.1231 17.7064 36.4272 17.6524 36.7137C17.594 37.0255 17.6172 37.3495 17.5279 37.6228C17.4288 37.928 17.2381 38.1869 17.1037 38.4371C16.9505 38.7224 16.761 38.9627 16.5638 39.1654C16.3456 39.3924 16.2685 39.6932 16.2685 40.0083C16.2685 40.3334 16.415 40.5956 16.6497 40.8237C16.8888 41.0551 17.1456 41.1345 17.4563 41.1301C17.7659 41.1245 18.0072 41.0232 18.2386 40.783C18.4458 40.5681 18.6452 40.3554 18.8204 40.0965C18.9879 39.8508 19.2116 39.6326 19.3493 39.3516C19.4805 39.085 19.6083 38.8051 19.7119 38.5087C19.8099 38.2288 19.8353 37.9181 19.9069 37.6128C19.9763 37.3242 20.0964 37.0366 20.1416 36.7269C20.1846 36.4316 20.2231 36.1264 20.2441 35.8146C20.265 35.516 20.2661 35.2085 20.2661 34.8978C20.2661 34.5518 20.1758 34.2102 20.1515 33.8675C20.1273 33.5205 20.1405 33.1745 20.092 32.8362C20.0424 32.4902 19.9995 32.1464 19.9278 31.8147C19.8529 31.471 19.7824 31.1294 19.6854 30.8065C19.5818 30.4671 19.5146 30.1189 19.389 29.8104C19.2535 29.4776 19.108 29.1526 18.9472 28.8639C18.7709 28.5455 18.4194 28.3658 18.2166 28.1124C18.0172 27.8656 17.9764 27.4943 17.7725 27.2717C17.5599 27.0381 17.3142 26.8386 17.0949 26.6315C16.8657 26.4144 16.5484 26.3075 16.3126 26.1191C16.0668 25.9241 15.8641 25.6795 15.6096 25.5142C15.3473 25.3434 15.106 25.1351 14.8338 24.9963C14.5573 24.8553 14.2675 24.7274 13.9799 24.6172C13.6923 24.5071 13.3826 24.4442 13.0818 24.3638C12.7865 24.2856 12.4703 24.2845 12.1618 24.2349C11.7794 24.1721 11.4081 24.0487 11.0378 24.0277C10.6478 24.0068 10.2632 24.0806 9.8996 24.0861C9.49631 24.0939 9.11285 24.0619 8.76135 24.0784C8.14981 24.1071 7.76084 24.095 7.57132 24.0498C7.16913 23.9418 6.85399 23.7952 6.87162 23.274C6.88815 22.8069 7.13387 22.6691 7.22312 22.6063C7.33111 22.5292 7.42367 22.462 7.68261 22.4168C8.0297 22.3573 8.57734 22.4135 9.10183 22.5093C9.41807 22.5666 9.75856 22.5722 10.1012 22.6107C10.4373 22.6482 10.7602 22.6901 11.0907 22.6581C11.4147 22.6283 11.7497 22.6294 12.0725 22.5413C12.3921 22.4542 12.7072 22.3507 12.9805 22.1556C13.2361 21.9738 13.5457 21.7821 13.7231 21.4659C13.8675 21.208 13.9556 20.8642 14.0261 20.4929C14.0823 20.2031 14.0592 19.8626 14.0592 19.4902C14.0592 19.1695 14.0592 18.8897 14.0096 18.6506C13.9457 18.3464 13.8311 18.0919 13.6934 17.8682C13.5512 17.6379 13.3165 17.4826 13.1028 17.2743C12.8879 17.0671 12.7105 16.7917 12.4427 16.6506C12.1805 16.5129 11.8499 16.5283 11.5535 16.4611C11.2648 16.3961 10.975 16.2055 10.6698 16.2132C10.2478 16.2231 9.84891 16.244 9.53047 16.2595C9.23736 16.2738 8.97512 16.4931 8.74152 16.4964C8.37349 16.5008 8.07378 16.4655 7.92723 16.4314C7.65616 16.3686 7.43028 16.0865 7.42918 15.6556C7.42807 15.303 7.56581 15.0044 7.76194 14.9317C7.81814 14.9108 7.9713 14.8645 8.48368 14.9141C9.12828 14.9769 9.18227 14.9515 9.87866 15.0099C10.142 15.0331 10.4935 14.9791 10.8792 14.9592C11.1932 14.9427 11.5447 14.9813 11.8764 14.8645C12.175 14.7587 12.4505 14.5582 12.7171 14.3202C12.9441 14.1163 13.1986 13.8133 13.3749 13.3637C13.4961 13.0519 13.5391 12.6739 13.549 12.2145C13.5567 11.885 13.5744 11.5985 13.581 11.344C13.5909 11.0046 13.6614 10.7247 13.6691 10.4757C13.6945 9.74955 13.6416 9.50824 13.6416 9.0212C13.6416 8.76556 13.5942 8.48679 13.5854 8.15292C13.5788 7.89728 13.6989 7.60638 13.6868 7.27802C13.6768 7.01688 13.7242 6.72598 13.711 6.40423C13.6978 6.11113 13.5656 5.83235 13.5578 5.56019C13.549 5.25166 13.5953 4.93542 13.5777 4.62249C13.5612 4.30845 13.5766 3.9867 13.5347 3.68258C13.4906 3.36524 13.451 3.03798 13.3617 2.74818C13.2681 2.44186 13.0973 2.15206 12.932 1.89533C12.7645 1.63638 12.4714 1.48543 12.208 1.29921C11.9722 1.13282 11.7232 0.960929 11.3937 0.867271C11.1216 0.790138 10.8175 0.729534 10.4726 0.710804C10.1497 0.694274 9.85111 0.761489 9.56242 0.823196ZM23.4847 28.9289C23.2169 29.0248 22.9701 29.2022 22.7101 29.3664C22.4655 29.5195 22.2275 29.6903 22.0115 29.9052C21.8065 30.109 21.5685 30.3052 21.4066 30.5641C21.2556 30.8065 21.1608 31.0974 21.0628 31.3894C20.9823 31.6263 20.9956 31.9073 20.9614 32.2313C20.935 32.4836 20.9416 32.758 20.9416 33.0775C20.9416 33.2483 20.9625 33.5899 20.9779 33.9788C20.99 34.2741 20.8413 34.6014 20.8534 34.8901C20.8743 35.3606 21.0584 35.7407 21.0584 35.7925C21.0584 36.1011 21.0396 36.4338 21.0275 36.7776C21.0154 37.0961 20.8545 37.4167 20.8226 37.7495C20.7917 38.0734 20.8446 38.4128 20.7884 38.7357C20.7311 39.0618 20.5812 39.3659 20.4898 39.6734C20.395 39.9962 20.3653 40.34 20.2231 40.6243C20.0733 40.9273 19.8033 41.14 19.5918 41.3791C19.5411 41.4353 19.1973 41.7669 18.7852 42.1129C18.4954 42.3576 18.1924 42.6077 17.9059 42.7487C17.745 42.8292 17.3693 42.8457 17.0651 42.622C16.8062 42.4314 16.6189 42.2749 16.4393 42.146C16.2288 41.995 15.9677 41.9609 15.7418 41.7714C15.3308 41.4485 15.0123 41.3174 14.6685 41.411C14.6553 41.4143 14.0592 41.6226 13.9677 41.6744C13.7198 41.8165 13.4785 42.0512 13.1711 42.1548C12.8945 42.2485 12.5617 42.2132 12.2488 42.2749C11.9579 42.3322 11.6549 42.3796 11.3431 42.4082C11.0434 42.4369 10.7381 42.4093 10.4274 42.4104C10.1244 42.4115 9.81806 42.4501 9.51063 42.4248C9.20651 42.4005 8.89358 42.4171 8.59166 42.3664C8.28865 42.3146 8.02089 42.1118 7.72779 42.0336C7.42918 41.9532 7.09641 41.9906 6.81653 41.8804C6.54547 41.7747 6.24686 41.649 5.95486 41.4849C5.69371 41.3394 5.39731 41.1951 5.13836 40.9945C4.89815 40.8094 4.79898 40.4524 4.5753 40.2155C4.36704 39.9951 4.11912 39.8056 3.93731 39.5356C3.76762 39.2855 3.48995 39.075 3.35111 38.7786C3.22439 38.5065 3.11531 38.1968 3.02054 37.8817C2.92468 37.5622 2.8178 37.247 2.54343 37.1005C2.27126 36.9539 1.93739 37.0013 1.61785 37.0972C1.36001 37.1754 1.1231 37.2735 0.972145 37.4773C0.822289 37.6801 0.74075 37.9357 0.74075 38.2035C0.74075 38.3225 0.738546 38.4459 0.773806 38.5594C0.868568 38.8756 1.00079 39.1764 1.12641 39.4728C1.25423 39.7758 1.47791 40.0238 1.63658 40.3047C1.79745 40.5912 1.96164 40.8612 2.15336 41.1223C2.34619 41.3857 2.54123 41.6358 2.76381 41.8738C2.98639 42.1107 3.18362 42.3675 3.43375 42.579C3.68167 42.7873 3.89213 43.0539 4.1665 43.2358C4.43536 43.4143 4.79347 43.4451 5.08657 43.5983C5.37196 43.7459 5.6254 43.9652 5.93282 44.0886C6.22592 44.2054 6.52784 44.2969 6.82865 44.3905C7.12946 44.4842 7.42367 44.6076 7.73109 44.677C8.03852 44.7475 8.36688 44.6924 8.67871 44.7376C8.99054 44.7839 9.29136 44.9172 9.6054 44.9382C9.92053 44.9591 10.2379 45.0065 10.5519 45.001C10.8682 44.9955 11.1723 44.8335 11.4852 44.8004C11.7992 44.7674 12.1045 44.7266 12.413 44.666C12.7226 44.6043 13.0289 44.5591 13.3309 44.4688C13.6328 44.3784 13.916 44.2638 14.2069 44.1437C14.6443 43.9112 14.9947 44.4203 15.1798 44.5415C15.3914 44.6781 15.7363 44.7409 16.0415 44.9117C16.3048 45.0594 16.534 45.3602 16.8393 45.4285C17.1478 45.4979 17.464 45.3613 17.7505 45.3403C18.0568 45.3172 18.3246 45.2258 18.6023 45.1255C18.8877 45.0241 19.151 44.9117 19.4033 44.7563C19.6656 44.5966 19.951 44.482 20.1735 44.2969C20.4204 44.0919 20.6914 43.931 20.8843 43.7349C21.1432 43.4738 21.3592 43.2424 21.5101 43.0859C21.7217 42.8479 21.833 42.5239 22.0016 42.2551C22.1702 41.9862 22.4137 41.7504 22.5437 41.4584C22.6726 41.1697 22.7486 40.8491 22.8445 40.5461C22.9404 40.243 23.023 39.9301 23.0902 39.6205C23.1574 39.3075 23.1795 38.9858 23.2236 38.674C23.2687 38.3544 23.2621 38.0338 23.2875 37.7219C23.3139 37.398 23.4131 37.0828 23.4241 36.7754C23.4351 36.4437 23.3646 36.1231 23.3646 35.8212C23.3646 35.679 23.4021 34.7865 23.3789 34.4174C23.3657 34.1926 23.2963 33.7474 23.282 33.2891C23.2698 32.8703 23.1971 32.4208 23.2963 32.1431C23.3988 31.8588 23.683 31.7277 23.8759 31.5756C24.1469 31.363 24.4015 31.2208 24.5657 31.2065C24.8621 31.1812 25.1441 31.0853 25.3899 31.115C25.6896 31.1525 25.9452 31.3035 26.1667 31.4103C26.4322 31.5393 26.6328 31.7266 26.7804 31.9359C26.9402 32.1629 27.122 32.4395 27.2377 32.7712C27.3369 33.0533 27.4548 33.3629 27.5176 33.6879C27.5771 33.9932 27.6333 34.3182 27.6586 34.6367C27.684 34.9562 27.6983 35.2879 27.6862 35.5975C27.6686 36.0878 27.608 36.6399 27.587 36.976C27.5683 37.2856 27.6046 37.5732 27.8052 37.788C28.0024 37.9996 28.2823 38.1583 28.5875 38.1913C28.9093 38.2277 29.2013 38.0822 29.4547 37.8806C29.707 37.6779 29.9153 37.4244 29.9506 37.1038C29.9792 36.8503 30.0045 36.598 30.0189 36.3479C30.0343 36.0922 30.0332 35.8377 30.0332 35.5887C30.0332 35.2603 29.9792 34.9386 29.9539 34.6201C29.9285 34.294 29.9439 33.9645 29.891 33.6483C29.8371 33.3276 29.8095 32.9971 29.728 32.6852C29.6464 32.3723 29.5715 32.0483 29.4613 31.742C29.3522 31.4401 29.188 31.1492 29.0514 30.8528C28.9225 30.5762 28.6613 30.3845 28.4641 30.1575C28.268 29.9327 28.0785 29.7024 27.8239 29.5294C27.5815 29.3642 27.3204 29.2121 27.0317 29.0964C26.7595 28.9873 26.4598 28.9465 26.1535 28.8848C25.867 28.8275 25.5783 28.692 25.2665 28.6777C24.9745 28.6645 24.6615 28.649 24.3519 28.6755C24.0764 28.6997 23.7811 28.8231 23.4847 28.9289ZM37.3122 31.2825C37.0478 31.3542 36.7833 31.4886 36.6247 31.6946C36.4671 31.9007 36.412 32.1916 36.412 32.4649C36.412 32.8935 36.769 33.31 37.05 33.472C37.3299 33.6339 37.656 33.808 37.9678 33.7232C38.1419 33.6769 38.489 33.5337 38.9122 33.5414C39.2273 33.548 39.5722 33.5535 39.8851 33.57C40.3281 33.5932 40.706 33.5766 40.8526 33.5766C41.2812 33.5766 41.6338 33.8202 41.939 33.9282C42.3577 34.078 42.6244 34.2389 42.6244 34.6367C42.6244 35.0719 42.2409 35.322 41.5919 35.3033C41.0785 35.2879 40.641 35.2735 40.2146 35.2702C39.841 35.2669 39.4807 35.127 39.1017 35.116C38.7513 35.105 38.3811 35.1854 37.98 35.1556C37.7761 35.1402 37.5095 35.0565 37.1976 35.03C36.8516 35.0014 36.5277 34.9816 36.2247 34.9573C35.8754 34.9298 35.5536 34.8857 35.2561 34.8648C34.898 34.8405 34.5741 34.8427 34.2843 34.8284C33.9096 34.8097 33.589 34.8912 33.3124 34.8901C32.9047 34.889 32.605 34.8978 32.3571 34.9386C31.9306 35.0069 31.7356 35.1083 31.5307 35.3088C31.2166 35.6162 31.0039 35.917 30.8982 36.2774C30.7836 36.6696 30.6734 37.0685 30.6734 37.452C30.6734 37.5666 30.8321 37.6999 30.8354 37.9489C30.8354 38.1373 30.637 38.3853 30.4442 38.6266C30.3032 38.804 30.1213 38.9902 29.8911 39.1367C29.5715 39.3384 29.2024 39.4023 28.8432 39.4254C28.4652 39.4497 28.0575 39.4927 27.7336 39.3571C27.3688 39.2029 27.1187 38.8734 26.9611 38.5671C26.8311 38.3147 26.7882 38.0382 26.7342 37.7407C26.6846 37.4718 26.5171 37.1974 26.5039 36.8878C26.4928 36.6145 26.4962 36.3214 26.4962 36.014C26.4951 35.7022 26.5237 35.3892 26.516 35.0697C26.5072 34.7601 26.4785 34.4504 26.4477 34.1309C26.4179 33.8246 26.5116 33.4929 26.4477 33.1756C26.3838 32.8582 26.0863 32.6643 25.8174 32.4858C25.5474 32.3062 25.2488 32.0781 24.9315 32.142C24.645 32.1993 24.461 32.5155 24.2891 32.7954C24.148 33.0268 24.0985 33.2946 24.0929 33.6351C24.0863 34.0141 24.1062 34.4108 24.1469 34.8207C24.1855 35.2207 24.148 35.6317 24.1491 36.0206C24.1491 36.3468 24.0797 36.6784 24.0907 37.0079C24.1018 37.3363 24.1161 37.6734 24.158 37.9996C24.2009 38.3247 24.3662 38.631 24.4599 38.9483C24.5513 39.258 24.5778 39.6095 24.7375 39.9059C24.8896 40.1868 25.1419 40.4436 25.3943 40.6827C25.6268 40.9031 25.9055 41.1091 26.2031 41.2821C26.4829 41.4441 26.8091 41.5543 27.1308 41.6634C27.4405 41.768 27.7743 41.8077 28.1082 41.8551C28.4333 41.9014 28.7671 42.0005 29.1021 41.9829C29.4316 41.9653 29.7533 41.8408 30.0784 41.7548C30.3946 41.67 30.7318 41.6083 31.0315 41.4507C31.3257 41.2953 31.6287 41.0926 31.9152 40.8612C32.1786 40.6485 32.3538 40.3378 32.5576 40.0293C32.7383 39.756 33.0127 39.4927 33.1096 39.1213C33.1901 38.8117 33.1758 38.4459 33.1758 38.0547C33.1515 37.4134 33.1185 37.1335 33.9361 37.1445C34.1476 37.1479 34.4958 37.2492 34.9024 37.2834C35.2032 37.3098 35.5338 37.355 35.8677 37.3859C36.1982 37.4156 36.5343 37.4002 36.8373 37.4233C37.2307 37.4542 37.5723 37.4399 37.8026 37.4387C38.24 37.4365 38.6367 37.4421 39.0113 37.4619C39.4212 37.4828 39.8069 37.4983 40.2102 37.5027C40.5969 37.506 41.0366 37.5291 41.5258 37.5445C41.7594 37.5511 42.0525 37.6437 42.3743 37.6162C42.6398 37.593 42.9296 37.5544 43.2128 37.4597C43.4684 37.3726 43.6932 37.1941 43.9323 37.0134C44.1582 36.8426 44.4073 36.6751 44.5769 36.4283C44.7389 36.1925 44.8789 35.9237 44.9681 35.6394C45.0541 35.3672 45.0937 35.0686 45.0937 34.7689C45.0937 34.4791 45.1036 34.186 45.0508 33.9193C44.9924 33.6317 44.9119 33.3419 44.794 33.1006C44.664 32.8362 44.4723 32.5971 44.275 32.412C44.0491 32.1993 43.7924 32.001 43.5235 31.8434C43.2602 31.688 42.9715 31.5371 42.6707 31.4368C42.3842 31.3409 42.0492 31.396 41.7319 31.3519C41.4344 31.3112 41.1303 31.2715 40.8096 31.2781C40.5474 31.2825 40.2289 31.2109 39.8917 31.1812C39.6251 31.158 39.3287 31.2528 39.0257 31.2407C38.7469 31.2307 38.4582 31.1117 38.164 31.136C37.8819 31.158 37.5943 31.2065 37.3122 31.2825Z" fill="#7CD2FF"/>
</svg>
