<svg width="390" height="390" viewBox="0 0 390 390" fill="none" xmlns="http://www.w3.org/2000/svg">
<g filter="url(#filter0_d_55_243)">
<path opacity="0.6" d="M36.6923 38.4231V43.6154H38.4231V38.4231H43.6154V36.6923H38.4231V31.5H36.6923V36.6923H31.5V38.4231H36.6923Z" fill="#0F4A81"/>
<path opacity="0.6" d="M36.6923 85.1538V90.3461H38.4231V85.1538H43.6154V83.423H38.4231V78.2307H36.6923V83.423H31.5V85.1538H36.6923Z" fill="#0F4A81"/>
<path opacity="0.6" d="M82.5578 38.4231V43.6154H84.2886V38.4231H89.4809V36.6923H84.2886V31.5H82.5578V36.6923H77.3655V38.4231H82.5578Z" fill="#0F4A81"/>
<path opacity="0.6" d="M82.5578 85.1538V90.3461H84.2886V85.1538H89.4809V83.423H84.2886V78.2307H82.5578V83.423H77.3655V85.1538H82.5578Z" fill="#0F4A81"/>
<line opacity="0.2" x1="15.9231" y1="37.5577" x2="104.192" y2="37.5577" stroke="#0F4A81" stroke-width="0.865385"/>
<line opacity="0.2" x1="15.9231" y1="84.2885" x2="104.192" y2="84.2885" stroke="#0F4A81" stroke-width="0.865385"/>
<line opacity="0.2" x1="15.9231" y1="60.923" x2="104.192" y2="60.923" stroke="#0F4A81" stroke-width="0.865385"/>
<line opacity="0.2" x1="83.4232" y1="15.9231" x2="83.4232" y2="104.192" stroke="#0F4A81" stroke-width="0.865385"/>
<line opacity="0.2" x1="37.5577" y1="15.9231" x2="37.5577" y2="104.192" stroke="#0F4A81" stroke-width="0.865385"/>
<line opacity="0.2" x1="60.4903" y1="15.9231" x2="60.4903" y2="104.192" stroke="#0F4A81" stroke-width="0.865385"/>
<path d="M14.1923 15.9231V21.1154H15.9231V15.9231H21.1154V14.1923H15.9231V9H14.1923V14.1923H9V15.9231H14.1923Z" fill="#3B90F7"/>
<path d="M104.192 15.9231V21.1154H105.923V15.9231H111.115V14.1923H105.923V9H104.192V14.1923H99V15.9231H104.192Z" fill="#0F4A81"/>
<path d="M14.1923 105.923V111.115H15.9231V105.923H21.1154V104.192H15.9231V99H14.1923V104.192H9V105.923H14.1923Z" fill="#0F4A81"/>
<path d="M104.192 105.923V111.115H105.923V105.923H111.115V104.192H105.923V99H104.192V104.192H99V105.923H104.192Z" fill="#0F4A81"/>
<rect opacity="0.3" x="23.7114" y="14.1923" width="72.6923" height="1.73077" fill="#0F4A81"/>
<rect opacity="0.3" x="23.7114" y="104.192" width="72.6923" height="1.73077" fill="#0F4A81"/>
<rect opacity="0.3" x="15.9231" y="23.7115" width="72.6923" height="1.73077" transform="rotate(90 15.9231 23.7115)" fill="#0F4A81"/>
<rect opacity="0.3" x="105.923" y="23.7115" width="72.6923" height="1.73077" transform="rotate(90 105.923 23.7115)" fill="#0F4A81"/>
</g>
<g filter="url(#filter1_d_55_243)">
<path opacity="0.6" d="M126.692 38.4231V43.6154H128.423V38.4231H133.615V36.6923H128.423V31.5H126.692V36.6923H121.5V38.4231H126.692Z" fill="#0F4A81"/>
<path opacity="0.6" d="M126.692 85.1538V90.3461H128.423V85.1538H133.615V83.423H128.423V78.2307H126.692V83.423H121.5V85.1538H126.692Z" fill="#0F4A81"/>
<path opacity="0.6" d="M172.558 38.4231V43.6154H174.289V38.4231H179.481V36.6923H174.289V31.5H172.558V36.6923H167.365V38.4231H172.558Z" fill="#0F4A81"/>
<path opacity="0.6" d="M172.558 85.1538V90.3461H174.289V85.1538H179.481V83.423H174.289V78.2307H172.558V83.423H167.365V85.1538H172.558Z" fill="#0F4A81"/>
<line opacity="0.2" x1="105.923" y1="37.5577" x2="194.192" y2="37.5577" stroke="#0F4A81" stroke-width="0.865385"/>
<line opacity="0.2" x1="105.923" y1="84.2885" x2="194.192" y2="84.2885" stroke="#0F4A81" stroke-width="0.865385"/>
<line opacity="0.2" x1="105.923" y1="60.923" x2="194.192" y2="60.923" stroke="#0F4A81" stroke-width="0.865385"/>
<line opacity="0.2" x1="173.423" y1="15.9231" x2="173.423" y2="104.192" stroke="#0F4A81" stroke-width="0.865385"/>
<line opacity="0.2" x1="127.558" y1="15.9231" x2="127.558" y2="104.192" stroke="#0F4A81" stroke-width="0.865385"/>
<line opacity="0.2" x1="150.49" y1="15.9231" x2="150.49" y2="104.192" stroke="#0F4A81" stroke-width="0.865385"/>
<path d="M104.192 15.9231V21.1154H105.923V15.9231H111.115V14.1923H105.923V9H104.192V14.1923H99V15.9231H104.192Z" fill="#0F4A81"/>
<path d="M194.192 15.9231V21.1154H195.923V15.9231H201.115V14.1923H195.923V9H194.192V14.1923H189V15.9231H194.192Z" fill="#0F4A81"/>
<path d="M104.192 105.923V111.115H105.923V105.923H111.115V104.192H105.923V99H104.192V104.192H99V105.923H104.192Z" fill="#0F4A81"/>
<path d="M194.192 105.923V111.115H195.923V105.923H201.115V104.192H195.923V99H194.192V104.192H189V105.923H194.192Z" fill="#0F4A81"/>
<rect opacity="0.3" x="113.711" y="14.1923" width="72.6923" height="1.73077" fill="#0F4A81"/>
<rect opacity="0.3" x="113.711" y="104.192" width="72.6923" height="1.73077" fill="#0F4A81"/>
<rect opacity="0.3" x="105.923" y="23.7115" width="72.6923" height="1.73077" transform="rotate(90 105.923 23.7115)" fill="#0F4A81"/>
<rect opacity="0.3" x="195.923" y="23.7115" width="72.6923" height="1.73077" transform="rotate(90 195.923 23.7115)" fill="#0F4A81"/>
</g>
<g filter="url(#filter2_d_55_243)">
<path opacity="0.6" d="M216.692 38.4231V43.6154H218.423V38.4231H223.615V36.6923H218.423V31.5H216.692V36.6923H211.5V38.4231H216.692Z" fill="#0F4A81"/>
<path opacity="0.6" d="M216.692 85.1538V90.3461H218.423V85.1538H223.615V83.423H218.423V78.2307H216.692V83.423H211.5V85.1538H216.692Z" fill="#0F4A81"/>
<path opacity="0.6" d="M262.558 38.4231V43.6154H264.289V38.4231H269.481V36.6923H264.289V31.5H262.558V36.6923H257.365V38.4231H262.558Z" fill="#0F4A81"/>
<path opacity="0.6" d="M262.558 85.1538V90.3461H264.289V85.1538H269.481V83.423H264.289V78.2307H262.558V83.423H257.365V85.1538H262.558Z" fill="#0F4A81"/>
<line opacity="0.2" x1="195.923" y1="37.5577" x2="284.192" y2="37.5577" stroke="#0F4A81" stroke-width="0.865385"/>
<line opacity="0.2" x1="195.923" y1="84.2885" x2="284.192" y2="84.2885" stroke="#0F4A81" stroke-width="0.865385"/>
<line opacity="0.2" x1="195.923" y1="60.923" x2="284.192" y2="60.923" stroke="#0F4A81" stroke-width="0.865385"/>
<line opacity="0.2" x1="263.423" y1="15.9231" x2="263.423" y2="104.192" stroke="#0F4A81" stroke-width="0.865385"/>
<line opacity="0.2" x1="217.558" y1="15.9231" x2="217.558" y2="104.192" stroke="#0F4A81" stroke-width="0.865385"/>
<line opacity="0.2" x1="240.49" y1="15.9231" x2="240.49" y2="104.192" stroke="#0F4A81" stroke-width="0.865385"/>
<path d="M194.192 15.9231V21.1154H195.923V15.9231H201.115V14.1923H195.923V9H194.192V14.1923H189V15.9231H194.192Z" fill="#0F4A81"/>
<path d="M284.192 15.9231V21.1154H285.923V15.9231H291.115V14.1923H285.923V9H284.192V14.1923H279V15.9231H284.192Z" fill="#0F4A81"/>
<path d="M194.192 105.923V111.115H195.923V105.923H201.115V104.192H195.923V99H194.192V104.192H189V105.923H194.192Z" fill="#0F4A81"/>
<path d="M284.192 105.923V111.115H285.923V105.923H291.115V104.192H285.923V99H284.192V104.192H279V105.923H284.192Z" fill="#0F4A81"/>
<rect opacity="0.3" x="203.711" y="14.1923" width="72.6923" height="1.73077" fill="#0F4A81"/>
<rect opacity="0.3" x="203.711" y="104.192" width="72.6923" height="1.73077" fill="#0F4A81"/>
<rect opacity="0.3" x="195.923" y="23.7115" width="72.6923" height="1.73077" transform="rotate(90 195.923 23.7115)" fill="#0F4A81"/>
<rect opacity="0.3" x="285.923" y="23.7115" width="72.6923" height="1.73077" transform="rotate(90 285.923 23.7115)" fill="#0F4A81"/>
</g>
<g filter="url(#filter3_d_55_243)">
<path opacity="0.6" d="M306.692 38.4231V43.6154H308.423V38.4231H313.615V36.6923H308.423V31.5H306.692V36.6923H301.5V38.4231H306.692Z" fill="#0F4A81"/>
<path opacity="0.6" d="M306.692 85.1538V90.3461H308.423V85.1538H313.615V83.423H308.423V78.2307H306.692V83.423H301.5V85.1538H306.692Z" fill="#0F4A81"/>
<path opacity="0.6" d="M352.558 38.4231V43.6154H354.289V38.4231H359.481V36.6923H354.289V31.5H352.558V36.6923H347.365V38.4231H352.558Z" fill="#0F4A81"/>
<path opacity="0.6" d="M352.558 85.1538V90.3461H354.289V85.1538H359.481V83.423H354.289V78.2307H352.558V83.423H347.365V85.1538H352.558Z" fill="#0F4A81"/>
<line opacity="0.2" x1="285.923" y1="37.5577" x2="374.192" y2="37.5577" stroke="#0F4A81" stroke-width="0.865385"/>
<line opacity="0.2" x1="285.923" y1="84.2885" x2="374.192" y2="84.2885" stroke="#0F4A81" stroke-width="0.865385"/>
<line opacity="0.2" x1="285.923" y1="60.923" x2="374.192" y2="60.923" stroke="#0F4A81" stroke-width="0.865385"/>
<line opacity="0.2" x1="353.423" y1="15.9231" x2="353.423" y2="104.192" stroke="#0F4A81" stroke-width="0.865385"/>
<line opacity="0.2" x1="307.558" y1="15.9231" x2="307.558" y2="104.192" stroke="#0F4A81" stroke-width="0.865385"/>
<line opacity="0.2" x1="330.49" y1="15.9231" x2="330.49" y2="104.192" stroke="#0F4A81" stroke-width="0.865385"/>
<path d="M284.192 15.9231V21.1154H285.923V15.9231H291.115V14.1923H285.923V9H284.192V14.1923H279V15.9231H284.192Z" fill="#0F4A81"/>
<path d="M374.192 15.9231V21.1154H375.923V15.9231H381.115V14.1923H375.923V9H374.192V14.1923H369V15.9231H374.192Z" fill="#3B90F7"/>
<path d="M284.192 105.923V111.115H285.923V105.923H291.115V104.192H285.923V99H284.192V104.192H279V105.923H284.192Z" fill="#0F4A81"/>
<path d="M374.192 105.923V111.115H375.923V105.923H381.115V104.192H375.923V99H374.192V104.192H369V105.923H374.192Z" fill="#0F4A81"/>
<rect opacity="0.3" x="293.711" y="14.1923" width="72.6923" height="1.73077" fill="#0F4A81"/>
<rect opacity="0.3" x="293.711" y="104.192" width="72.6923" height="1.73077" fill="#0F4A81"/>
<rect opacity="0.3" x="285.923" y="23.7115" width="72.6923" height="1.73077" transform="rotate(90 285.923 23.7115)" fill="#0F4A81"/>
<rect opacity="0.3" x="375.923" y="23.7115" width="72.6923" height="1.73077" transform="rotate(90 375.923 23.7115)" fill="#0F4A81"/>
</g>
<g filter="url(#filter4_d_55_243)">
<path opacity="0.6" d="M36.6923 128.423V133.615H38.4231V128.423H43.6154V126.692H38.4231V121.5H36.6923V126.692H31.5V128.423H36.6923Z" fill="#0F4A81"/>
<path opacity="0.6" d="M36.6923 175.154V180.346H38.4231V175.154H43.6154V173.423H38.4231V168.231H36.6923V173.423H31.5V175.154H36.6923Z" fill="#0F4A81"/>
<path opacity="0.6" d="M82.5578 128.423V133.615H84.2886V128.423H89.4809V126.692H84.2886V121.5H82.5578V126.692H77.3655V128.423H82.5578Z" fill="#0F4A81"/>
<path opacity="0.6" d="M82.5578 175.154V180.346H84.2886V175.154H89.4809V173.423H84.2886V168.231H82.5578V173.423H77.3655V175.154H82.5578Z" fill="#0F4A81"/>
<line opacity="0.2" x1="15.9231" y1="127.558" x2="104.192" y2="127.558" stroke="#0F4A81" stroke-width="0.865385"/>
<line opacity="0.2" x1="15.9231" y1="174.288" x2="104.192" y2="174.288" stroke="#0F4A81" stroke-width="0.865385"/>
<line opacity="0.2" x1="15.9231" y1="150.923" x2="104.192" y2="150.923" stroke="#0F4A81" stroke-width="0.865385"/>
<line opacity="0.2" x1="83.4232" y1="105.923" x2="83.4232" y2="194.192" stroke="#0F4A81" stroke-width="0.865385"/>
<line opacity="0.2" x1="37.5577" y1="105.923" x2="37.5577" y2="194.192" stroke="#0F4A81" stroke-width="0.865385"/>
<line opacity="0.2" x1="60.4903" y1="105.923" x2="60.4903" y2="194.192" stroke="#0F4A81" stroke-width="0.865385"/>
<path d="M14.1923 105.923V111.115H15.9231V105.923H21.1154V104.192H15.9231V99H14.1923V104.192H9V105.923H14.1923Z" fill="#0F4A81"/>
<path d="M104.192 105.923V111.115H105.923V105.923H111.115V104.192H105.923V99H104.192V104.192H99V105.923H104.192Z" fill="#0F4A81"/>
<path d="M14.1923 195.923V201.115H15.9231V195.923H21.1154V194.192H15.9231V189H14.1923V194.192H9V195.923H14.1923Z" fill="#0F4A81"/>
<path d="M104.192 195.923V201.115H105.923V195.923H111.115V194.192H105.923V189H104.192V194.192H99V195.923H104.192Z" fill="#0F4A81"/>
<rect opacity="0.3" x="23.7114" y="104.192" width="72.6923" height="1.73077" fill="#0F4A81"/>
<rect opacity="0.3" x="23.7114" y="194.192" width="72.6923" height="1.73077" fill="#0F4A81"/>
<rect opacity="0.3" x="15.9231" y="113.712" width="72.6923" height="1.73077" transform="rotate(90 15.9231 113.712)" fill="#0F4A81"/>
<rect opacity="0.3" x="105.923" y="113.712" width="72.6923" height="1.73077" transform="rotate(90 105.923 113.712)" fill="#0F4A81"/>
</g>
<g filter="url(#filter5_d_55_243)">
<path opacity="0.6" d="M126.692 128.423V133.615H128.423V128.423H133.615V126.692H128.423V121.5H126.692V126.692H121.5V128.423H126.692Z" fill="#0F4A81"/>
<path opacity="0.6" d="M126.692 175.154V180.346H128.423V175.154H133.615V173.423H128.423V168.231H126.692V173.423H121.5V175.154H126.692Z" fill="#0F4A81"/>
<path opacity="0.6" d="M172.558 128.423V133.615H174.289V128.423H179.481V126.692H174.289V121.5H172.558V126.692H167.365V128.423H172.558Z" fill="#0F4A81"/>
<path opacity="0.6" d="M172.558 175.154V180.346H174.289V175.154H179.481V173.423H174.289V168.231H172.558V173.423H167.365V175.154H172.558Z" fill="#0F4A81"/>
<line opacity="0.2" x1="105.923" y1="127.558" x2="194.192" y2="127.558" stroke="#0F4A81" stroke-width="0.865385"/>
<line opacity="0.2" x1="105.923" y1="174.288" x2="194.192" y2="174.288" stroke="#0F4A81" stroke-width="0.865385"/>
<line opacity="0.2" x1="105.923" y1="150.923" x2="194.192" y2="150.923" stroke="#0F4A81" stroke-width="0.865385"/>
<line opacity="0.2" x1="173.423" y1="105.923" x2="173.423" y2="194.192" stroke="#0F4A81" stroke-width="0.865385"/>
<line opacity="0.2" x1="127.558" y1="105.923" x2="127.558" y2="194.192" stroke="#0F4A81" stroke-width="0.865385"/>
<line opacity="0.2" x1="150.49" y1="105.923" x2="150.49" y2="194.192" stroke="#0F4A81" stroke-width="0.865385"/>
<path d="M104.192 105.923V111.115H105.923V105.923H111.115V104.192H105.923V99H104.192V104.192H99V105.923H104.192Z" fill="#0F4A81"/>
<path d="M194.192 105.923V111.115H195.923V105.923H201.115V104.192H195.923V99H194.192V104.192H189V105.923H194.192Z" fill="#0F4A81"/>
<path d="M104.192 195.923V201.115H105.923V195.923H111.115V194.192H105.923V189H104.192V194.192H99V195.923H104.192Z" fill="#0F4A81"/>
<path d="M194.192 195.923V201.115H195.923V195.923H201.115V194.192H195.923V189H194.192V194.192H189V195.923H194.192Z" fill="#0F4A81"/>
<rect opacity="0.3" x="113.711" y="104.192" width="72.6923" height="1.73077" fill="#0F4A81"/>
<rect opacity="0.3" x="113.711" y="194.192" width="72.6923" height="1.73077" fill="#0F4A81"/>
<rect opacity="0.3" x="105.923" y="113.712" width="72.6923" height="1.73077" transform="rotate(90 105.923 113.712)" fill="#0F4A81"/>
<rect opacity="0.3" x="195.923" y="113.712" width="72.6923" height="1.73077" transform="rotate(90 195.923 113.712)" fill="#0F4A81"/>
</g>
<g filter="url(#filter6_d_55_243)">
<path opacity="0.6" d="M216.692 128.423V133.615H218.423V128.423H223.615V126.692H218.423V121.5H216.692V126.692H211.5V128.423H216.692Z" fill="#0F4A81"/>
<path opacity="0.6" d="M216.692 175.154V180.346H218.423V175.154H223.615V173.423H218.423V168.231H216.692V173.423H211.5V175.154H216.692Z" fill="#0F4A81"/>
<path opacity="0.6" d="M262.558 128.423V133.615H264.289V128.423H269.481V126.692H264.289V121.5H262.558V126.692H257.365V128.423H262.558Z" fill="#0F4A81"/>
<path opacity="0.6" d="M262.558 175.154V180.346H264.289V175.154H269.481V173.423H264.289V168.231H262.558V173.423H257.365V175.154H262.558Z" fill="#0F4A81"/>
<line opacity="0.2" x1="195.923" y1="127.558" x2="284.192" y2="127.558" stroke="#0F4A81" stroke-width="0.865385"/>
<line opacity="0.2" x1="195.923" y1="174.288" x2="284.192" y2="174.288" stroke="#0F4A81" stroke-width="0.865385"/>
<line opacity="0.2" x1="195.923" y1="150.923" x2="284.192" y2="150.923" stroke="#0F4A81" stroke-width="0.865385"/>
<line opacity="0.2" x1="263.423" y1="105.923" x2="263.423" y2="194.192" stroke="#0F4A81" stroke-width="0.865385"/>
<line opacity="0.2" x1="217.558" y1="105.923" x2="217.558" y2="194.192" stroke="#0F4A81" stroke-width="0.865385"/>
<line opacity="0.2" x1="240.49" y1="105.923" x2="240.49" y2="194.192" stroke="#0F4A81" stroke-width="0.865385"/>
<path d="M194.192 105.923V111.115H195.923V105.923H201.115V104.192H195.923V99H194.192V104.192H189V105.923H194.192Z" fill="#0F4A81"/>
<path d="M284.192 105.923V111.115H285.923V105.923H291.115V104.192H285.923V99H284.192V104.192H279V105.923H284.192Z" fill="#0F4A81"/>
<path d="M194.192 195.923V201.115H195.923V195.923H201.115V194.192H195.923V189H194.192V194.192H189V195.923H194.192Z" fill="#0F4A81"/>
<path d="M284.192 195.923V201.115H285.923V195.923H291.115V194.192H285.923V189H284.192V194.192H279V195.923H284.192Z" fill="#0F4A81"/>
<rect opacity="0.3" x="203.711" y="104.192" width="72.6923" height="1.73077" fill="#0F4A81"/>
<rect opacity="0.3" x="203.711" y="194.192" width="72.6923" height="1.73077" fill="#0F4A81"/>
<rect opacity="0.3" x="195.923" y="113.712" width="72.6923" height="1.73077" transform="rotate(90 195.923 113.712)" fill="#0F4A81"/>
<rect opacity="0.3" x="285.923" y="113.712" width="72.6923" height="1.73077" transform="rotate(90 285.923 113.712)" fill="#0F4A81"/>
</g>
<g filter="url(#filter7_d_55_243)">
<path opacity="0.6" d="M306.692 128.423V133.615H308.423V128.423H313.615V126.692H308.423V121.5H306.692V126.692H301.5V128.423H306.692Z" fill="#0F4A81"/>
<path opacity="0.6" d="M306.692 175.154V180.346H308.423V175.154H313.615V173.423H308.423V168.231H306.692V173.423H301.5V175.154H306.692Z" fill="#0F4A81"/>
<path opacity="0.6" d="M352.558 128.423V133.615H354.289V128.423H359.481V126.692H354.289V121.5H352.558V126.692H347.365V128.423H352.558Z" fill="#0F4A81"/>
<path opacity="0.6" d="M352.558 175.154V180.346H354.289V175.154H359.481V173.423H354.289V168.231H352.558V173.423H347.365V175.154H352.558Z" fill="#0F4A81"/>
<line opacity="0.2" x1="285.923" y1="127.558" x2="374.192" y2="127.558" stroke="#0F4A81" stroke-width="0.865385"/>
<line opacity="0.2" x1="285.923" y1="174.288" x2="374.192" y2="174.288" stroke="#0F4A81" stroke-width="0.865385"/>
<line opacity="0.2" x1="285.923" y1="150.923" x2="374.192" y2="150.923" stroke="#0F4A81" stroke-width="0.865385"/>
<line opacity="0.2" x1="353.423" y1="105.923" x2="353.423" y2="194.192" stroke="#0F4A81" stroke-width="0.865385"/>
<line opacity="0.2" x1="307.558" y1="105.923" x2="307.558" y2="194.192" stroke="#0F4A81" stroke-width="0.865385"/>
<line opacity="0.2" x1="330.49" y1="105.923" x2="330.49" y2="194.192" stroke="#0F4A81" stroke-width="0.865385"/>
<path d="M284.192 105.923V111.115H285.923V105.923H291.115V104.192H285.923V99H284.192V104.192H279V105.923H284.192Z" fill="#0F4A81"/>
<path d="M374.192 105.923V111.115H375.923V105.923H381.115V104.192H375.923V99H374.192V104.192H369V105.923H374.192Z" fill="#0F4A81"/>
<path d="M284.192 195.923V201.115H285.923V195.923H291.115V194.192H285.923V189H284.192V194.192H279V195.923H284.192Z" fill="#0F4A81"/>
<path d="M374.192 195.923V201.115H375.923V195.923H381.115V194.192H375.923V189H374.192V194.192H369V195.923H374.192Z" fill="#0F4A81"/>
<rect opacity="0.3" x="293.711" y="104.192" width="72.6923" height="1.73077" fill="#0F4A81"/>
<rect opacity="0.3" x="293.711" y="194.192" width="72.6923" height="1.73077" fill="#0F4A81"/>
<rect opacity="0.3" x="285.923" y="113.712" width="72.6923" height="1.73077" transform="rotate(90 285.923 113.712)" fill="#0F4A81"/>
<rect opacity="0.3" x="375.923" y="113.712" width="72.6923" height="1.73077" transform="rotate(90 375.923 113.712)" fill="#0F4A81"/>
</g>
<g filter="url(#filter8_d_55_243)">
<path opacity="0.6" d="M36.6923 218.423V223.615H38.4231V218.423H43.6154V216.692H38.4231V211.5H36.6923V216.692H31.5V218.423H36.6923Z" fill="#0F4A81"/>
<path opacity="0.6" d="M36.6923 265.154V270.346H38.4231V265.154H43.6154V263.423H38.4231V258.231H36.6923V263.423H31.5V265.154H36.6923Z" fill="#0F4A81"/>
<path opacity="0.6" d="M82.5578 218.423V223.615H84.2886V218.423H89.4809V216.692H84.2886V211.5H82.5578V216.692H77.3655V218.423H82.5578Z" fill="#0F4A81"/>
<path opacity="0.6" d="M82.5578 265.154V270.346H84.2886V265.154H89.4809V263.423H84.2886V258.231H82.5578V263.423H77.3655V265.154H82.5578Z" fill="#0F4A81"/>
<line opacity="0.2" x1="15.9231" y1="217.558" x2="104.192" y2="217.558" stroke="#0F4A81" stroke-width="0.865385"/>
<line opacity="0.2" x1="15.9231" y1="264.288" x2="104.192" y2="264.289" stroke="#0F4A81" stroke-width="0.865385"/>
<line opacity="0.2" x1="15.9231" y1="240.923" x2="104.192" y2="240.923" stroke="#0F4A81" stroke-width="0.865385"/>
<line opacity="0.2" x1="83.4232" y1="195.923" x2="83.4232" y2="284.192" stroke="#0F4A81" stroke-width="0.865385"/>
<line opacity="0.2" x1="37.5577" y1="195.923" x2="37.5577" y2="284.192" stroke="#0F4A81" stroke-width="0.865385"/>
<line opacity="0.2" x1="60.4903" y1="195.923" x2="60.4903" y2="284.192" stroke="#0F4A81" stroke-width="0.865385"/>
<path d="M14.1923 195.923V201.115H15.9231V195.923H21.1154V194.192H15.9231V189H14.1923V194.192H9V195.923H14.1923Z" fill="#0F4A81"/>
<path d="M104.192 195.923V201.115H105.923V195.923H111.115V194.192H105.923V189H104.192V194.192H99V195.923H104.192Z" fill="#0F4A81"/>
<path d="M14.1923 285.923V291.115H15.9231V285.923H21.1154V284.192H15.9231V279H14.1923V284.192H9V285.923H14.1923Z" fill="#0F4A81"/>
<path d="M104.192 285.923V291.115H105.923V285.923H111.115V284.192H105.923V279H104.192V284.192H99V285.923H104.192Z" fill="#0F4A81"/>
<rect opacity="0.3" x="23.7114" y="194.192" width="72.6923" height="1.73077" fill="#0F4A81"/>
<rect opacity="0.3" x="23.7114" y="284.192" width="72.6923" height="1.73077" fill="#0F4A81"/>
<rect opacity="0.3" x="15.9231" y="203.712" width="72.6923" height="1.73077" transform="rotate(90 15.9231 203.712)" fill="#0F4A81"/>
<rect opacity="0.3" x="105.923" y="203.712" width="72.6923" height="1.73077" transform="rotate(90 105.923 203.712)" fill="#0F4A81"/>
</g>
<g filter="url(#filter9_d_55_243)">
<path opacity="0.6" d="M126.692 218.423V223.615H128.423V218.423H133.615V216.692H128.423V211.5H126.692V216.692H121.5V218.423H126.692Z" fill="#0F4A81"/>
<path opacity="0.6" d="M126.692 265.154V270.346H128.423V265.154H133.615V263.423H128.423V258.231H126.692V263.423H121.5V265.154H126.692Z" fill="#0F4A81"/>
<path opacity="0.6" d="M172.558 218.423V223.615H174.289V218.423H179.481V216.692H174.289V211.5H172.558V216.692H167.365V218.423H172.558Z" fill="#0F4A81"/>
<path opacity="0.6" d="M172.558 265.154V270.346H174.289V265.154H179.481V263.423H174.289V258.231H172.558V263.423H167.365V265.154H172.558Z" fill="#0F4A81"/>
<line opacity="0.2" x1="105.923" y1="217.558" x2="194.192" y2="217.558" stroke="#0F4A81" stroke-width="0.865385"/>
<line opacity="0.2" x1="105.923" y1="264.288" x2="194.192" y2="264.289" stroke="#0F4A81" stroke-width="0.865385"/>
<line opacity="0.2" x1="105.923" y1="240.923" x2="194.192" y2="240.923" stroke="#0F4A81" stroke-width="0.865385"/>
<line opacity="0.2" x1="173.423" y1="195.923" x2="173.423" y2="284.192" stroke="#0F4A81" stroke-width="0.865385"/>
<line opacity="0.2" x1="127.558" y1="195.923" x2="127.558" y2="284.192" stroke="#0F4A81" stroke-width="0.865385"/>
<line opacity="0.2" x1="150.49" y1="195.923" x2="150.49" y2="284.192" stroke="#0F4A81" stroke-width="0.865385"/>
<path d="M104.192 195.923V201.115H105.923V195.923H111.115V194.192H105.923V189H104.192V194.192H99V195.923H104.192Z" fill="#0F4A81"/>
<path d="M194.192 195.923V201.115H195.923V195.923H201.115V194.192H195.923V189H194.192V194.192H189V195.923H194.192Z" fill="#0F4A81"/>
<path d="M104.192 285.923V291.115H105.923V285.923H111.115V284.192H105.923V279H104.192V284.192H99V285.923H104.192Z" fill="#0F4A81"/>
<path d="M194.192 285.923V291.115H195.923V285.923H201.115V284.192H195.923V279H194.192V284.192H189V285.923H194.192Z" fill="#0F4A81"/>
<rect opacity="0.3" x="113.711" y="194.192" width="72.6923" height="1.73077" fill="#0F4A81"/>
<rect opacity="0.3" x="113.711" y="284.192" width="72.6923" height="1.73077" fill="#0F4A81"/>
<rect opacity="0.3" x="105.923" y="203.712" width="72.6923" height="1.73077" transform="rotate(90 105.923 203.712)" fill="#0F4A81"/>
<rect opacity="0.3" x="195.923" y="203.712" width="72.6923" height="1.73077" transform="rotate(90 195.923 203.712)" fill="#0F4A81"/>
</g>
<g filter="url(#filter10_d_55_243)">
<path opacity="0.6" d="M216.692 218.423V223.615H218.423V218.423H223.615V216.692H218.423V211.5H216.692V216.692H211.5V218.423H216.692Z" fill="#0F4A81"/>
<path opacity="0.6" d="M216.692 265.154V270.346H218.423V265.154H223.615V263.423H218.423V258.231H216.692V263.423H211.5V265.154H216.692Z" fill="#0F4A81"/>
<path opacity="0.6" d="M262.558 218.423V223.615H264.289V218.423H269.481V216.692H264.289V211.5H262.558V216.692H257.365V218.423H262.558Z" fill="#0F4A81"/>
<path opacity="0.6" d="M262.558 265.154V270.346H264.289V265.154H269.481V263.423H264.289V258.231H262.558V263.423H257.365V265.154H262.558Z" fill="#0F4A81"/>
<line opacity="0.2" x1="195.923" y1="217.558" x2="284.192" y2="217.558" stroke="#0F4A81" stroke-width="0.865385"/>
<line opacity="0.2" x1="195.923" y1="264.288" x2="284.192" y2="264.289" stroke="#0F4A81" stroke-width="0.865385"/>
<line opacity="0.2" x1="195.923" y1="240.923" x2="284.192" y2="240.923" stroke="#0F4A81" stroke-width="0.865385"/>
<line opacity="0.2" x1="263.423" y1="195.923" x2="263.423" y2="284.192" stroke="#0F4A81" stroke-width="0.865385"/>
<line opacity="0.2" x1="217.558" y1="195.923" x2="217.558" y2="284.192" stroke="#0F4A81" stroke-width="0.865385"/>
<line opacity="0.2" x1="240.49" y1="195.923" x2="240.49" y2="284.192" stroke="#0F4A81" stroke-width="0.865385"/>
<path d="M194.192 195.923V201.115H195.923V195.923H201.115V194.192H195.923V189H194.192V194.192H189V195.923H194.192Z" fill="#0F4A81"/>
<path d="M284.192 195.923V201.115H285.923V195.923H291.115V194.192H285.923V189H284.192V194.192H279V195.923H284.192Z" fill="#0F4A81"/>
<path d="M194.192 285.923V291.115H195.923V285.923H201.115V284.192H195.923V279H194.192V284.192H189V285.923H194.192Z" fill="#0F4A81"/>
<path d="M284.192 285.923V291.115H285.923V285.923H291.115V284.192H285.923V279H284.192V284.192H279V285.923H284.192Z" fill="#0F4A81"/>
<rect opacity="0.3" x="203.711" y="194.192" width="72.6923" height="1.73077" fill="#0F4A81"/>
<rect opacity="0.3" x="203.711" y="284.192" width="72.6923" height="1.73077" fill="#0F4A81"/>
<rect opacity="0.3" x="195.923" y="203.712" width="72.6923" height="1.73077" transform="rotate(90 195.923 203.712)" fill="#0F4A81"/>
<rect opacity="0.3" x="285.923" y="203.712" width="72.6923" height="1.73077" transform="rotate(90 285.923 203.712)" fill="#0F4A81"/>
</g>
<g filter="url(#filter11_d_55_243)">
<path opacity="0.6" d="M306.692 218.423V223.615H308.423V218.423H313.615V216.692H308.423V211.5H306.692V216.692H301.5V218.423H306.692Z" fill="#0F4A81"/>
<path opacity="0.6" d="M306.692 265.154V270.346H308.423V265.154H313.615V263.423H308.423V258.231H306.692V263.423H301.5V265.154H306.692Z" fill="#0F4A81"/>
<path opacity="0.6" d="M352.558 218.423V223.615H354.289V218.423H359.481V216.692H354.289V211.5H352.558V216.692H347.365V218.423H352.558Z" fill="#0F4A81"/>
<path opacity="0.6" d="M352.558 265.154V270.346H354.289V265.154H359.481V263.423H354.289V258.231H352.558V263.423H347.365V265.154H352.558Z" fill="#0F4A81"/>
<line opacity="0.2" x1="285.923" y1="217.558" x2="374.192" y2="217.558" stroke="#0F4A81" stroke-width="0.865385"/>
<line opacity="0.2" x1="285.923" y1="264.288" x2="374.192" y2="264.289" stroke="#0F4A81" stroke-width="0.865385"/>
<line opacity="0.2" x1="285.923" y1="240.923" x2="374.192" y2="240.923" stroke="#0F4A81" stroke-width="0.865385"/>
<line opacity="0.2" x1="353.423" y1="195.923" x2="353.423" y2="284.192" stroke="#0F4A81" stroke-width="0.865385"/>
<line opacity="0.2" x1="307.558" y1="195.923" x2="307.558" y2="284.192" stroke="#0F4A81" stroke-width="0.865385"/>
<line opacity="0.2" x1="330.49" y1="195.923" x2="330.49" y2="284.192" stroke="#0F4A81" stroke-width="0.865385"/>
<path d="M284.192 195.923V201.115H285.923V195.923H291.115V194.192H285.923V189H284.192V194.192H279V195.923H284.192Z" fill="#0F4A81"/>
<path d="M374.192 195.923V201.115H375.923V195.923H381.115V194.192H375.923V189H374.192V194.192H369V195.923H374.192Z" fill="#0F4A81"/>
<path d="M284.192 285.923V291.115H285.923V285.923H291.115V284.192H285.923V279H284.192V284.192H279V285.923H284.192Z" fill="#0F4A81"/>
<path d="M374.192 285.923V291.115H375.923V285.923H381.115V284.192H375.923V279H374.192V284.192H369V285.923H374.192Z" fill="#0F4A81"/>
<rect opacity="0.3" x="293.711" y="194.192" width="72.6923" height="1.73077" fill="#0F4A81"/>
<rect opacity="0.3" x="293.711" y="284.192" width="72.6923" height="1.73077" fill="#0F4A81"/>
<rect opacity="0.3" x="285.923" y="203.712" width="72.6923" height="1.73077" transform="rotate(90 285.923 203.712)" fill="#0F4A81"/>
<rect opacity="0.3" x="375.923" y="203.712" width="72.6923" height="1.73077" transform="rotate(90 375.923 203.712)" fill="#0F4A81"/>
</g>
<g filter="url(#filter12_d_55_243)">
<path opacity="0.6" d="M36.6923 308.423V313.615H38.4231V308.423H43.6154V306.692H38.4231V301.5H36.6923V306.692H31.5V308.423H36.6923Z" fill="#0F4A81"/>
<path opacity="0.6" d="M36.6923 355.154V360.346H38.4231V355.154H43.6154V353.423H38.4231V348.231H36.6923V353.423H31.5V355.154H36.6923Z" fill="#0F4A81"/>
<path opacity="0.6" d="M82.5578 308.423V313.615H84.2886V308.423H89.4809V306.692H84.2886V301.5H82.5578V306.692H77.3655V308.423H82.5578Z" fill="#0F4A81"/>
<path opacity="0.6" d="M82.5578 355.154V360.346H84.2886V355.154H89.4809V353.423H84.2886V348.231H82.5578V353.423H77.3655V355.154H82.5578Z" fill="#0F4A81"/>
<line opacity="0.2" x1="15.9231" y1="307.558" x2="104.192" y2="307.558" stroke="#0F4A81" stroke-width="0.865385"/>
<line opacity="0.2" x1="15.9231" y1="354.288" x2="104.192" y2="354.289" stroke="#0F4A81" stroke-width="0.865385"/>
<line opacity="0.2" x1="15.9231" y1="330.923" x2="104.192" y2="330.923" stroke="#0F4A81" stroke-width="0.865385"/>
<line opacity="0.2" x1="83.4232" y1="285.923" x2="83.4232" y2="374.192" stroke="#0F4A81" stroke-width="0.865385"/>
<line opacity="0.2" x1="37.5577" y1="285.923" x2="37.5577" y2="374.192" stroke="#0F4A81" stroke-width="0.865385"/>
<line opacity="0.2" x1="60.4903" y1="285.923" x2="60.4903" y2="374.192" stroke="#0F4A81" stroke-width="0.865385"/>
<path d="M14.1923 285.923V291.115H15.9231V285.923H21.1154V284.192H15.9231V279H14.1923V284.192H9V285.923H14.1923Z" fill="#0F4A81"/>
<path d="M104.192 285.923V291.115H105.923V285.923H111.115V284.192H105.923V279H104.192V284.192H99V285.923H104.192Z" fill="#0F4A81"/>
<path d="M14.1923 375.923V381.115H15.9231V375.923H21.1154V374.192H15.9231V369H14.1923V374.192H9V375.923H14.1923Z" fill="#3B90F7"/>
<path d="M104.192 375.923V381.115H105.923V375.923H111.115V374.192H105.923V369H104.192V374.192H99V375.923H104.192Z" fill="#0F4A81"/>
<rect opacity="0.3" x="23.7114" y="284.192" width="72.6923" height="1.73077" fill="#0F4A81"/>
<rect opacity="0.3" x="23.7114" y="374.192" width="72.6923" height="1.73077" fill="#0F4A81"/>
<rect opacity="0.3" x="15.9231" y="293.711" width="72.6923" height="1.73077" transform="rotate(90 15.9231 293.711)" fill="#0F4A81"/>
<rect opacity="0.3" x="105.923" y="293.711" width="72.6923" height="1.73077" transform="rotate(90 105.923 293.711)" fill="#0F4A81"/>
</g>
<g filter="url(#filter13_d_55_243)">
<path opacity="0.6" d="M126.692 308.423V313.615H128.423V308.423H133.615V306.692H128.423V301.5H126.692V306.692H121.5V308.423H126.692Z" fill="#0F4A81"/>
<path opacity="0.6" d="M126.692 355.154V360.346H128.423V355.154H133.615V353.423H128.423V348.231H126.692V353.423H121.5V355.154H126.692Z" fill="#0F4A81"/>
<path opacity="0.6" d="M172.558 308.423V313.615H174.289V308.423H179.481V306.692H174.289V301.5H172.558V306.692H167.365V308.423H172.558Z" fill="#0F4A81"/>
<path opacity="0.6" d="M172.558 355.154V360.346H174.289V355.154H179.481V353.423H174.289V348.231H172.558V353.423H167.365V355.154H172.558Z" fill="#0F4A81"/>
<line opacity="0.2" x1="105.923" y1="307.558" x2="194.192" y2="307.558" stroke="#0F4A81" stroke-width="0.865385"/>
<line opacity="0.2" x1="105.923" y1="354.288" x2="194.192" y2="354.289" stroke="#0F4A81" stroke-width="0.865385"/>
<line opacity="0.2" x1="105.923" y1="330.923" x2="194.192" y2="330.923" stroke="#0F4A81" stroke-width="0.865385"/>
<line opacity="0.2" x1="173.423" y1="285.923" x2="173.423" y2="374.192" stroke="#0F4A81" stroke-width="0.865385"/>
<line opacity="0.2" x1="127.558" y1="285.923" x2="127.558" y2="374.192" stroke="#0F4A81" stroke-width="0.865385"/>
<line opacity="0.2" x1="150.49" y1="285.923" x2="150.49" y2="374.192" stroke="#0F4A81" stroke-width="0.865385"/>
<path d="M104.192 285.923V291.115H105.923V285.923H111.115V284.192H105.923V279H104.192V284.192H99V285.923H104.192Z" fill="#0F4A81"/>
<path d="M194.192 285.923V291.115H195.923V285.923H201.115V284.192H195.923V279H194.192V284.192H189V285.923H194.192Z" fill="#0F4A81"/>
<path d="M104.192 375.923V381.115H105.923V375.923H111.115V374.192H105.923V369H104.192V374.192H99V375.923H104.192Z" fill="#0F4A81"/>
<path d="M194.192 375.923V381.115H195.923V375.923H201.115V374.192H195.923V369H194.192V374.192H189V375.923H194.192Z" fill="#0F4A81"/>
<rect opacity="0.3" x="113.711" y="284.192" width="72.6923" height="1.73077" fill="#0F4A81"/>
<rect opacity="0.3" x="113.711" y="374.192" width="72.6923" height="1.73077" fill="#0F4A81"/>
<rect opacity="0.3" x="105.923" y="293.711" width="72.6923" height="1.73077" transform="rotate(90 105.923 293.711)" fill="#0F4A81"/>
<rect opacity="0.3" x="195.923" y="293.711" width="72.6923" height="1.73077" transform="rotate(90 195.923 293.711)" fill="#0F4A81"/>
</g>
<g filter="url(#filter14_d_55_243)">
<path opacity="0.6" d="M216.692 308.423V313.615H218.423V308.423H223.615V306.692H218.423V301.5H216.692V306.692H211.5V308.423H216.692Z" fill="#0F4A81"/>
<path opacity="0.6" d="M216.692 355.154V360.346H218.423V355.154H223.615V353.423H218.423V348.231H216.692V353.423H211.5V355.154H216.692Z" fill="#0F4A81"/>
<path opacity="0.6" d="M262.558 308.423V313.615H264.289V308.423H269.481V306.692H264.289V301.5H262.558V306.692H257.365V308.423H262.558Z" fill="#0F4A81"/>
<path opacity="0.6" d="M262.558 355.154V360.346H264.289V355.154H269.481V353.423H264.289V348.231H262.558V353.423H257.365V355.154H262.558Z" fill="#0F4A81"/>
<line opacity="0.2" x1="195.923" y1="307.558" x2="284.192" y2="307.558" stroke="#0F4A81" stroke-width="0.865385"/>
<line opacity="0.2" x1="195.923" y1="354.288" x2="284.192" y2="354.289" stroke="#0F4A81" stroke-width="0.865385"/>
<line opacity="0.2" x1="195.923" y1="330.923" x2="284.192" y2="330.923" stroke="#0F4A81" stroke-width="0.865385"/>
<line opacity="0.2" x1="263.423" y1="285.923" x2="263.423" y2="374.192" stroke="#0F4A81" stroke-width="0.865385"/>
<line opacity="0.2" x1="217.558" y1="285.923" x2="217.558" y2="374.192" stroke="#0F4A81" stroke-width="0.865385"/>
<line opacity="0.2" x1="240.49" y1="285.923" x2="240.49" y2="374.192" stroke="#0F4A81" stroke-width="0.865385"/>
<path d="M194.192 285.923V291.115H195.923V285.923H201.115V284.192H195.923V279H194.192V284.192H189V285.923H194.192Z" fill="#0F4A81"/>
<path d="M284.192 285.923V291.115H285.923V285.923H291.115V284.192H285.923V279H284.192V284.192H279V285.923H284.192Z" fill="#0F4A81"/>
<path d="M194.192 375.923V381.115H195.923V375.923H201.115V374.192H195.923V369H194.192V374.192H189V375.923H194.192Z" fill="#0F4A81"/>
<path d="M284.192 375.923V381.115H285.923V375.923H291.115V374.192H285.923V369H284.192V374.192H279V375.923H284.192Z" fill="#0F4A81"/>
<rect opacity="0.3" x="203.711" y="284.192" width="72.6923" height="1.73077" fill="#0F4A81"/>
<rect opacity="0.3" x="203.711" y="374.192" width="72.6923" height="1.73077" fill="#0F4A81"/>
<rect opacity="0.3" x="195.923" y="293.711" width="72.6923" height="1.73077" transform="rotate(90 195.923 293.711)" fill="#0F4A81"/>
<rect opacity="0.3" x="285.923" y="293.711" width="72.6923" height="1.73077" transform="rotate(90 285.923 293.711)" fill="#0F4A81"/>
</g>
<g filter="url(#filter15_d_55_243)">
<path opacity="0.6" d="M306.692 308.423V313.615H308.423V308.423H313.615V306.692H308.423V301.5H306.692V306.692H301.5V308.423H306.692Z" fill="#0F4A81"/>
<path opacity="0.6" d="M306.692 355.154V360.346H308.423V355.154H313.615V353.423H308.423V348.231H306.692V353.423H301.5V355.154H306.692Z" fill="#0F4A81"/>
<path opacity="0.6" d="M352.558 308.423V313.615H354.289V308.423H359.481V306.692H354.289V301.5H352.558V306.692H347.365V308.423H352.558Z" fill="#0F4A81"/>
<path opacity="0.6" d="M352.558 355.154V360.346H354.289V355.154H359.481V353.423H354.289V348.231H352.558V353.423H347.365V355.154H352.558Z" fill="#0F4A81"/>
<line opacity="0.2" x1="285.923" y1="307.558" x2="374.192" y2="307.558" stroke="#0F4A81" stroke-width="0.865385"/>
<line opacity="0.2" x1="285.923" y1="354.288" x2="374.192" y2="354.289" stroke="#0F4A81" stroke-width="0.865385"/>
<line opacity="0.2" x1="285.923" y1="330.923" x2="374.192" y2="330.923" stroke="#0F4A81" stroke-width="0.865385"/>
<line opacity="0.2" x1="353.423" y1="285.923" x2="353.423" y2="374.192" stroke="#0F4A81" stroke-width="0.865385"/>
<line opacity="0.2" x1="307.558" y1="285.923" x2="307.558" y2="374.192" stroke="#0F4A81" stroke-width="0.865385"/>
<line opacity="0.2" x1="330.49" y1="285.923" x2="330.49" y2="374.192" stroke="#0F4A81" stroke-width="0.865385"/>
<path d="M284.192 285.923V291.115H285.923V285.923H291.115V284.192H285.923V279H284.192V284.192H279V285.923H284.192Z" fill="#0F4A81"/>
<path d="M374.192 285.923V291.115H375.923V285.923H381.115V284.192H375.923V279H374.192V284.192H369V285.923H374.192Z" fill="#0F4A81"/>
<path d="M284.192 375.923V381.115H285.923V375.923H291.115V374.192H285.923V369H284.192V374.192H279V375.923H284.192Z" fill="#0F4A81"/>
<path d="M374.192 375.923V381.115H375.923V375.923H381.115V374.192H375.923V369H374.192V374.192H369V375.923H374.192Z" fill="#3B90F7"/>
<rect opacity="0.3" x="293.711" y="284.192" width="72.6923" height="1.73077" fill="#0F4A81"/>
<rect opacity="0.3" x="293.711" y="374.192" width="72.6923" height="1.73077" fill="#0F4A81"/>
<rect opacity="0.3" x="285.923" y="293.711" width="72.6923" height="1.73077" transform="rotate(90 285.923 293.711)" fill="#0F4A81"/>
<rect opacity="0.3" x="375.923" y="293.711" width="72.6923" height="1.73077" transform="rotate(90 375.923 293.711)" fill="#0F4A81"/>
</g>
<defs>
<filter id="filter0_d_55_243" x="0.346154" y="0.346154" width="119.423" height="119.423" filterUnits="userSpaceOnUse" color-interpolation-filters="sRGB">
<feFlood flood-opacity="0" result="BackgroundImageFix"/>
<feColorMatrix in="SourceAlpha" type="matrix" values="0 0 0 0 0 0 0 0 0 0 0 0 0 0 0 0 0 0 127 0" result="hardAlpha"/>
<feOffset/>
<feGaussianBlur stdDeviation="4.32692"/>
<feColorMatrix type="matrix" values="0 0 0 0 0.27451 0 0 0 0 0.439216 0 0 0 0 0.592157 0 0 0 0.5 0"/>
<feBlend mode="overlay" in2="BackgroundImageFix" result="effect1_dropShadow_55_243"/>
<feBlend mode="normal" in="SourceGraphic" in2="effect1_dropShadow_55_243" result="shape"/>
</filter>
<filter id="filter1_d_55_243" x="90.3462" y="0.346154" width="119.423" height="119.423" filterUnits="userSpaceOnUse" color-interpolation-filters="sRGB">
<feFlood flood-opacity="0" result="BackgroundImageFix"/>
<feColorMatrix in="SourceAlpha" type="matrix" values="0 0 0 0 0 0 0 0 0 0 0 0 0 0 0 0 0 0 127 0" result="hardAlpha"/>
<feOffset/>
<feGaussianBlur stdDeviation="4.32692"/>
<feColorMatrix type="matrix" values="0 0 0 0 0.27451 0 0 0 0 0.439216 0 0 0 0 0.592157 0 0 0 0.5 0"/>
<feBlend mode="overlay" in2="BackgroundImageFix" result="effect1_dropShadow_55_243"/>
<feBlend mode="normal" in="SourceGraphic" in2="effect1_dropShadow_55_243" result="shape"/>
</filter>
<filter id="filter2_d_55_243" x="180.346" y="0.346154" width="119.423" height="119.423" filterUnits="userSpaceOnUse" color-interpolation-filters="sRGB">
<feFlood flood-opacity="0" result="BackgroundImageFix"/>
<feColorMatrix in="SourceAlpha" type="matrix" values="0 0 0 0 0 0 0 0 0 0 0 0 0 0 0 0 0 0 127 0" result="hardAlpha"/>
<feOffset/>
<feGaussianBlur stdDeviation="4.32692"/>
<feColorMatrix type="matrix" values="0 0 0 0 0.27451 0 0 0 0 0.439216 0 0 0 0 0.592157 0 0 0 0.5 0"/>
<feBlend mode="overlay" in2="BackgroundImageFix" result="effect1_dropShadow_55_243"/>
<feBlend mode="normal" in="SourceGraphic" in2="effect1_dropShadow_55_243" result="shape"/>
</filter>
<filter id="filter3_d_55_243" x="270.346" y="0.346154" width="119.423" height="119.423" filterUnits="userSpaceOnUse" color-interpolation-filters="sRGB">
<feFlood flood-opacity="0" result="BackgroundImageFix"/>
<feColorMatrix in="SourceAlpha" type="matrix" values="0 0 0 0 0 0 0 0 0 0 0 0 0 0 0 0 0 0 127 0" result="hardAlpha"/>
<feOffset/>
<feGaussianBlur stdDeviation="4.32692"/>
<feColorMatrix type="matrix" values="0 0 0 0 0.27451 0 0 0 0 0.439216 0 0 0 0 0.592157 0 0 0 0.5 0"/>
<feBlend mode="overlay" in2="BackgroundImageFix" result="effect1_dropShadow_55_243"/>
<feBlend mode="normal" in="SourceGraphic" in2="effect1_dropShadow_55_243" result="shape"/>
</filter>
<filter id="filter4_d_55_243" x="0.346154" y="90.3462" width="119.423" height="119.423" filterUnits="userSpaceOnUse" color-interpolation-filters="sRGB">
<feFlood flood-opacity="0" result="BackgroundImageFix"/>
<feColorMatrix in="SourceAlpha" type="matrix" values="0 0 0 0 0 0 0 0 0 0 0 0 0 0 0 0 0 0 127 0" result="hardAlpha"/>
<feOffset/>
<feGaussianBlur stdDeviation="4.32692"/>
<feColorMatrix type="matrix" values="0 0 0 0 0.27451 0 0 0 0 0.439216 0 0 0 0 0.592157 0 0 0 0.5 0"/>
<feBlend mode="overlay" in2="BackgroundImageFix" result="effect1_dropShadow_55_243"/>
<feBlend mode="normal" in="SourceGraphic" in2="effect1_dropShadow_55_243" result="shape"/>
</filter>
<filter id="filter5_d_55_243" x="90.3462" y="90.3462" width="119.423" height="119.423" filterUnits="userSpaceOnUse" color-interpolation-filters="sRGB">
<feFlood flood-opacity="0" result="BackgroundImageFix"/>
<feColorMatrix in="SourceAlpha" type="matrix" values="0 0 0 0 0 0 0 0 0 0 0 0 0 0 0 0 0 0 127 0" result="hardAlpha"/>
<feOffset/>
<feGaussianBlur stdDeviation="4.32692"/>
<feColorMatrix type="matrix" values="0 0 0 0 0.27451 0 0 0 0 0.439216 0 0 0 0 0.592157 0 0 0 0.5 0"/>
<feBlend mode="overlay" in2="BackgroundImageFix" result="effect1_dropShadow_55_243"/>
<feBlend mode="normal" in="SourceGraphic" in2="effect1_dropShadow_55_243" result="shape"/>
</filter>
<filter id="filter6_d_55_243" x="180.346" y="90.3462" width="119.423" height="119.423" filterUnits="userSpaceOnUse" color-interpolation-filters="sRGB">
<feFlood flood-opacity="0" result="BackgroundImageFix"/>
<feColorMatrix in="SourceAlpha" type="matrix" values="0 0 0 0 0 0 0 0 0 0 0 0 0 0 0 0 0 0 127 0" result="hardAlpha"/>
<feOffset/>
<feGaussianBlur stdDeviation="4.32692"/>
<feColorMatrix type="matrix" values="0 0 0 0 0.27451 0 0 0 0 0.439216 0 0 0 0 0.592157 0 0 0 0.5 0"/>
<feBlend mode="overlay" in2="BackgroundImageFix" result="effect1_dropShadow_55_243"/>
<feBlend mode="normal" in="SourceGraphic" in2="effect1_dropShadow_55_243" result="shape"/>
</filter>
<filter id="filter7_d_55_243" x="270.346" y="90.3462" width="119.423" height="119.423" filterUnits="userSpaceOnUse" color-interpolation-filters="sRGB">
<feFlood flood-opacity="0" result="BackgroundImageFix"/>
<feColorMatrix in="SourceAlpha" type="matrix" values="0 0 0 0 0 0 0 0 0 0 0 0 0 0 0 0 0 0 127 0" result="hardAlpha"/>
<feOffset/>
<feGaussianBlur stdDeviation="4.32692"/>
<feColorMatrix type="matrix" values="0 0 0 0 0.27451 0 0 0 0 0.439216 0 0 0 0 0.592157 0 0 0 0.5 0"/>
<feBlend mode="overlay" in2="BackgroundImageFix" result="effect1_dropShadow_55_243"/>
<feBlend mode="normal" in="SourceGraphic" in2="effect1_dropShadow_55_243" result="shape"/>
</filter>
<filter id="filter8_d_55_243" x="0.346154" y="180.346" width="119.423" height="119.423" filterUnits="userSpaceOnUse" color-interpolation-filters="sRGB">
<feFlood flood-opacity="0" result="BackgroundImageFix"/>
<feColorMatrix in="SourceAlpha" type="matrix" values="0 0 0 0 0 0 0 0 0 0 0 0 0 0 0 0 0 0 127 0" result="hardAlpha"/>
<feOffset/>
<feGaussianBlur stdDeviation="4.32692"/>
<feColorMatrix type="matrix" values="0 0 0 0 0.27451 0 0 0 0 0.439216 0 0 0 0 0.592157 0 0 0 0.5 0"/>
<feBlend mode="overlay" in2="BackgroundImageFix" result="effect1_dropShadow_55_243"/>
<feBlend mode="normal" in="SourceGraphic" in2="effect1_dropShadow_55_243" result="shape"/>
</filter>
<filter id="filter9_d_55_243" x="90.3462" y="180.346" width="119.423" height="119.423" filterUnits="userSpaceOnUse" color-interpolation-filters="sRGB">
<feFlood flood-opacity="0" result="BackgroundImageFix"/>
<feColorMatrix in="SourceAlpha" type="matrix" values="0 0 0 0 0 0 0 0 0 0 0 0 0 0 0 0 0 0 127 0" result="hardAlpha"/>
<feOffset/>
<feGaussianBlur stdDeviation="4.32692"/>
<feColorMatrix type="matrix" values="0 0 0 0 0.27451 0 0 0 0 0.439216 0 0 0 0 0.592157 0 0 0 0.5 0"/>
<feBlend mode="overlay" in2="BackgroundImageFix" result="effect1_dropShadow_55_243"/>
<feBlend mode="normal" in="SourceGraphic" in2="effect1_dropShadow_55_243" result="shape"/>
</filter>
<filter id="filter10_d_55_243" x="180.346" y="180.346" width="119.423" height="119.423" filterUnits="userSpaceOnUse" color-interpolation-filters="sRGB">
<feFlood flood-opacity="0" result="BackgroundImageFix"/>
<feColorMatrix in="SourceAlpha" type="matrix" values="0 0 0 0 0 0 0 0 0 0 0 0 0 0 0 0 0 0 127 0" result="hardAlpha"/>
<feOffset/>
<feGaussianBlur stdDeviation="4.32692"/>
<feColorMatrix type="matrix" values="0 0 0 0 0.27451 0 0 0 0 0.439216 0 0 0 0 0.592157 0 0 0 0.5 0"/>
<feBlend mode="overlay" in2="BackgroundImageFix" result="effect1_dropShadow_55_243"/>
<feBlend mode="normal" in="SourceGraphic" in2="effect1_dropShadow_55_243" result="shape"/>
</filter>
<filter id="filter11_d_55_243" x="270.346" y="180.346" width="119.423" height="119.423" filterUnits="userSpaceOnUse" color-interpolation-filters="sRGB">
<feFlood flood-opacity="0" result="BackgroundImageFix"/>
<feColorMatrix in="SourceAlpha" type="matrix" values="0 0 0 0 0 0 0 0 0 0 0 0 0 0 0 0 0 0 127 0" result="hardAlpha"/>
<feOffset/>
<feGaussianBlur stdDeviation="4.32692"/>
<feColorMatrix type="matrix" values="0 0 0 0 0.27451 0 0 0 0 0.439216 0 0 0 0 0.592157 0 0 0 0.5 0"/>
<feBlend mode="overlay" in2="BackgroundImageFix" result="effect1_dropShadow_55_243"/>
<feBlend mode="normal" in="SourceGraphic" in2="effect1_dropShadow_55_243" result="shape"/>
</filter>
<filter id="filter12_d_55_243" x="0.346154" y="270.346" width="119.423" height="119.423" filterUnits="userSpaceOnUse" color-interpolation-filters="sRGB">
<feFlood flood-opacity="0" result="BackgroundImageFix"/>
<feColorMatrix in="SourceAlpha" type="matrix" values="0 0 0 0 0 0 0 0 0 0 0 0 0 0 0 0 0 0 127 0" result="hardAlpha"/>
<feOffset/>
<feGaussianBlur stdDeviation="4.32692"/>
<feColorMatrix type="matrix" values="0 0 0 0 0.27451 0 0 0 0 0.439216 0 0 0 0 0.592157 0 0 0 0.5 0"/>
<feBlend mode="overlay" in2="BackgroundImageFix" result="effect1_dropShadow_55_243"/>
<feBlend mode="normal" in="SourceGraphic" in2="effect1_dropShadow_55_243" result="shape"/>
</filter>
<filter id="filter13_d_55_243" x="90.3462" y="270.346" width="119.423" height="119.423" filterUnits="userSpaceOnUse" color-interpolation-filters="sRGB">
<feFlood flood-opacity="0" result="BackgroundImageFix"/>
<feColorMatrix in="SourceAlpha" type="matrix" values="0 0 0 0 0 0 0 0 0 0 0 0 0 0 0 0 0 0 127 0" result="hardAlpha"/>
<feOffset/>
<feGaussianBlur stdDeviation="4.32692"/>
<feColorMatrix type="matrix" values="0 0 0 0 0.27451 0 0 0 0 0.439216 0 0 0 0 0.592157 0 0 0 0.5 0"/>
<feBlend mode="overlay" in2="BackgroundImageFix" result="effect1_dropShadow_55_243"/>
<feBlend mode="normal" in="SourceGraphic" in2="effect1_dropShadow_55_243" result="shape"/>
</filter>
<filter id="filter14_d_55_243" x="180.346" y="270.346" width="119.423" height="119.423" filterUnits="userSpaceOnUse" color-interpolation-filters="sRGB">
<feFlood flood-opacity="0" result="BackgroundImageFix"/>
<feColorMatrix in="SourceAlpha" type="matrix" values="0 0 0 0 0 0 0 0 0 0 0 0 0 0 0 0 0 0 127 0" result="hardAlpha"/>
<feOffset/>
<feGaussianBlur stdDeviation="4.32692"/>
<feColorMatrix type="matrix" values="0 0 0 0 0.27451 0 0 0 0 0.439216 0 0 0 0 0.592157 0 0 0 0.5 0"/>
<feBlend mode="overlay" in2="BackgroundImageFix" result="effect1_dropShadow_55_243"/>
<feBlend mode="normal" in="SourceGraphic" in2="effect1_dropShadow_55_243" result="shape"/>
</filter>
<filter id="filter15_d_55_243" x="270.346" y="270.346" width="119.423" height="119.423" filterUnits="userSpaceOnUse" color-interpolation-filters="sRGB">
<feFlood flood-opacity="0" result="BackgroundImageFix"/>
<feColorMatrix in="SourceAlpha" type="matrix" values="0 0 0 0 0 0 0 0 0 0 0 0 0 0 0 0 0 0 127 0" result="hardAlpha"/>
<feOffset/>
<feGaussianBlur stdDeviation="4.32692"/>
<feColorMatrix type="matrix" values="0 0 0 0 0.27451 0 0 0 0 0.439216 0 0 0 0 0.592157 0 0 0 0.5 0"/>
<feBlend mode="overlay" in2="BackgroundImageFix" result="effect1_dropShadow_55_243"/>
<feBlend mode="normal" in="SourceGraphic" in2="effect1_dropShadow_55_243" result="shape"/>
</filter>
</defs>
</svg>
